<?xml version="1.0" standalone="no"?>
<!DOCTYPE svg PUBLIC "-//W3C//DTD SVG 1.1//EN" "http://www.w3.org/Graphics/SVG/1.1/DTD/svg11.dtd" >
<svg xmlns="http://www.w3.org/2000/svg">
<metadata></metadata>
<defs>
<font id="felt_tipregular" horiz-adv-x="942" >
<font-face units-per-em="2048" ascent="1638" descent="-410" />
<missing-glyph horiz-adv-x="530" />
<glyph horiz-adv-x="0" />
<glyph horiz-adv-x="682" />
<glyph horiz-adv-x="843" d="M55 1161q6 -24 31 -59q12 -16 54 -53t94.5 -76t107.5 -69t96 -32t93.5 22t104.5 58.5t96 74.5t67 69q25 29 21.5 43t-19 18t-36 -2t-32.5 -16q-10 -12 -44 -35t-79 -45.5t-95 -40t-93 -17.5t-80 25t-65.5 57.5t-48 66.5t-27.5 50q-10 18 -25.5 24.5t-34.5 6.5 q-16 0 -33.5 -6t-29.5 -15q-29 -25 -23 -49z" />
<glyph horiz-adv-x="442" d="M53 987q0 -16 17.5 -37.5t45 -40t60.5 -30t62 -7.5q29 2 54 19.5t44.5 42t32 55.5t16.5 60q6 59 -20.5 103t-73.5 44q-51 0 -94 -22.5t-75 -54.5t-50.5 -68.5t-18.5 -63.5z" />
<glyph horiz-adv-x="643" d="M45 1135q0 -53 37 -106.5t88 -96.5t105.5 -68.5t89 -23.5t74.5 20.5t74 55t59.5 91t33.5 128.5t-17.5 121t-68.5 74.5t-93 38.5t-91 11q-43 -4 -94.5 -22.5t-94.5 -50t-72.5 -75.5t-29.5 -97zM201 1130q0 37 33.5 74t80.5 37q27 0 54.5 -13.5t49 -31.5t36 -40t12.5 -38 t-9 -38.5t-21.5 -42t-36 -33t-52.5 -13.5t-57.5 14.5t-47 36t-31.5 46t-11 42.5z" />
<glyph unicode="&#xa;" horiz-adv-x="880" d="M60.5 911.5q15.5 -22.5 43 -25.5t56 10t37 42t35 84t64.5 119.5t82 131.5t85 120q41 51 29.5 73.5t-43 23.5t-69.5 -13.5t-52 -34.5q-16 -20 -53 -79.5t-79 -132.5t-80 -143.5t-54.5 -111.5t-1 -63.5zM442 963q-10 -43 0.5 -67t28.5 -28t38.5 11.5t31 50.5t43 85 t74.5 103t85 104.5t76 92.5q31 39 24 61.5t-34 29.5t-61.5 -2t-55.5 -32q-23 -25 -60.5 -75t-76.5 -110.5t-71.5 -120.5t-41.5 -103z" />
<glyph horiz-adv-x="733" d="M78 -188q-6 -96 27.5 -159t85 -101.5t106.5 -57t92 -27t82 6t87 38t76 50.5t50 45q14 18 12 36.5t-14 33t-30.5 23.5t-33.5 9q-16 0 -34.5 -13t-43 -28.5t-56 -29t-70.5 -15.5q-86 -4 -126 38t-51.5 101.5t-4 122t17.5 103.5q8 39 8 63q0 27 -7 41t-20.5 19.5t-29.5 7.5 q-43 6 -65.5 -5.5t-33 -47t-14.5 -98t-10 -156.5z" />
<glyph horiz-adv-x="794" d="M42 1131.5q1 -35.5 24 -46.5q20 -10 56 -33.5t72.5 -56t71.5 -71.5t58 -80q20 -41 51 -57.5t62.5 -14.5t58 19.5t41 44t30 52t37 56.5t49 66t68.5 80q39 43 38 70.5t-22.5 37.5t-51.5 6t-46 -24q-29 -23 -58.5 -56.5t-72.5 -87.5q-23 -27 -39 -36t-31.5 -8t-30 11.5 t-30.5 24.5q-35 29 -89.5 82t-127.5 119q-37 31 -63.5 16.5t-41 -46.5t-13.5 -67.5z" />
<glyph unicode="&#xd;" horiz-adv-x="1024" />
<glyph horiz-adv-x="356" d="M-305 -50.5q-8 -27.5 4 -53t57 -48t74 -12.5t45 38t22.5 65.5t6.5 68.5q0 20 17.5 61.5t46 92.5t62 109.5t68.5 113.5t65 102.5t48 78t52 77.5t76 101.5t88 111.5t88 108.5t77 92.5t53 61q53 59 59.5 102.5t-34.5 90.5q-20 23 -44 21.5t-48.5 -19t-47 -46t-41.5 -59.5 q-25 -35 -64.5 -102.5t-85.5 -146t-94 -155.5t-91 -128q-29 -35 -65 -86t-72.5 -111.5t-74.5 -124t-72 -120t-60.5 -100.5t-40.5 -64q-23 -33 -44.5 -63t-29.5 -57.5z" />
<glyph horiz-adv-x="1185" d="M6 434q-4 -31 19.5 -60.5t78.5 -29.5q27 0 67 4t83 10.5t82 15.5t67 19q27 10 42.5 13.5t24.5 0t14 -11.5t14 -18q16 -23 17 -82t-9 -156q-4 -47 5 -76.5t25.5 -46t37 -21.5t38.5 -3q37 4 51.5 36.5t14.5 61.5q0 14 -7 46t-16.5 71t-18.5 78t-15 67q-6 27 -8.5 43.5 t1.5 25.5t14.5 15t28.5 15q37 16 94.5 26t106.5 10q25 0 36 -1t14 -5t2 -13t1 -25.5t2 -34.5v-46q0 -27 -3 -70.5t-7 -115.5t3 -109.5t20.5 -54t30 -18.5t32.5 -2q31 0 49.5 26.5t8.5 87.5q-4 31 -1 77t9 93.5t14 87t14.5 58t10.5 46.5t5 58.5t-1.5 61t-10.5 55.5t-29.5 33 t-48 5t-53 -13.5t-41.5 -20.5q-16 -10 -44.5 -17t-62.5 -12.5t-66.5 -9.5t-55.5 -6q-47 -6 -76.5 2t-25.5 39t-4.5 113t-20.5 227q-6 72 0 113t23.5 60.5t43 22.5t60.5 1q68 -6 128 -61.5t85 -135.5q12 -41 31.5 -59.5t41 -24.5t44 -5t39 3t24.5 23.5t2 55.5t-27.5 76 t-60.5 83t-86 77.5t-98 64.5t-105.5 42t-107.5 12q-66 -4 -108 -43t-52 -117q-4 -39 -2 -111.5t8.5 -151.5t14.5 -150.5t16 -106.5t7 -52t-7 -26.5t-18.5 -14.5t-26.5 -13q-16 -10 -56 -17.5t-87 -11.5t-95 -4q-47 0 -73 4q-55 8 -82 -21.5t-29 -60.5z" />
<glyph horiz-adv-x="1302" d="M37 483q0 -18 17.5 -35.5t42 -29.5t52 -16.5t48.5 4.5q18 8 52 15t71.5 13t74.5 9t64 3t40 -18t18 -52t3 -83t-4 -113q-4 -63 2 -97t18.5 -50.5t30 -21.5t39.5 -7q43 -6 58.5 8.5t15.5 73.5q0 29 -9 66.5t-21.5 80.5t-25 87.5t-18.5 85t11.5 56t46 16.5t62.5 -6t60 -9 q27 -4 52.5 -7t44 0t25.5 19.5t-3 53t-37.5 56t-60.5 28t-66.5 9.5t-56.5 1q-47 0 -64.5 14t-17.5 43v63t1 116t2 142.5t5 141.5q2 66 25.5 92.5t56.5 29.5t71 -9.5t73 -22.5q33 -10 46 -26.5t19 -34t11.5 -34t25.5 -24.5q18 -10 29.5 -53t17.5 -117t8 -177t6 -230 q6 -256 50.5 -405.5t105.5 -192.5q59 -41 80.5 -5t-31.5 132q-16 31 -27.5 86t-19.5 123.5t-13 143.5t-8 146.5t-6.5 133t-7.5 100.5q-6 59 -4 130.5t4 142.5t0 133.5t-16 105.5t-41 50t-57.5 1t-59 -15.5t-47.5 1.5q-18 8 -46 20t-61.5 22.5t-69.5 17.5t-69 9 q-55 2 -87.5 -32.5t-51 -92t-25 -128t-6.5 -140.5q0 -68 3.5 -126t3.5 -91q0 -49 -2.5 -82t-7.5 -54.5t-13 -34.5t-18.5 -25.5t-40 -19.5t-70.5 -7q-39 0 -84 5t-84 17q-41 12 -66.5 1t-41 -32.5t-21.5 -47t-6 -44.5z" />
<glyph horiz-adv-x="1124" d="M21.5 766q-3.5 -21 5 -40t27 -33.5t49 -16.5t51 7t36 23.5t31 31t37.5 28.5q20 12 34.5 11t23 -9t11.5 -20.5t5 -22.5t3 -78.5t1 -163.5q0 -92 -5 -192.5t-16 -175.5q-10 -74 7.5 -108t48 -43t66.5 -2t63 18q27 8 85 32.5t122.5 50t120 47t77.5 25.5q41 10 81 16.5 t83 41.5t23.5 59t-72.5 31q-27 2 -80 -12.5t-116.5 -36t-128 -47t-114 -44t-73 -22.5t-32.5 4t-10 26.5t-3 45.5q-2 16 -5 58t-6 96.5t-6.5 115.5t-5.5 118.5t-4 106.5t-2 78q0 43 6 63.5t17.5 29.5t27 12.5t35.5 13.5q39 18 56.5 36.5t13.5 73.5q-2 27 -15.5 35t-32 6 t-39 -10t-36.5 -10q-35 -6 -52.5 35t-17.5 137q0 47 -12 75.5t-30.5 41t-41 13.5t-43.5 -7q-43 -16 -48 -53t8.5 -82t34 -90.5t30.5 -73.5q8 -29 6 -47.5t-13.5 -31.5t-30.5 -23.5t-44 -20.5q-47 -23 -99.5 -41t-76.5 -49q-12 -16 -15.5 -37z" />
<glyph horiz-adv-x="645" d="M44 621.5q-1 -27.5 7 -52.5q16 -49 60.5 -43t103.5 47q29 20 44 24.5t23.5 -2.5t11.5 -24.5t7 -42.5q2 -16 4 -55t0 -88t-5 -104.5t-7 -104.5t-12.5 -86t-16.5 -53q-14 -23 -5 -49.5t30.5 -48t53.5 -36t65 -9.5q33 2 43 25.5t9 54t-9.5 61.5t-14.5 51q-4 12 -6 50t-4 88 t-3 106.5t-2 105.5t-2 85t-3 48q-6 35 -6 58q0 25 43 37q20 6 48.5 19t53.5 30.5t42 35t19 33.5q4 31 -35.5 41.5t-99.5 3.5q-29 -4 -42 -2t-17 8.5t-3 16.5t1 27q0 31 13 111.5t32 166.5q8 43 -2 68.5t-31.5 37t-49.5 10.5t-52 -9q-43 -14 -66.5 -39t-31 -52.5t-1 -53 t20.5 -40.5q12 -14 20.5 -45t12.5 -66.5t6 -71.5t6 -58q2 -23 -11.5 -41.5t-37 -30.5t-54 -20.5t-61.5 -10.5q-31 -4 -50.5 -20.5t-28.5 -40t-10 -51z" />
<glyph horiz-adv-x="1220" d="M47 922q0 -18 2 -39q4 -43 48 -47.5t104 14.5q18 6 59 11t94.5 8t111.5 4t112.5 -1t98.5 -6t68 -12q35 -12 20 -51t-54 -88t-88.5 -101.5t-81.5 -91.5q-31 -39 -78 -96t-95.5 -112.5t-91.5 -99.5t-63 -56q-43 -25 -51 -51.5t10 -75.5t53 -61.5t115 24.5q27 12 74 22.5 t105.5 17.5t123 14t125.5 13.5t113.5 12.5t85.5 14q102 23 148 42t40 60q-4 20 -22.5 26.5t-46 4.5t-59.5 -10t-60 -16q-29 -10 -99.5 -9.5t-151.5 1.5t-156 0t-113.5 -13t-52 -7t-11.5 18.5t14.5 30.5t28.5 32q10 8 41 41t74 79t93 99t97 105.5t88 96.5t66 70q72 78 71 131 q0 55 -92 99q-31 14 -92 23t-137 13.5t-158 5.5t-155.5 -1t-129 -7.5t-77.5 -9.5q-29 -6 -43.5 -16t-19.5 -23.5t-5 -31.5zM303 1415q-49 -92 33 -143q20 -12 51 -45t68 -67t75.5 -59.5t75.5 -25.5t82 47t91 108.5t86 123t69 90.5q27 29 23.5 50.5t-21.5 31.5t-45 10 t-43.5 -14.5t-42 -40t-53 -57t-54 -66.5t-47.5 -66q-18 -31 -35.5 -39t-32 -3t-25.5 18.5t-17 27.5q-6 12 -18.5 34t-28 45.5t-34 44t-34.5 32.5q-41 31 -69.5 20.5t-53.5 -57.5z" />
<glyph horiz-adv-x="974" d="M49 651q-2 -35 20.5 -54t53.5 -27.5t59 -8.5q31 0 47 4q14 2 37 15.5t52.5 25.5t67.5 15.5t85 -11.5q31 -10 33 -41.5t-15.5 -73.5t-47 -91.5t-63.5 -93.5t-63.5 -79.5t-44.5 -50.5q-47 -47 -43 -91t76 -60q23 -6 72 -8.5t108.5 -3.5t125 1t124 6.5t101.5 10.5t59 14 q25 12 36 29.5t11 34.5q0 16 -10.5 27.5t-28.5 11.5t-62 1t-100 1h-112q-55 0 -98.5 -2t-58.5 6t-13 22.5t16 31.5t30.5 33.5t48.5 61.5t63.5 99.5t56 108.5t28.5 91q2 37 -22.5 65.5t-67.5 49t-99 33t-114 16.5q-68 6 -118 6q-51 0 -110.5 -6t-88.5 -27.5t-31 -91.5z M200.5 1108.5q-3.5 -33.5 12.5 -56t61 -69.5t86 -90q20 -23 36 -32t32 -9t34.5 10t45.5 26.5t60.5 42t69.5 53.5t69.5 53.5t58.5 43.5q49 37 65.5 68.5t-12.5 62.5q-27 29 -51.5 32t-71.5 -32q-35 -29 -57.5 -55.5t-69.5 -66.5q-23 -20 -49 -21q-25 0 -49.5 12.5t-46 32 t-35.5 37.5q-16 18 -37.5 27.5t-45 11.5t-44 -4t-33.5 -19q-25 -25 -28.5 -58.5z" />
<glyph unicode=" "  horiz-adv-x="530" />
<glyph unicode="&#x09;" horiz-adv-x="530" />
<glyph unicode="&#xa0;" horiz-adv-x="530" />
<glyph unicode="!" horiz-adv-x="374" d="M90 1272q-2 -117 7 -225.5t20.5 -208t20.5 -193.5t7 -184q0 -25 15.5 -40t35 -17.5t37 10t17.5 41.5q2 119 2 215q0 98 -2 190t-3 189.5t3 216.5q0 27 -24.5 42t-54.5 17t-55.5 -11.5t-25.5 -41.5zM105.5 118.5q-1.5 -36.5 5 -68.5t21.5 -49t44 -7q35 14 61.5 24t55.5 37 q31 27 33 48.5t-12.5 40t-37 36t-38.5 35.5q-25 29 -46.5 34t-37 -4t-25.5 -26.5t-14 -34.5q-8 -29 -9.5 -65.5z" />
<glyph unicode="&#x22;" horiz-adv-x="581" d="M80 1079q0 -66 4 -124t14.5 -103t26.5 -65.5t46 -14.5t55.5 24.5t39.5 45t0 49.5q-25 39 -33 92t-5 110.5t14.5 113t23.5 96.5q12 39 -9 70.5t-54 48t-65 12.5t-38 -39q-6 -27 -11 -77t-7 -111.5t-2 -127.5zM365 1266q2 -74 8 -138.5t12 -124t8 -118t-4 -117.5 q-2 -18 17.5 -30.5t44 -14.5t45 6t22.5 27q6 78 7 143.5t1 124.5v117t4 119q2 35 -24.5 52t-59.5 17q-31 0 -56 -16.5t-25 -46.5z" />
<glyph unicode="#" horiz-adv-x="1175" d="M-8 587.5q2 -24.5 12 -50t23 -45.5q14 -25 32.5 -33t42 -6t49 10t54.5 16q23 6 41 -7t8 -60q-23 -102 -37 -194.5t-31 -211.5q-4 -31 8.5 -45t31 -15t36 10t23.5 32q18 74 30.5 129t23.5 103t22.5 93t27.5 99q14 45 42 73.5t75 34.5q33 4 63.5 3t71.5 -7q35 -4 40 -19.5 t3 -35.5q-4 -115 -32.5 -229.5t-59.5 -256.5q-4 -18 7 -26t27.5 -9t32 4t19.5 17q39 96 60.5 168t33.5 132.5t20.5 115.5t20.5 121q6 43 51 47q53 4 92 4t86 -2q12 0 21.5 12t12.5 27.5t-1 31t-16 19.5q-49 18 -86 23.5t-90 5.5q-41 0 -44 21.5t-1 43.5q4 43 12 82t12 88 q2 31 24.5 43t49.5 8q55 -10 100 -15t103 -22q20 -6 33.5 5.5t18.5 28t1 35t-16 24.5q-74 41 -139.5 46t-118.5 15q-25 4 -38.5 23.5t-11.5 44.5q4 47 12.5 91t12.5 93q2 20 -18.5 31.5t-45 14.5t-47 -5t-26.5 -27q-12 -55 -9 -102t-2 -109q-2 -35 -13 -49t-38 -20 q-23 -6 -44 -13.5t-40 -7.5q-16 0 -25.5 11.5t-4.5 41.5q4 27 3 48.5t3 40.5q6 20 -13.5 31.5t-46 13.5t-51 -6.5t-31.5 -28.5q-8 -25 -13 -42.5t-8 -31.5t-7 -30.5t-8 -37.5q-6 -31 -26 -47t-48 -32q-31 -16 -59.5 -26.5t-57.5 -21t-57.5 -23.5t-59.5 -34 q-29 -20 -25.5 -48t23 -49.5t49 -29.5t58.5 10q35 23 49 42.5t49 25.5q39 6 49 -1t6 -42q-4 -23 -6 -40t-6 -40q-6 -35 -25.5 -39t-41.5 -4q-68 -2 -123.5 4t-110.5 2q-33 -4 -44 -21.5t-9 -42zM494 682.5q-5 19.5 0 42.5q4 25 10 44t8 48q2 33 26.5 48.5t55.5 27.5 q29 10 56.5 8t49.5 -4q18 -2 26.5 -19.5t6.5 -35.5q-4 -29 -3 -52.5t-9 -52.5q-8 -27 -12 -54.5t-31 -31.5q-39 -6 -72 -5t-76 11q-31 6 -36 25.5z" />
<glyph unicode="$" horiz-adv-x="921" d="M16 969.5q2 -17.5 13 -31.5q49 -63 93 -99t86 -58.5t81 -38t76 -37.5q35 -23 28 -74q-8 -53 -12 -104.5t-7 -110t-3 -125.5q0 -66 2 -148q0 -16 -6.5 -28.5t-38.5 -8.5q-53 8 -80 42t-55 81q-23 35 -42.5 40t-34 -6t-22.5 -31.5t-4 -34.5q14 -80 42 -124t62.5 -65.5 t76.5 -26t85 -6.5q18 0 22.5 -19t6.5 -38q2 -43 3 -88t8 -85t27.5 -71.5t63.5 -46.5q29 -10 51.5 -5t35 17.5t14.5 28t-10 25.5q-16 14 -28.5 42.5t-22 65.5t-15.5 78t-8 80q-2 25 19.5 41t45.5 12q37 -8 87.5 1.5t96.5 33t79.5 61.5t39.5 89q6 61 -14 124.5t-61 127 t-97.5 125t-117.5 118.5q-18 16 -28.5 24.5t-17 20t-7.5 29.5t3 53q4 59 5.5 102.5t11.5 102.5q6 39 23.5 42t62.5 -1t47 -22.5t0 -38t12.5 -35t83.5 -11.5q43 2 66.5 27t23.5 92q0 39 -22.5 64.5t-56 40t-74.5 17.5t-80 1q-41 -4 -50.5 5t-6.5 61v39q0 16 -3.5 32.5 t-10.5 36t-19 51.5q-6 16 -25.5 24.5t-40.5 8.5q-18 0 -33.5 -8t-15.5 -25q0 -33 1 -55t2 -40.5l2 -37t3 -43.5q4 -39 -9 -69.5t-48 -49.5q-72 -39 -155 -53t-156 -28q-16 -4 -29.5 -16.5t-20 -29t-4.5 -34zM228.5 941.5q-5.5 16.5 25.5 33.5q35 16 66.5 30.5t52.5 6.5 q18 -6 23 -19.5t5 -29.5t-2 -36t-2 -38q2 -41 -8 -57.5t-37 12.5q-12 12 -22.5 20t-21.5 14.5t-25.5 13.5t-32.5 21q-16 12 -21.5 28.5zM495 254q1 37 3 71.5t4 71.5t2 82q0 57 23.5 74.5t45.5 -12.5q23 -29 38.5 -51.5t29.5 -42t29.5 -39t38.5 -43.5q41 -47 42 -91t-38 -73 q-47 -35 -81 -52.5t-83 -21.5q-20 -2 -35.5 4t-17.5 41q-2 45 -1 82z" />
<glyph unicode="%" horiz-adv-x="1099" d="M8.5 51q1.5 -28 17 -45.5t40 -16.5t53.5 40q92 127 194.5 266t205 275.5t199.5 261t178 222t140 160t86 72.5q31 12 27 37t-24.5 46.5t-47 31.5t-41.5 -4q-133 -141 -258 -301t-248.5 -328t-248.5 -338t-256 -328q-18 -23 -16.5 -51zM98 903q-2 -47 41 -92 q86 -92 201 -45q53 23 105.5 51.5t94.5 64.5t68.5 79t30.5 96q4 68 -18.5 85t-54 14t-63.5 -11t-44 6q-35 39 -88 39t-92 -35t-82 -76t-70 -85t-29 -91zM272 926q0 12 6.5 23.5t12.5 17.5q29 33 56.5 52t62.5 21q14 0 23 -12t11 -29.5t-4 -36t-18 -28.5q-27 -20 -50.5 -22.5 t-56.5 -6.5q-25 -2 -34 4t-9 17zM553 217q4 -37 31.5 -47t58.5 -18q33 -8 56.5 2t45 28.5t42 42t49.5 41.5t41 49t9 61t-19.5 54.5t-43.5 32.5q-18 6 -34.5 18.5t-32 20.5t-30.5 7t-34 -26q-27 -35 -53.5 -64.5t-47 -60t-31.5 -64.5t-7 -77z" />
<glyph unicode="&#x26;" horiz-adv-x="952" d="M5 218q5 -48 34 -84t77 -53.5t107 -10.5q55 6 98.5 24.5t82 44t73.5 55t74 56.5q20 14 40.5 11t41.5 -32q27 -37 52.5 -59.5t53.5 -58.5q8 -10 27.5 0t38 29.5t28 43t-3.5 41.5q-20 29 -40.5 46.5t-49.5 39.5q-20 16 -26 26.5t-2 20t14 18.5t23 21q31 37 55 68t45.5 60.5 t44 61t51.5 68.5q14 18 10 54t-17 67t-30.5 43t-32.5 -16q-23 -47 -44 -87t-44.5 -75t-50 -69.5t-57.5 -71.5q-27 -33 -52.5 -31t-54.5 31q-37 37 -59.5 68.5t-42.5 78.5q-10 20 -13 33.5t-2 23t6 17.5t13 20q20 33 39.5 58.5t38 50t37 50.5t37.5 58q63 106 28 182.5 t-147 88.5q-47 6 -85 -12.5t-66.5 -50t-50 -74.5t-36.5 -88q-10 -33 -10 -60t3 -53.5t8 -55t7 -61.5q0 -16 5.5 -29.5t8.5 -26.5t2 -24.5t-11 -21.5q-45 -45 -80 -85t-63.5 -80t-55.5 -85t-55 -103q-27 -53 -22 -101zM152.5 247.5q-5.5 18.5 0 39t13.5 37.5q41 76 79 129 t89 100q20 18 39 18q20 0 30 -18q16 -35 27.5 -57.5t38.5 -49.5q78 -78 -8 -127q-25 -14 -53.5 -32.5t-59.5 -34.5t-63.5 -28.5t-65.5 -14.5q-31 -4 -46 8t-20.5 30.5zM395 930q4 29 9.5 50t27.5 36q31 18 45.5 8t-8.5 -41q-16 -23 -26.5 -42t-14.5 -48q-2 -6 -8 -7t-12.5 3 t-10.5 14t-2 27z" />
<glyph unicode="'" horiz-adv-x="315" d="M55 1315q6 -68 10.5 -123t9.5 -108.5t13 -108.5t23 -121q8 -43 34.5 -63.5t52 -16.5t44 31t10.5 80q-10 63 -13 115.5t-3 101.5q0 51 3 103t7 116q2 33 -29 49t-67 16q-37 0 -68 -17t-27 -54z" />
<glyph unicode="(" horiz-adv-x="581" d="M112 231.5q9 -104.5 42.5 -192.5t95 -149.5t151.5 -73.5q33 -4 48.5 11t17.5 36.5t-8 41t-29 25.5q-96 27 -139 90.5t-54.5 145.5t-2 175t19.5 183q12 106 46 199.5t81 172.5t103.5 143.5t113.5 111.5q35 29 40 48.5t-6 28.5t-32 9q-18 0 -35 -8q-195 -111 -304 -315.5 t-146 -479.5q-12 -98 -3 -202.5z" />
<glyph unicode=")" horiz-adv-x="493" d="M-96 -301q0 -14 9 -20.5t23.5 -4.5t28.5 15q123 109 213 221.5t145.5 237t74.5 264t1 301.5q-12 100 -36.5 186t-64.5 161t-97.5 141.5t-132.5 129.5q-12 10 -30 8t-29 -12t-14 -26.5t11 -30.5q66 -70 115 -133.5t83 -132t56.5 -145.5t36.5 -171q20 -150 2 -275.5 t-69.5 -239.5t-131.5 -222.5t-178 -220.5q-16 -18 -16 -31z" />
<glyph unicode="*" horiz-adv-x="864" d="M-17.5 723q-0.5 -25 17.5 -46.5t45 -33.5t45 -8q27 6 48.5 13t42 14.5t42 15.5t48 18.5t39 8t15.5 -12.5t-1.5 -25.5t-8.5 -31.5q-8 -33 -21 -56.5t-28.5 -45l-31 -43t-29.5 -52.5q-18 -43 -16.5 -54t16 -7t36 17.5t38.5 23.5q41 23 61 48.5t61 49.5q14 8 22.5 13.5 t13.5 1t5 -22.5v-53q0 -27 21.5 -33t51.5 -5t61.5 5t50.5 0q45 -10 66.5 -6t26.5 15t-2 25.5t-22 26.5q-29 25 -50 47.5t-39.5 46t-37 50t-41.5 61.5q-8 12 -4 23.5t14.5 22.5t25 18.5t26.5 9.5q61 10 104.5 7t104.5 -7q51 -4 54 1t-12.5 24.5t-34 59.5t-7.5 107 q4 25 -25 35t-72 5t-92 -21.5t-86 -42.5q-8 -6 -17 -14.5t-17.5 -9.5t-13.5 12.5t-1 52.5q6 72 20.5 122t49.5 107q20 31 8 48.5t-35.5 21.5t-49.5 -2t-34 -23q-12 -27 -25.5 -49t-24.5 -46t-18.5 -50.5t-9.5 -59.5q-2 -23 -8 -28.5t-15 -3.5t-18.5 9t-15.5 11 q-29 18 -43 28.5t-39 24.5q-18 10 -35.5 4t-32 -20t-19.5 -33.5t1 -36.5q12 -33 17.5 -52t9.5 -31.5t11 -21.5t28 -22q35 -20 26.5 -31.5t-43.5 -21.5q-47 -12 -80.5 -19.5t-79.5 -29.5q-37 -18 -37.5 -43z" />
<glyph unicode="+" horiz-adv-x="1144" d="M17 566.5q-5 -23.5 6.5 -45t33 -36t41.5 -10.5q39 6 71 14.5t60.5 15.5t56 12t58.5 3q29 -2 47.5 -19.5t22.5 -45.5q8 -78 17 -139.5t24 -143.5q4 -27 14 -40t22.5 -12t23.5 17.5t17 50.5q6 37 8.5 69t0.5 61.5t-6.5 61.5t-6.5 71q-2 29 5.5 43t19.5 22t28.5 11t32.5 10 q29 10 82.5 9t115.5 2t127 16.5t118 49.5q35 25 46 42.5t8 28.5t-15.5 16.5t-26.5 7.5q-49 6 -106.5 -7.5t-123 -28t-135 -20.5t-143.5 15q-27 8 -40 17t-17 56q-2 39 -3 72t-2 65.5t-3 66.5t-9 75q-4 23 -28.5 41t-52 25.5t-50 2t-20.5 -27.5q4 -57 9 -100t9 -82t6 -79 t0 -91q-2 -35 -21.5 -48.5t-59.5 -17.5q-66 -4 -114 -7t-108 -30q-35 -16 -40 -39.5z" />
<glyph unicode="," horiz-adv-x="344" d="M3 -285.5q9 -21.5 28.5 -30t41 -2t33.5 22.5q41 59 68 111.5t49.5 103.5t49 103.5t67.5 111.5q20 31 7 55.5t-39.5 37t-57.5 8t-45 -32.5q-29 -61 -54.5 -112.5t-48 -100.5t-46 -101.5t-48.5 -115.5q-14 -37 -5 -58.5z" />
<glyph unicode="-" horiz-adv-x="536" d="M33 493.5q2 -24.5 14 -46t33 -23.5q47 -8 93 -6t95 6t100.5 6t110.5 -6q18 -2 31.5 13.5t19 35t-1 39t-24.5 23.5q-123 29 -224.5 29.5t-205.5 -5.5q-25 -2 -34 -21.5t-7 -44z" />
<glyph unicode="." horiz-adv-x="442" d="M83 93q3 -34 19.5 -65.5t45 -54t61.5 -22.5q41 2 80 29.5t58.5 64.5t14 75.5t-50.5 63.5q-55 29 -112.5 21t-100.5 -58q-18 -20 -15 -54z" />
<glyph unicode="/" horiz-adv-x="804" d="M34 -133.5q9 -18.5 30.5 -21.5t46 8.5t41.5 40.5q104 186 183 342.5t150.5 308t146.5 310.5t171 349q16 31 2 60.5t-39 48t-50.5 23.5t-31.5 -13q-74 -213 -145.5 -384t-147.5 -330.5t-162 -324.5t-188 -366q-16 -33 -7 -51.5z" />
<glyph unicode="0" d="M71 236.5q1 -70.5 23.5 -134t83.5 -118.5q78 -72 147.5 -81t133 18.5t122 80.5t113.5 109q72 70 114 151.5t61.5 173.5t20.5 194.5t-7 213.5q-4 43 2 82t6 73q0 37 -14.5 71t-59.5 69q-61 47 -130 65.5t-132 -24.5q-78 -53 -158 -137.5t-145.5 -174.5t-108.5 -176 t-47 -143q-6 -84 -16 -163t-9 -149.5zM203 266q4 123 21.5 217.5t52 174t89 152.5t132.5 153q20 23 48.5 33t55.5 7.5t48.5 -15.5t31.5 -38q23 -61 43 -115.5t32.5 -107.5t14.5 -109t-12 -122q-35 -162 -120 -276t-232 -163q-31 -10 -67 5.5t-67.5 47t-52 72.5t-18.5 84z " />
<glyph unicode="1" d="M360.5 1282q-8.5 -18 6.5 -45q12 -23 16 -84t6 -143t5 -174.5t14 -176.5q12 -98 16 -178t6 -156.5t5 -156.5t14 -176q4 -45 20 -65.5t37.5 -22.5t44 10t39 29.5t24.5 38t2 34.5q-27 51 -36 116t-12 139.5t-3 156.5t-6 166q-16 188 -10 318t8 213t-11.5 127t-64.5 63 q-20 8 -45.5 6t-46 -11.5t-29 -27.5z" />
<glyph unicode="2" d="M-2 1110q-6 -43 6 -83t42 -62.5t73 2.5q39 20 68.5 39.5t57 35t59.5 26.5t73 17q45 6 76.5 -10t50 -46t22.5 -66.5t-6 -69.5q-23 -78 -62.5 -156t-86.5 -151.5t-97.5 -142t-93.5 -129t-73.5 -110.5t-40.5 -85q-6 -23 -3 -49.5t14 -50t29.5 -40t45.5 -16.5q121 -2 213 6 t174 26.5t164 46t186 64.5q31 10 39 32t2 41.5t-23.5 32.5t-42.5 9q-66 -12 -123 -24.5t-112.5 -21.5t-112.5 -14t-123 -1q-41 2 -60.5 12t-24.5 25.5t1 32t15 32.5q72 127 156.5 240.5t144 220t74 210t-55.5 210.5q-41 61 -121 86.5t-170 23.5t-177 -25.5t-142 -56.5 q-29 -18 -35 -61z" />
<glyph unicode="3" d="M-172 1006q6 -37 27.5 -69t53.5 -49.5t64 1.5q43 25 54.5 43t11.5 33q0 14 -1 25t17 22q94 53 200.5 77.5t229.5 53.5q25 6 37.5 -4.5t15.5 -27.5t-2.5 -35.5t-13.5 -31.5q-29 -41 -55.5 -75.5t-56 -66.5t-62.5 -63.5t-76 -64.5q-29 -23 -37 -49.5t-1.5 -51t24.5 -43 t43 -20.5q63 -8 105.5 -18t78 -23.5t70.5 -31t82 -37.5q27 -12 42 -38t-13 -65q-39 -51 -81 -93t-84 -71.5t-80 -43t-71 -9.5q-45 6 -61.5 -26.5t-4 -68.5t52.5 -56.5t112 12.5q90 41 171.5 101.5t139 125t85 127t9.5 105.5q-23 55 -56.5 90t-77.5 59.5t-95.5 43 t-106.5 40.5q-43 16 -45 32.5t29 45.5q37 35 68.5 66.5t60 65.5t56.5 72t56 87q18 33 15.5 64.5t-20 57t-46 42t-59.5 20.5q-80 6 -181.5 2t-208 -27.5t-211 -71.5t-190.5 -128q-20 -18 -14 -55z" />
<glyph unicode="4" d="M-56 371q5 -31 24.5 -57.5t48 -42t55.5 -5.5q43 16 84 36t79.5 35t78.5 23.5t81 -0.5q45 -6 54 -45q6 -27 9 -61.5t12 -69t26.5 -65.5t50.5 -45q18 -8 37.5 -16.5t36 -6.5t26.5 15.5t10 48.5q0 59 -9 103t-11 101q0 16 14.5 25.5t30.5 11.5q98 6 141 25.5t58.5 39 t19.5 34t27 12.5q25 -2 43 6t16 24.5t-28.5 38t-92.5 46.5q-25 8 -49 2t-48 -15.5t-48.5 -17.5t-50.5 -2q-16 4 -21.5 16.5t-7.5 28.5q-4 82 0 146.5t12.5 125t17.5 123t15 137.5q2 43 -17.5 67t-50 30t-64.5 -1.5t-60 -21.5q-35 -20 -42.5 -40.5t-7.5 -43.5q0 -20 1 -42.5 t-13 -45.5q-123 -180 -246 -334.5t-229 -271.5q-18 -20 -13 -51zM247 538.5q-7 16.5 1 26.5q53 76 95 127t93 103q6 6 14.5 14t15.5 9t14.5 -9t13.5 -43q10 -68 8 -120t-13 -105q-2 -10 -12 -12.5t-20 -4.5q-47 -4 -90 -7t-99 3q-14 2 -21 18.5z" />
<glyph unicode="5" d="M17 797q-3 -47 23 -94.5t87 -84.5q45 -27 91 -42t95 -28t99.5 -30.5t103.5 -46.5q41 -23 68.5 -49.5t36 -55t-9 -59.5t-66.5 -61q-57 -35 -110.5 -40t-119.5 7q-27 6 -47 3t-27.5 -14.5t1 -29.5t37.5 -45q41 -37 90 -50.5t100 -7t99 31t87 63.5q35 35 65 75t40 83 t-3.5 88t-64.5 94q-49 47 -105.5 80.5t-116.5 61.5t-125.5 53.5t-135.5 58.5q-45 20 -39 55t43 55q49 27 94 38.5t91 14.5t94.5 2t105.5 3q74 6 130 11t106.5 16.5t99.5 29.5t106 53q33 20 39 39t-3 32t-27.5 19.5t-32.5 3.5q-121 -25 -253 -31.5t-292 15.5q-74 10 -120 -3 t-83 -40t-70.5 -59.5t-82.5 -61.5q-41 -25 -68 -65.5t-30 -87.5z" />
<glyph unicode="6" d="M92 582q-12 -90 2.5 -158t49 -119t89 -90t121.5 -72q72 -35 151 -29.5t146.5 38t113.5 83t52 105.5t-3 94t-30.5 63.5t-50 36t-59.5 11.5q-102 0 -176 -31t-160 -84q-27 -16 -54.5 -20t-47 13t-24.5 62t11 125q8 41 40 90.5t77 101.5t98.5 103t105.5 92t98 70t77 39 q20 6 25.5 32.5t-3 54.5t-30 45t-54.5 3q-78 -33 -171 -112.5t-178 -177t-145.5 -198t-70.5 -171.5zM412 312.5q6 13.5 37 23.5q55 20 112 46t96 15q10 -4 21.5 -9t19 -12t6 -17.5t-17.5 -22.5t-39.5 -31.5t-53.5 -36t-63.5 -23.5t-68.5 5q-12 4 -26.5 14t-21.5 22.5t-1 26z " />
<glyph unicode="7" d="M-12 1103.5q-2 -18.5 6 -37.5t24 -34q39 -33 103.5 -39t139.5 -2t156 8.5t154 -8.5q14 -4 28.5 -5t24 -8t9.5 -26q0 -16 -12 -51q-20 -59 -53 -138t-69 -166t-68 -177t-49 -172t-16 -148.5t33 -107.5q47 -61 75 -42t24 103q-4 76 28.5 196t81.5 254t108.5 265t108.5 231 q29 57 2.5 87t-67.5 40q-66 14 -162 21.5t-198.5 9.5t-202 0t-170.5 -6q-18 0 -27.5 -14.5t-11.5 -33z" />
<glyph unicode="8" d="M102 130q2 -46 39 -81q45 -41 101.5 -66.5t114 -28.5t110.5 19.5t92 75.5q49 68 70.5 116t17.5 94t-32.5 97.5t-79.5 122.5q-20 29 -11.5 57.5t27.5 57.5q33 49 83 86t101 75t96 82t68 105q27 72 7.5 98.5t-72.5 -4.5q-49 -29 -93.5 -72.5t-89.5 -92t-92 -92.5t-102 -70 q-10 -6 -17.5 -13.5t-16.5 -10.5t-20.5 4t-31.5 32q-29 37 -46.5 73.5t-14.5 75.5t32 80t90 82q29 20 55.5 25.5t54 -0.5t59.5 -21.5t73 -36.5q14 -8 27.5 -0.5t22.5 22.5t12 33.5t-5 35.5q-20 37 -53 63.5t-70 40.5t-74.5 16t-68.5 -10q-66 -27 -131.5 -60.5t-118.5 -103.5 q-47 -59 -56 -118.5t5 -112.5t41.5 -98t54.5 -76q33 -39 36 -65.5t-11.5 -52.5t-39 -55.5t-46.5 -72.5q-14 -29 -39 -72t-42.5 -90t-15.5 -93zM227 176q16 31 29.5 59.5t27 55t31 54.5t40 56.5t46 21.5t39.5 -26q31 -35 47.5 -60.5t26.5 -66.5t1 -74.5t-50 -60.5 q-45 -29 -84 -42t-92 -7q-39 4 -58.5 32.5t-3.5 57.5z" />
<glyph unicode="9" d="M65 848q-2 -43 17.5 -80t60.5 -63.5t107 -32.5q90 -10 163.5 -7t159.5 44q33 16 49.5 4.5t0.5 -70.5q-33 -113 -64 -268.5t-59 -333.5q-4 -23 21.5 -36t56.5 -13q33 0 58.5 15.5t22.5 49.5q-4 66 1.5 119t15.5 103.5t25.5 101.5t32 114.5t28.5 116t20.5 104.5t13.5 106.5 t7 119.5q0 25 9 44.5t18.5 35.5t15.5 34.5t2 41.5q-10 53 -47 94t-92 37q-88 -8 -180.5 -28.5t-175.5 -56.5t-151.5 -89.5t-111.5 -124.5q-23 -39 -25 -82zM232 871.5q-3 29.5 30 58.5q59 51 158.5 82.5t214.5 56.5q20 4 32.5 -2t16.5 -19.5t0 -31t-16 -33.5 q-37 -53 -93.5 -97t-115 -69.5t-112.5 -28t-89 30.5q-23 23 -26 52.5z" />
<glyph unicode=":" horiz-adv-x="417" d="M84 633q10 -53 44 -81t85 -48q25 -10 42 -1t31.5 25.5t27 39t28.5 40.5q20 25 17 43.5t-20 30.5t-41 22.5t-42 20.5q-37 20 -71.5 21.5t-59.5 -12t-36 -39t-5 -62.5zM115 166q2 -41 13 -63.5t29.5 -33t43 -12.5t49.5 -2q47 0 90 22.5t39 69.5q-8 106 -135 136 q-25 6 -48.5 -0.5t-42 -21.5t-29.5 -39.5t-9 -55.5z" />
<glyph unicode=";" horiz-adv-x="462" d="M51 -306q6 -48 30.5 -85t53.5 -52.5t37 7.5q23 61 54.5 130.5t66.5 146.5t68.5 161t62.5 176q8 29 -10.5 54.5t-46 40t-53 11.5t-31.5 -32q-29 -145 -74 -255t-129 -212q-35 -43 -29 -91zM78 751.5q-6 -30.5 14 -51.5q37 -35 71 -53t83 -33q18 -6 43.5 11.5t43 42 t19 51.5t-25.5 43q-39 23 -63.5 38t-59.5 42q-23 16 -51.5 4t-48 -38t-25.5 -56.5z" />
<glyph unicode="&#x3c;" horiz-adv-x="878" d="M37 351.5q-2 -25.5 6 -45t31 -23.5q90 -16 171 -46t156.5 -64t147.5 -66.5t143 -57.5q23 -8 41.5 16.5t25.5 57.5t1 61.5t-31 32.5q-80 10 -180 62.5t-205 105.5q-16 8 -29.5 21.5t-16.5 31t6 37t40 37.5q78 49 137.5 91t116.5 87t119.5 101.5t146.5 134.5 q27 25 12.5 59.5t-43 58t-58.5 25.5t-34 -37q-4 -27 -43 -68.5t-100 -93t-136 -108.5t-147.5 -113.5t-136 -109t-100.5 -93.5q-16 -18 -27.5 -43.5t-13.5 -51z" />
<glyph unicode="=" horiz-adv-x="1085" d="M24.5 356.5q8.5 -30.5 34 -49t60.5 -6.5q55 20 139 40.5t178 35t190.5 20.5t180.5 2q39 -2 57.5 8.5t17.5 24.5t-19.5 29.5t-49.5 23.5q-47 12 -125 17.5t-175 2.5t-207.5 -15.5t-223.5 -34.5q-41 -8 -53.5 -38t-4 -60.5zM52 774q-9 -31 2.5 -63.5t37 -56t51.5 -15.5 q182 59 402.5 82.5t451.5 15.5q70 -2 84.5 12.5t0 33t-42 35t-42.5 18.5q-96 8 -214.5 9t-240.5 -3t-235.5 -12.5t-200.5 -18.5q-45 -6 -54 -37z" />
<glyph unicode="&#x3e;" horiz-adv-x="878" d="M47 74q2 -35 21.5 -61.5t42 -40t43 -10.5t24.5 26q10 57 79 135t165 164t203.5 175t195.5 169q18 16 26.5 40.5t6.5 49t-14.5 46t-34.5 32.5q-57 27 -129 61.5t-147.5 69.5t-146.5 69.5t-126 61.5q-18 8 -38.5 1t-41 -22.5t-35 -37t-19.5 -43t4 -37t36 -21.5 q115 -20 212 -61t210 -115q37 -25 46 -41t4 -29.5t-19.5 -25t-26.5 -23.5q-39 -39 -94.5 -83t-116 -91t-119.5 -95t-107.5 -94t-77 -89t-26.5 -80z" />
<glyph unicode="?" horiz-adv-x="626" d="M-37.5 1236q-9.5 -30 8 -61.5t51 -57t62.5 -30.5q43 -6 79 7.5t71.5 27t77.5 17.5t98 -21q31 -12 44 -24.5t14 -26.5t-9 -32.5t-25 -45.5q-16 -27 -47 -65.5t-66.5 -87t-68.5 -103.5t-51.5 -111.5t-17.5 -111.5t36 -104q12 -18 28.5 -21.5t32 4.5t25.5 26.5t12 45.5 q4 84 28 149.5t58.5 125t77.5 117.5t88 130q23 37 34 76t8 73.5t-23.5 62.5t-61.5 40q-70 20 -129 35.5t-117.5 21.5t-119 3t-131.5 -17q-57 -12 -66.5 -42zM170 120q-12 -32 12 -59q16 -16 30.5 -32.5t31 -26.5t37.5 -10q20 0 49 14q35 18 57 49t10 68q-23 68 -66.5 73 t-105.5 -24q-43 -20 -55 -52z" />
<glyph unicode="@" horiz-adv-x="1382" d="M49 275.5q4 -111.5 29.5 -215t78 -183.5t131.5 -128t189 -50q78 -2 146.5 3t132 22.5t123 49t120.5 85.5q41 35 40 62.5t-40 10.5q-102 -39 -212.5 -72.5t-211 -39.5t-181.5 25.5t-126 123.5q-63 129 -81.5 270.5t-4 278.5t55.5 265t98 231q43 78 101.5 131t126 89 t139 54.5t143.5 26.5q125 14 212 -25t133 -106.5t53 -152.5t-23 -165q-29 -72 -52.5 -131t-54.5 -108t-72 -90t-104 -76q-43 -25 -63.5 -23t-27.5 16.5t-6 36t5 37.5q8 39 -1 54.5t-26.5 20.5t-40.5 5t-43 6q-29 8 -50 -8t-42.5 -40.5t-46.5 -51.5t-57 -35 q-121 -33 -127 18.5t127 202.5q33 37 60.5 70t55 53.5t56 23.5t61.5 -18q14 -10 8 -26.5t-9 -32.5t8.5 -29.5t60.5 -15.5q33 -2 51 23.5t23.5 61.5t-3 75t-28.5 67q-35 49 -88.5 47t-112.5 -32.5t-119.5 -79.5t-109.5 -94q-47 -43 -91.5 -87t-74 -92.5t-38.5 -101.5t13 -113 q16 -43 47 -65.5t68 -28.5t77 3t72 30q70 45 111 48t70.5 -12.5t58.5 -39t74 -33.5q66 -16 122 7.5t104 69.5t89 108t78 128q70 123 97.5 256.5t1 249t-114 198.5t-248.5 107q-195 29 -337.5 -19t-245.5 -149.5t-171 -242t-113 -295.5q-29 -102 -43 -217t-10 -226.5z" />
<glyph unicode="A" horiz-adv-x="1026" d="M66 -94q-7 -25 -7 -46q0 -24 9 -42q16 -34 46 -46q13 -5 29 -6q19 0 39 8q37 14 64 62q37 63 55 107.5t27.5 83.5t14.5 78.5t17 95.5q10 53 54 79q41 24 90 23h8h53h49h54h65q25 0 33 -33q10 -57 14 -101t6 -85t6.5 -83t14.5 -95q6 -37 35.5 -55.5t59.5 -17.5t49 25 q12 14 12 38q0 15 -5 34q-49 186 -70.5 348t-40 309.5t-43 286t-75.5 279.5q-16 41 -41.5 64.5t-54.5 27.5q-5 1 -10 1q-23 0 -47 -16q-28 -18 -48 -61q-47 -104 -70.5 -179t-45 -144.5t-47 -147t-74.5 -190.5q-20 -47 -39 -54.5t-51 -11.5q-23 -2 -43.5 -18t-31.5 -37.5 t-12 -45.5t13 -42q23 -29 41 -48.5t8 -49.5q-18 -53 -31.5 -83t-26 -56.5t-24.5 -60.5t-28 -95zM463 528q18 53 32.5 95.5t27 80t24.5 77.5t26 91q9 32 27 44q17 12 35 11h3q20 -1 35 -16.5t19 -42.5q6 -53 11.5 -98t9.5 -87t9 -85q11 -97 11 -99q0 -11 -8 -19 q-10 -10 -25 -9q-26 1 -53 1l-53 -1h-18q-44 0 -84 8q-16 5 -26 19q-6 9 -5 18q0 6 2 12z" />
<glyph unicode="B" horiz-adv-x="1126" d="M121 1002q2 -22 13 -44t30 -36q27 -23 48 -105t35.5 -196.5t21.5 -247.5q5 -103 5 -202v-56q0 -31 -12 -56.5t-41 -38.5q-41 -18 -42 -45.5t25 -52.5q24 -26 72 -42q31 -10 67 -10q18 0 38 3q119 18 237.5 72.5t213.5 126.5q94 74 152 152q56 76 56 137q0 71 -32 123 q-30 48 -76.5 85t-108 68t-127.5 63q-35 16 -32.5 27.5t24.5 34.5q53 49 89 83t54 77q12 27 20.5 56.5t6.5 57t-15.5 50t-43.5 36.5q-98 46 -181 66q-64 16 -125 16q-18 0 -35 -2q-77 -6 -151 -37.5t-155 -87.5q-18 -13 -26 -33q-6 -16 -5 -33v-9zM340 942q4 37 16.5 63.5 t53.5 30.5q72 6 123 10q15 1 31 2q40 0 91 -8q55 -8 64 -42q3 -9 3 -18q0 -24 -17 -46q-25 -35 -50.5 -58.5t-53.5 -44t-58.5 -39t-67.5 -38.5q-39 -24 -68 -24h-3q-30 1 -39 36q-13 51 -21 90q-6 27 -5 57q0 14 1 29zM400 293q1 47 4.5 96t5.5 111q2 46 30 62q22 13 55 12 q10 0 21 -1q53 -6 96 -14t81 -22.5t74 -36t77 -54.5q52 -43 52 -93v-5q-3 -53 -48 -98q-41 -41 -78 -70.5t-77 -52.5t-84 -42t-97 -40q-16 -6 -34 -12q-15 -5 -27 -5h-5q-14 1 -24 14t-12 44q-6 60 -8 110q-2 35 -3 70q1 14 1 27z" />
<glyph unicode="C" horiz-adv-x="1110" d="M91 500q-9 -54 -9 -106q0 -75 18 -143q30 -116 108.5 -201t199.5 -111q72 -16 137 -21.5t131 -5.5t136.5 3t152.5 7q20 0 42.5 22.5t27.5 48t-15 45.5q-19 19 -73 19h-11q-49 -2 -130 -9q-63 -5 -130 -5h-39q-88 2 -170 18.5t-133 61.5q-76 65 -102 149q-19 62 -19 128 q0 22 3 46q9 90 48 183.5t94 177.5q43 66 99.5 124t118.5 99q60 42 120 60q34 11 65 10q23 0 44 -6q14 -4 31.5 -10.5t32 -13.5t21.5 -18.5t5 -27.5q-6 -25 12.5 -44t44 -23.5t51 8t35.5 51.5q7 25 7 46q-1 61 -53 100q-70 52 -212 63q-13 1 -25 1q-78 0 -148 -32 q-81 -37 -154.5 -103.5t-139 -153.5t-123.5 -179q-78 -125 -99 -258z" />
<glyph unicode="D" horiz-adv-x="1150" d="M66 1132q-4 -17 -3 -35q1 -20 5 -43q8 -42 28 -83q27 -53 49.5 -99.5t39 -92.5t26.5 -95t12 -111q2 -92 8.5 -167.5t11.5 -147.5t8 -148q2 -45 2 -96q0 -34 -1 -71q0 -37 32 -63q34 -28 82 -40q33 -8 66 -8q16 0 33 2q51 6 86 35q102 84 202.5 173t178.5 212 q76 121 106 245q19 77 19 151q-1 44 -7 88q-18 116 -87.5 217.5t-194.5 179.5q-78 47 -146 79q-68 30 -140 44q-50 9 -103 10q-24 0 -48 -2q-79 -6 -177 -33q-37 -10 -58.5 -37.5t-29.5 -63.5zM323 1078q1 22 12 31t36 9q27 0 69 -8q135 -23 231.5 -81t178.5 -144 q45 -47 66 -111q20 -64 21 -126v-8q-1 -58 -13 -110q-14 -56 -33 -92q-43 -68 -81 -125t-79 -107t-88 -94t-108 -87q-20 -13 -46 -15q-4 0 -8 -1q-21 -1 -41 7q-24 8 -40.5 25.5t-16.5 40.5q0 137 -3 250.5t-10.5 221.5t-18.5 220.5t-25 249.5q-3 26 -3 45v9z" />
<glyph unicode="E" horiz-adv-x="1118" d="M83 1086q3 -24 24.5 -48t74.5 -43q12 -4 24.5 -9t12.5 -19q0 -29 1 -53.5t-1 -53.5q-2 -18 -7 -34.5t-22 -22.5q-35 -12 -63.5 -39t-37.5 -54.5t10.5 -53t82.5 -38.5q23 -4 29 -25.5t8 -43.5q5 -69 5 -131v-20q-1 -72 -6 -144t-11 -147.5t-8 -163.5q-1 -41 31 -59 q29 -16 60 -15h7q98 6 185 17.5t175 31t178.5 46t194.5 61.5q16 6 24 20q6 11 5 22v7q-2 14 -13.5 24.5t-31.5 7.5l-149.5 -23t-142.5 -19q-70 -7 -144 -8h-22q-64 0 -136 5q-35 4 -55.5 28t-22.5 58q-4 75 -5 133v28q0 43 2 82q3 52 8 105.5t11 114.5q2 18 16.5 31.5 t33.5 13.5h112q55 0 110.5 -2t114 -6t125.5 -12q14 -1 27 -1q22 0 40 4q28 7 38 21.5t2 32t-41 33.5q-70 33 -130.5 49.5t-121.5 24.5t-126.5 10t-141.5 6q-27 2 -43.5 11.5t-14.5 45.5q1 35 1 65v29q-1 40 -1 83q0 31 22.5 32.5t43.5 8.5q60 16 112 21q44 4 86 4h17 q51 -1 105 -4q33 -2 69 -2q24 0 49 1q33 0 52.5 22.5t21.5 48t-15.5 48t-54.5 24.5q-66 2 -120 5.5t-105 3.5t-105.5 -2.5t-119.5 -6.5q-9 -1 -18 -1q-34 0 -59 12q-32 16 -67 39q-22 13 -40 13q-7 0 -13 -2q-22 -7 -40.5 -26.5t-33 -47.5t-29.5 -52q-14 -26 -25 -52 q-9 -21 -9 -40q0 -5 1 -10z" />
<glyph unicode="F" horiz-adv-x="952" d="M78 594q0 -25 13 -39t30.5 -28.5t32 -29t14.5 -38.5q4 -102 14.5 -194.5t26.5 -211.5q7 -39 33 -57q25 -17 51 -18h4q29 2 48.5 23.5t10.5 59.5q-14 61 -27.5 111.5t-23.5 100t-15 100.5q-4 36 -4 79q0 17 1 35q2 39 17 56.5t56 13.5q49 -3 95 -3q69 0 129 7 q100 12 194 41q33 8 43 25.5t7 34t-15 28.5t-27 15q-68 6 -122 7q-27 0 -53.5 0.5t-53.5 -0.5q-53 -1 -108 -1q-53 0 -121 6q-31 4 -50.5 11t-15.5 50q4 55 20.5 92t20.5 93q4 35 27.5 44t58.5 13q66 8 118 18.5t103.5 21.5t103.5 21.5t117 16.5q20 2 42 8t35.5 19.5 t15.5 32.5q0 3 1 6q0 18 -12 44q-19 36 -35 48q-15 11 -30 11h-2q-16 -1 -33.5 -10.5t-38.5 -15.5q-68 -18 -136 -33q-68 -16 -134 -24q-53 -6 -106 -6h-26q-66 2 -134 18q-14 3 -26 3q-38 0 -68 -32q-38 -43 -46 -135q0 -10 7.5 -16t16.5 -12.5t17 -12.5t8 -16 q-2 -39 -6 -71t-7 -62.5t-6 -63.5q-2 -20 -2 -42q0 -15 1 -31q0 -18 -8 -30.5t-17.5 -25t-16.5 -25t-7 -30.5z" />
<glyph unicode="G" horiz-adv-x="1245" d="M61 356q6 -86 59.5 -159.5t134.5 -129t182.5 -87t205.5 -33.5h17q74 0 136 15q70 18 130.5 53.5t114 87.5t106.5 122q45 59 48 132v8q0 67 -48 106q-47 37 -93 53.5t-94 22.5q-37 5 -76 5q-13 0 -26 -1q-53 -2 -113 -2q-53 0 -73.5 -23.5t-16.5 -50t30 -47.5 q22 -19 53 -19q6 0 12 1q43 4 78 6q22 1 45 1h23q34 -1 68.5 -6t75.5 -18q50 -14 50 -44q0 -4 -1 -7q-6 -35 -42.5 -75t-92 -76.5t-98.5 -55.5q-70 -31 -136.5 -49t-131.5 -18q-63 0 -125 21.5t-119 70.5q-68 57 -102 128q-36 72 -36 153q0 76 30 155q32 82 100 162 q57 68 111.5 120t115 92t128 71.5t149.5 60.5q25 10 55.5 6t30.5 -31q0 -33 24.5 -37t49 11.5t38.5 44.5q5 11 5 24q0 19 -11 39q-16 31 -49 50.5t-75 24.5q-18 2 -36 2q-25 0 -51 -4q-45 -7 -88 -28q-141 -70 -267 -169t-218 -211.5t-144 -233.5q-44 -105 -44 -203 q0 -16 1 -31z" />
<glyph unicode="H" horiz-adv-x="1019" d="M68 1151q27 -160 42 -291t26 -257t22.5 -258t31.5 -292q2 -18 22.5 -30.5t44.5 -16.5t44.5 2t20.5 25q1 16 1 31q-1 68 -15 134q-18 81 -27 171q-4 23 11 40t38 21q72 12 167 29.5t189 48.5q25 8 40 -19.5t13 -54.5q-1 -24 -1 -47q0 -46 3 -88q4 -63 11.5 -125.5 t16.5 -129.5t15 -146q2 -16 26 -24q19 -7 40 -7h10q26 2 48 13q20 10 20 30l-16 200q-4 90 -3 177q0 88 -4 179t-18 202q-10 78 -18.5 141t-14.5 123q-6 58 -8 122q-1 32 -1 67.5t1 74.5q0 37 -25.5 55.5t-56.5 18.5t-57.5 -18.5t-28.5 -55.5q-1 -25 -1 -48q0 -46 5 -85 q8 -59 18 -117q11 -56 18 -116q5 -46 5 -102v-32q-2 -35 -22.5 -40t-51.5 -9q-49 -6 -88 -13t-78 -12.5t-77.5 -9.5t-88.5 -6q-23 -2 -39 14.5t-14 38.5q4 57 4 107v32q-2 64 -8 124.5t-16.5 123t-24.5 138.5q-6 29 -31.5 39t-54.5 5q-29 -6 -51 -26q-16 -15 -16 -36 q0 -7 2 -15z" />
<glyph unicode="I" horiz-adv-x="466" d="M133 57q0 -31 36 -43q25 -8 55 -8q12 0 25 1q44 5 81 26.5t41 56.5v6q1 14 -7 24q-10 12 -22 25t-22.5 27t-10.5 37q0 133 4 283q3 151 7 286q2 68 2 127t-2 111q-4 102 -19 139q-11 29 -35 33q-7 1 -15 1q-15 0 -31 -6q-22 -9 -39 -27.5t-15 -33.5q12 -136 12 -258v-34 q-2 -136 -11 -264t-20.5 -252t-13.5 -257z" />
<glyph unicode="J" horiz-adv-x="692" d="M-61 -98q0 -41 17 -73t46 -51.5t64 -27.5q24 -5 48 -5q13 0 25 1q70 8 132.5 43t113.5 88t88 124t55 151q23 104 30 214q6 95 6 197v29q-1 117 -7 244t-8 266q0 45 -36 76.5t-76 39.5q-10 1 -20 1q-27 0 -49 -15q-20 -16 -20 -50q0 -14 4 -32q20 -98 45 -227t36 -273 q5 -68 5 -138q0 -76 -6 -152q-12 -148 -67 -283q-31 -78 -89.5 -123t-144.5 -45q-23 0 -32 5t-10 14.5t5 21.5t12 29q4 13 4 27q0 18 -7 38q-13 37 -50 66q-18 14 -37.5 0t-37 -44t-28.5 -68t-11 -68z" />
<glyph unicode="K" horiz-adv-x="1089" d="M84 1102q33 -170 57.5 -312.5t31.5 -278.5q2 -43 2 -87q0 -94 -10 -190q-15 -142 -61 -308q-10 -33 4 -52q12 -18 34 -24q8 -2 17 -3q15 1 31 7q26 10 41 35q20 33 30.5 65t16 63.5t8.5 65.5t11 73q6 33 32.5 33.5t53.5 -9.5q92 -37 171 -60.5t152.5 -47t148.5 -55 t159 -87.5q27 -16 45 -8q17 8 27 28q6 14 7 31q1 8 -1 17q-4 27 -25 47q-70 72 -142.5 108.5t-148.5 63.5t-154.5 56.5t-160.5 86.5q-31 23 -27 33t27 33q70 72 142.5 126t142 103.5t129 100.5t102.5 116q18 27 10 52.5t-26.5 42t-43 21.5t-38.5 -9q-76 -66 -132.5 -126 t-111.5 -114.5t-117.5 -104.5t-150.5 -97q-41 -23 -52.5 -10.5t-13.5 42.5q-4 82 -13 148.5t-18 130.5q-8 64 -14 130q-4 50 -4 108v40v6q0 44 -28 62q-22 14 -47 13q-8 0 -16 -1q-33 -6 -59 -34q-19 -21 -20 -50q0 -10 2 -20z" />
<glyph unicode="L" horiz-adv-x="870" d="M61 1087q10 -39 24.5 -74.5t28 -74.5t22.5 -80t11 -90q4 -119 10.5 -216t13.5 -186.5t16.5 -178.5t21.5 -189q2 -18 4 -34.5t9 -27.5q6 -12 24 -16q9 -2 21.5 -2t27.5 2q37 6 66.5 15.5t56 21.5t54.5 24.5t65 24.5q39 12 73.5 17.5t68.5 8.5t68.5 9t75.5 22q19 6 23 29 q2 8 1 17q0 15 -5 31q-8 24 -26.5 44.5t-49.5 26.5t-58 6q-22 0 -44 -4q-46 -8 -89 -23.5t-88 -31t-102 -21.5q-23 -2 -36 1t-19 11.5t-9.5 18.5t-5.5 22q-27 145 -28 297t-3.5 286t-22 239.5t-85.5 161.5q-25 20 -45 20h-7q-22 -4 -38 -20q-16 -18 -24 -42q-4 -14 -4 -26 q0 -10 3 -19z" />
<glyph unicode="M" horiz-adv-x="1204" d="M78 995q29 -133 40 -245q11 -110 14 -218q2 -64 2 -131q0 -43 -1 -89q-2 -112 -2 -251q0 -37 17.5 -48t40 -6t44 22.5t29.5 40.5q12 31 13 78v32q0 34 -1 72q-2 58 -5 120q-1 27 -1 53q0 36 2 71q4 51 15 51q12 0 34 -23q35 -39 56.5 -70.5t54.5 -72.5q27 -33 51.5 -44 t48 -7t45 19.5t43.5 35.5q33 31 55.5 59.5t41 58t35 62.5t36.5 74q16 31 27.5 37t20 -3t13.5 -26.5t9 -32.5q25 -90 41 -176t32.5 -163.5t40 -145.5t62.5 -117q36 -45 62 -47h4q24 -1 40 17q18 20 22 51q2 14 2 25q0 14 -3 24q-41 115 -66.5 212t-48 192.5t-47 194.5 t-63.5 216q-10 27 -27.5 42t-38 19.5t-40 -4t-33.5 -28.5q-35 -49 -56.5 -92t-40 -85t-38 -86.5t-50.5 -93.5q-27 -41 -53 -41h-5q-28 4 -56 33q-53 55 -94.5 107.5t-75 107.5t-63.5 116.5t-62 135.5q-10 25 -34 33q-15 5 -29 5q-8 0 -16 -2q-22 -4 -36 -22q-10 -12 -10 -31 q0 -7 2 -16z" />
<glyph unicode="N" horiz-adv-x="1077" d="M72 1002q-3 -10 -2 -19q0 -20 16 -29q20 -10 34.5 -58t24 -119.5t13.5 -161t5 -179.5v-45q0 -67 -2 -130q-3 -85 -9 -150q-2 -18 23.5 -30.5t56 -15t55 11t24.5 46.5q-2 61 -4 112.5t-5 100.5t-5 100t-2 113q0 37 24.5 44t49.5 -20q57 -61 101 -112t85 -101.5t84 -101.5 t102 -111q25 -25 37.5 -55.5t19.5 -64t11 -72.5t10 -78q2 -16 23.5 -26.5t47.5 -12.5h9q21 0 41 6q25 8 35 29q8 15 8 33q0 5 -1 10q-3 23 -12 47.5t-20.5 51t-15.5 55.5q-16 129 -16 269v31q2 158 2 298q0 139 -14.5 243.5t-65.5 141.5q-37 27 -67 27.5t-47 -13.5 t-23.5 -37.5t2.5 -46.5q31 -80 44 -149.5t17 -137.5q3 -46 3 -93q0 -24 -1 -48q-2 -72 -2 -158q0 -51 -21.5 -45t-44.5 45q-37 63 -104.5 151.5t-140 182.5t-140 187.5t-106.5 166.5q-13 26 -33 26q-7 0 -15 -3q-30 -12 -54.5 -42t-34.5 -64z" />
<glyph unicode="O" horiz-adv-x="1214" d="M70 404q16 -91 74.5 -175t160 -145t244.5 -72q19 -1 38 -1q83 -1 159 21q94 26 169.5 81t129.5 135t81 178q16 59 16 120q0 44 -8 88q-20 106 -80 190q-59 84 -156 132q-71 35 -160 35q-32 0 -66 -4q-211 -29 -365.5 -136.5t-224.5 -285.5q-18 -45 -18 -98q0 -30 6 -63z M209 442q8 86 45 162t96.5 130t137.5 84q68 26 143 26h20q37 -2 59.5 -8.5t37 -22.5t23.5 -44t20 -73q4 -16 16 -17t28.5 5t36 12t37.5 4q47 -8 71 -32q24 -26 31 -58q5 -23 5 -48q0 -11 -1 -23q-3 -39 -7 -76q-10 -74 -44 -135.5t-88 -105.5q-52 -44 -120 -66 q-53 -18 -111 -18q-15 0 -31 1q-72 6 -146.5 26.5t-135 57.5t-94.5 91q-29 46 -29 107q-1 10 0 21z" />
<glyph unicode="P" horiz-adv-x="864" d="M115 1100q0 -166 4 -300t11 -263t18.5 -263.5t27.5 -300.5q2 -16 19 -16q18 0 40.5 12.5t45 36t34.5 57.5q20 57 21 107q0 51 -8.5 100t-18.5 101.5t-10 113.5q0 29 19.5 30t37.5 -1q15 -1 29 -1q94 0 178 45q96 52 170 153q47 66 59 140q2 15 2 30q0 59 -36 116 q-76 123 -182.5 191.5t-223.5 83.5q-13 2 -25 2l-61 -10q-43 -14 -76.5 -40t-54 -58.5t-20.5 -65.5zM242 1010q2 20 13 38.5t29 31.5q16 12 38 16q11 2 21.5 2t21.5 -2q66 -16 127 -50t118 -94q34 -35 44 -85q3 -12 2 -24q0 -36 -25 -67q-41 -53 -85 -85t-116 -38 q-8 -1 -15 -1q-42 0 -74 20q-38 22 -62 63q-10 16 -4 26.5t17 23t23.5 28.5t12.5 45q0 31 -14.5 47.5t-31 29.5t-29.5 29q-11 13 -11 38v8z" />
<glyph unicode="Q" horiz-adv-x="1523" d="M82 520q20 -131 79.5 -232.5t148.5 -173t204 -114.5t244 -57q19 -2 38 -2q35 0 68 7q51 11 97.5 32.5t86 47t70.5 50.5q20 16 40 16t42 -16q35 -23 70 -58.5t57 -68.5q10 -14 23 -23q8 -6 16 -6q7 0 14 4q35 16 51.5 39.5t34.5 54.5q5 9 5 17q0 10 -9 20q-43 43 -81 75 t-70 73q-23 29 -18 58.5t18 64.5q14 41 34.5 92t34 109.5t13.5 123.5q0 68 -25 142q-12 37 -34.5 71.5t-52.5 58t-63 31.5q-13 4 -25 4q-22 0 -46 -10q-33 -14 -61 -14q-25 0 -46 11q-43 24 -77 102q-12 25 -35 48t-52.5 40.5t-65.5 24.5q-19 4 -39 4q-17 0 -34 -3 q-72 -12 -151.5 -38.5t-157.5 -68.5t-146.5 -97.5t-117.5 -123t-72 -147.5q-15 -50 -15 -103q0 -32 5 -65zM225 549v18q0 84 33 155q37 79 103.5 136t153.5 93t181 48q31 4 57 4q72 0 104 -29q44 -38 44 -110q0 -53 27 -72t62 -19h4q38 1 78 17.5t67 36.5q12 10 28.5 9.5 t31.5 -10t26.5 -25t15.5 -31.5q13 -83 13 -162q0 -30 -2 -60q-7 -108 -72 -196q-16 -23 -45 -4t-58.5 46.5t-62.5 56t-70 59.5t-80 55q-16 10 -35.5 -1t-33 -30.5t-17.5 -43t8 -39.5q61 -82 127 -134.5t111 -99.5q12 -14 11 -33.5t-15 -36.5q-45 -47 -108.5 -64t-141.5 -17 q-84 0 -177 35.5t-173 101t-134.5 153.5t-60.5 193z" />
<glyph unicode="R" horiz-adv-x="1148" d="M123 948q2 -24 9 -51t15 -53q8 -29 17.5 -85.5t17.5 -126t13.5 -146t7.5 -144.5q1 -23 1 -44q0 -42 -3 -76q-4 -52 -13 -75q-16 -39 -23 -75q-3 -15 -3 -30q0 -23 6 -50q6 -23 29.5 -42.5t50 -25.5t50.5 5.5t30 50.5q6 45 8 85.5t2 81.5q0 43 -1 90.5t-1 106.5 q0 23 27.5 24t46.5 -12q72 -51 137 -104t133 -109.5t139.5 -117t155.5 -123.5q10 -8 23 -8q10 0 22 5q27 11 47 34.5t28 49.5q2 8 2 15q0 16 -12 27q-84 68 -143 115.5t-111.5 90.5t-106.5 87t-126 104q-23 18 -27 31.5t2.5 23.5t18.5 18.5t22 16.5q37 27 82 51.5t92.5 55 t91.5 71.5t74 96q14 27 25.5 59t12.5 62.5t-9 58t-37 46.5q-39 29 -85 57.5t-100 51t-113.5 36.5t-127.5 14q-63 0 -113.5 -5t-93.5 -20.5t-80.5 -41t-76.5 -64.5q-20 -20 -28 -44q-6 -19 -5 -37v-11zM319 927q0 39 30 61q32 24 73 24q47 0 99 -3t102.5 -11.5t95.5 -24 t80 -35.5q41 -27 44 -78v-7q0 -46 -36 -79q-51 -45 -98 -74.5t-98.5 -49t-109 -32t-128.5 -24.5h-4q-11 0 -19 10q-8 12 -10 27q-6 91 -12 155q-9 98 -9 141z" />
<glyph unicode="S" horiz-adv-x="1124" d="M16 760q-2 -10 -2 -20q0 -29 18 -63q24 -46 95 -97q41 -29 102.5 -50.5t133 -40t147.5 -37t145.5 -42t128 -56t93.5 -78.5q14 -18 18 -44.5t-2 -51t-24.5 -43t-49.5 -20.5q-39 -4 -75 -4q-31 0 -58 3q-59 7 -115.5 24.5t-113 44t-121.5 59.5q-27 12 -55.5 13t-45 -10 t-12.5 -30.5t47 -46.5q78 -49 160 -93t161 -72t153 -34q14 -1 28 -1q58 0 109 20q49 18 91 52t62 79q15 34 14 73q0 14 -2 28q-6 56 -51 116q-41 55 -106.5 98t-142 77t-157.5 60.5t-150.5 47t-122 39t-70.5 34.5q-47 41 -47 60q0 20 63 47q53 23 99.5 40t90.5 32.5t89 28.5 t98 30q35 10 72 13q28 2 54 2h17q34 -1 61 -5t42 -10q30 -12 50 -12q9 0 17 3q22 9 29.5 31.5t4.5 51t-11 49.5q-15 39 -65 51q-30 7 -68 7q-26 0 -54 -3q-72 -8 -158.5 -33.5t-175.5 -58.5t-174 -71t-153 -73q-39 -18 -71 -47.5t-40 -66.5z" />
<glyph unicode="T" horiz-adv-x="1275" d="M-74 899q0 -33 27 -69.5t72 -62.5q30 -17 59 -17q15 0 29 4q51 14 97 27.5t91 24.5t93 20.5t104 17.5q5 1 10 1q34 -1 58 -25q28 -28 30 -66q2 -76 6 -141.5t10 -130t14.5 -131t18.5 -142.5q8 -66 24.5 -112t61.5 -93q27 -29 51 -30h3q21 0 39 12q20 12 33 34.5t22 45.5 q10 29 1.5 42t-22.5 19t-29.5 13t-19.5 24q-20 88 -32.5 170t-20.5 159.5t-14.5 154.5t-14.5 155q-4 33 16.5 56.5t53.5 29.5q68 12 130 20.5t123.5 18.5t125 26t133.5 45q17 7 17 26v6q-3 24 -18.5 46.5t-37.5 37.5q-15 10 -29 10q-7 0 -14 -3q-68 -25 -137.5 -41 t-142.5 -28.5t-151.5 -22.5t-166.5 -22q-96 -14 -178 -24.5t-159 -19t-155 -14.5t-164 -12q-47 -4 -47 -39z" />
<glyph unicode="U" horiz-adv-x="1005" d="M92 702q-1 -23 -1 -48q0 -50 3 -109q4 -86 27.5 -166t60.5 -148.5t83 -122t95 -83.5q51 -33 93.5 -54.5t76.5 -24.5h10q28 0 52 13q29 16 55 57q82 125 148.5 269.5t105.5 282.5t47 254q1 20 1 38q0 91 -31 152q-8 18 -33 28.5t-49 10.5q-23 0 -39.5 -15.5t-10.5 -48.5 q18 -89 24 -163q2 -33 2 -65q0 -41 -4 -81q-7 -72 -29.5 -144.5t-61.5 -152.5q-20 -45 -42 -90t-44.5 -84t-50 -65.5t-60.5 -35.5q-5 -1 -10 -1q-24 0 -52 23q-34 28 -70 74t-68.5 103t-53.5 113q-29 70 -34 152q-2 33 -2 65q0 48 4 93q8 75 22 130t27 72q26 33 26 67 q1 12 -3 25q-12 47 -40 100q-10 18 -34 32q-24 16 -48 20q-7 1 -14 1q-16 1 -30 -7q-20 -10 -21 -42q-4 -86 -10.5 -153.5t-10.5 -134t-6 -136.5z" />
<glyph unicode="V" horiz-adv-x="915" d="M-68 1078q-4 -11 -5 -22q0 -14 7 -28q76 -147 124 -279.5t99.5 -254t121 -238.5t188.5 -236q18 -18 35.5 -32.5t37.5 -17.5q4 -1 8 -1q16 -1 32 9q20 12 43 47q59 88 85.5 177t41 178t28 176t45.5 169q10 27 33 41t44.5 27.5t37.5 29.5t16 45q0 25 -40 44.5t-88 25.5 q-18 2 -35 2q-28 0 -53 -6q-40 -10 -42 -45q-4 -100 -13 -185.5t-24.5 -164t-40 -157.5t-61.5 -165q-4 -10 -17.5 -16t-23.5 4q-61 63 -96 109t-58.5 88t-44 87.5t-51.5 104.5q-37 72 -54 141.5t-33.5 135t-41 126t-76.5 113.5q-22 24 -48 24h-2q-27 -1 -48 -15.5t-31 -40.5 z" />
<glyph unicode="W" horiz-adv-x="1300" d="M-10 848q37 -115 62.5 -212t57 -186.5t77.5 -175.5t126 -176q43 -49 73 -51h3q29 0 68 31q53 41 81.5 84t45.5 108q8 33 19 43.5t22.5 5t21.5 -18.5t19 -26q27 -43 54.5 -73.5t55 -59t55 -58.5t56.5 -71q46 -64 95 -64t101 64q55 70 81 166t34 200q6 83 6 164v42 q-2 102 -2 184q0 84 10 139.5t43 63.5q17 5 25 21q5 12 6 25q0 5 -1 11q-3 20 -15.5 41t-30.5 33q-37 25 -71 36q-25 8 -47 8q-8 0 -14 -1q-26 -4 -40 -22.5t-12 -49.5q6 -125 15 -229.5t11 -202.5v-33q0 -82 -8 -168q-10 -102 -43 -223q-16 -59 -36.5 -64.5t-49.5 23.5 q-47 47 -78.5 90t-61.5 85t-64.5 85t-90.5 92q-46 40 -81 40h-5q-37 -3 -49 -39.5t-16 -67.5t-7.5 -59.5t-10.5 -59.5t-23 -63q-23 -43 -53 -43h-6q-34 4 -56 51q-66 127 -94.5 227t-43 175t-22.5 127t-28 85q-20 31 -54 42t-63 5t-45 -30q-9 -13 -9 -32q0 -17 7 -38z" />
<glyph unicode="X" horiz-adv-x="1054" d="M-40 1086v-7q0 -27 22 -55q55 -68 101 -117t92 -95t97.5 -99.5t118.5 -130.5q25 -29 33 -49.5t6 -37t-12 -31.5t-23 -34q-57 -76 -127.5 -188.5t-167.5 -278.5q-12 -23 -5 -40t23 -27q13 -8 26 -7h6q18 2 28 21q37 70 75 122t79 100t85 97.5t93 110.5q16 18 38.5 17 t39.5 -17q29 -31 76 -78t102 -89q56 -43 114 -69q40 -18 76 -18q17 0 33 4q25 6 34 32q7 21 7 43v10q-2 28 -14 47.5t-31 10.5q-11 -5 -24 -5q-19 0 -41 12q-36 18 -75.5 53t-80.5 78t-78 84q-36 38 -36 70q0 31 40 77q25 27 45.5 48.5t39 42t37.5 43t42 50.5q20 27 46 32 t48 5q23 0 40.5 4t21.5 29q4 27 -8.5 45.5t-34 31.5t-48 21.5t-53.5 12.5q-6 1 -11 1q-27 0 -55 -24q-34 -29 -69 -74t-72.5 -98t-78.5 -96q-20 -23 -30.5 -20t-39.5 32q-66 66 -110 130.5t-87 125t-94 115.5t-131 100q-18 9 -37 9q-9 0 -19 -2q-30 -7 -49.5 -28.5 t-22.5 -51.5z" />
<glyph unicode="Y" horiz-adv-x="972" d="M-37 1052q-3 -10 -3 -20q0 -23 17 -49q45 -70 109 -139.5t137.5 -133t157.5 -117.5t174 -93q23 -10 18.5 -35t-10.5 -47q-16 -57 -39.5 -123t-45 -139.5t-37 -154.5t-17.5 -169q0 -31 12.5 -43t28.5 -14h6q13 0 25 7q14 9 18 21q31 100 59.5 195.5t51 172.5t42 130 t31.5 68q31 33 40.5 57.5t11.5 48t4 51t18 64.5q18 47 36.5 93t42 98.5t56.5 111.5t82 135q16 23 16 43q0 11 -5 21q-15 28 -44 42q-24 11 -51 11h-8q-31 -2 -39 -23q-20 -49 -42.5 -97t-46.5 -102.5t-45.5 -116t-41.5 -134.5q-6 -25 -35 -36t-51 3q-86 51 -152.5 106.5 t-123 115t-108.5 121.5t-108 128q-16 20 -47.5 16t-57.5 -23.5t-36 -50.5z" />
<glyph unicode="Z" horiz-adv-x="1185" d="M47 142q-1 -7 -1 -13q0 -29 16 -53q18 -28 50.5 -44t65.5 -16q72 2 165 3t192.5 2.5t197.5 4.5t181 10t145.5 19.5t89.5 30.5q33 24 39 54q2 10 2 20q0 18 -8 32q-12 22 -36 33t-50 -4q-35 -16 -113 -26.5t-178 -14.5t-211 -4q-109 0 -203 4q-45 2 -63.5 14.5t-19.5 31 t9.5 39t24.5 38.5q61 82 122.5 149.5t120 130t111 126t97.5 135.5q25 38 26 74q0 4 1 9q0 30 -10 55q-11 28 -32.5 49.5t-46 33.5t-95.5 18.5t-160 7.5h-40q-70 -1 -142 -3q-93 -4 -165 -7q-53 -5 -69 -35q-11 -21 -12 -43q0 -11 3 -23q8 -36 37 -62q24 -22 53 -22q7 0 13 1 q111 16 213 16h221q54 1 64 -25q3 -6 2 -14q0 -23 -25 -55q-72 -94 -134.5 -165.5t-126 -138t-130 -135.5t-146.5 -155q-41 -45 -45 -83z" />
<glyph unicode="[" horiz-adv-x="700" d="M51 1260q0 -14 15 -52q55 -139 79.5 -298.5t24.5 -336.5q0 -174 -19.5 -363.5t-52.5 -389.5q-4 -29 5.5 -50.5t28 -35t41 -16.5t44.5 3q78 25 179 26t218 11q27 2 36 20.5t7 39t-14 37t-29 14.5q-66 -6 -151.5 0t-183.5 -4q-33 -4 -43.5 6t-6.5 43q18 125 29.5 270.5 t11.5 298.5q0 154 -13 309.5t-44 301.5q-4 14 1 28.5t14.5 24.5t21.5 15t24 1q41 -14 76 -24.5t69 -16.5t70.5 -7t79.5 3q27 2 37 18.5t10 34.5t-9 32t-21 9q-37 -10 -93.5 1.5t-122 26.5t-135 27.5t-133.5 6.5q-10 0 -23 3t-20.5 0t-7.5 -17z" />
<glyph unicode="\" horiz-adv-x="911" d="M29 1122q39 -98 103.5 -222t141 -254t159.5 -257t157 -230.5t132 -174t87 -88.5q25 -16 38 -14.5t17 12t2 25t-8 20.5q-84 117 -176 272.5t-179 326.5t-165 344t-131 320q-10 27 -45 33t-70 -4t-57.5 -38t-5.5 -71z" />
<glyph unicode="]" horiz-adv-x="655" d="M10 1203.5q2 -21.5 11.5 -40t25.5 -20.5q111 -10 213 -4t189 -4q23 -4 34 -16.5t2 -49.5q-29 -147 -45 -286.5t-22 -276.5t-3 -275.5t13 -283.5q2 -29 -11.5 -47.5t-66.5 -18.5q-31 0 -60.5 5t-60 10.5t-63.5 5.5t-70 -8q-16 -4 -16 -35t12 -63t31.5 -53.5t42.5 -8.5 q25 14 58.5 21t71.5 13.5t80 14.5t85 20q47 14 70.5 42t19.5 69q-41 348 -18.5 659t88.5 598q4 18 -3.5 37t-21.5 33t-32.5 21.5t-37.5 3.5q-39 -10 -95 -17.5t-121.5 -10.5t-135.5 0t-135 15q-16 2 -23.5 -13t-5.5 -36.5z" />
<glyph unicode="^" horiz-adv-x="729" d="M7 760q3 -21 18.5 -36t38 -19.5t40.5 12.5q41 37 68 73.5t50.5 74.5t46 78t53.5 85q29 41 56.5 43t41.5 -22q18 -35 37.5 -74t42 -81t51.5 -84t65 -81q18 -20 39 -17t33 19.5t14 41.5t-16 50q-35 49 -69.5 104.5t-71.5 109t-75 101.5t-75 87q-39 39 -72.5 25.5 t-41.5 -46.5q-12 -45 -38 -101t-61 -112.5t-74.5 -108t-80.5 -83.5q-23 -18 -20 -39z" />
<glyph unicode="_" horiz-adv-x="1603" d="M39 -68q0 -25 17.5 -43t58.5 -16q150 8 335 12t376.5 6.5t374.5 3.5t331 3q18 0 26.5 13t8.5 30q0 16 -8.5 29.5t-22.5 13.5q-72 -2 -179.5 -3t-234.5 0t-267 3t-277.5 4t-265.5 4t-230 4q-18 0 -30.5 -20.5t-12.5 -43.5z" />
<glyph unicode="`" horiz-adv-x="581" d="M8 1196q0 -20 12 -29q74 -55 132.5 -102t108.5 -94t96 -98.5t94 -116.5q14 -18 39.5 -9t45 32.5t24 55t-22.5 56.5q-117 106 -223.5 192t-231.5 170q-23 14 -39 6t-25.5 -25t-9.5 -38z" />
<glyph unicode="a" horiz-adv-x="1218" d="M68 276q-1 -13 -1 -27q1 -33 9 -64q12 -44 42 -81q30 -38 74 -56q37 -15 80 -16q10 0 20 1q56 4 124 43q59 33 106 66.5t88 70.5t81 77t85 89q12 12 28.5 21.5t34 8.5t32 -16.5t24.5 -50.5q14 -59 30.5 -109.5t40 -94.5t55.5 -85t79 -80q12 -11 26 -11q4 0 8 1 q18 4 35 19.5t30 37.5t19 44q3 12 3 23q-1 9 -3 17q-4 18 -20 21q-49 14 -75.5 50t-40 85t-17.5 106.5t-7 115t-9.5 108.5t-22.5 88q-8 18 -25.5 34.5t-37 24.5t-39 6t-33.5 -20q-30 -41 -52 -41q-3 0 -7 1q-24 7 -56 36q-39 34 -85 34q-9 1 -19 -1q-58 -8 -117 -37 q-61 -29 -122.5 -61.5t-120 -73.5t-112 -94.5t-100.5 -123.5q-27 -39 -32 -86zM234 266q2 20 14 35q39 45 73.5 80t72.5 64.5t81 55t96 54.5q18 9 32 9q15 0 27 -12q20 -24 26 -62q3 -17 3 -34q1 -20 -3 -40q-6 -37 -19 -41q-53 -16 -96 -48t-81 -63t-72 -54.5t-71 -23.5 q-31 0 -50 12t-27 30q-7 14 -7 29q0 4 1 9z" />
<glyph unicode="b" horiz-adv-x="1062" d="M-47 1030q-1 -6 -1 -13q0 -31 25 -54q37 -35 60.5 -66t41 -62.5t30 -68.5t24.5 -82q18 -72 28.5 -123t13.5 -97q2 -28 2 -56q0 -19 -1 -37q-2 -47 -6 -109q-4 -41 13.5 -60.5t42 -22.5t52 8.5t48.5 29.5q29 27 45 51.5t25.5 49t16.5 51t19 57.5q12 33 37 59.5t57.5 43 t70.5 20.5q13 1 25 1q26 0 52 -5q68 -16 102 -43q34 -28 46 -60q7 -20 7 -40q-1 -14 -3 -29q-8 -37 -21 -74q-20 -51 -51 -85t-69 -58.5t-83 -44t-96 -41.5q-37 -16 -48.5 -2t-16.5 36.5t-14 44t-40 19.5q-29 -2 -46 -18.5t-26.5 -42t-14.5 -56.5t-11 -59q-3 -14 -3 -25 q0 -23 13 -37q20 -20 53 -25q16 -2 34 -2.5t37 2.5q38 5 66 17q80 33 155 65.5t136.5 74.5t107.5 100.5t73 144.5q15 52 14 99q0 16 -1 32q-7 62 -38 114t-82 92t-115 69q-64 27 -124 27q-30 0 -59 -6q-87 -20 -165 -91q-27 -23 -43 -26t-25.5 5.5t-14.5 24t-7 29.5 q-14 68 -38.5 133t-54.5 124.5t-61.5 110t-58.5 86.5q-10 15 -27 15q-9 -1 -21 -5q-32 -12 -56.5 -41.5t-30.5 -68.5z" />
<glyph unicode="c" horiz-adv-x="1054" d="M90 375v-20q0 -71 24 -129q28 -66 84 -115.5t132 -84t166 -57.5q44 -12 86 -12q9 0 18 1q51 3 98 15.5t90 28.5t80 33q33 14 45.5 32.5t8.5 34t-22.5 24.5t-43.5 7q-47 -6 -80 -18.5t-65.5 -21.5t-72.5 -12q-7 -1 -15 -1q-36 0 -86 12q-55 12 -112.5 40t-103 63.5 t-71.5 76.5q-19 31 -18 62q0 10 1 20q12 57 41 95t69 67t90 50.5t103.5 46t119.5 45.5q68 20 126 30q39 7 71 7q16 0 30 -2q43 -5 51 -31.5t25.5 -41t36 -15.5t36 11t25.5 41q7 29 7 53q0 16 -3 30q-8 34 -29.5 53.5t-52.5 25.5q-19 4 -37 4q-12 0 -24 -2 q-90 -12 -143.5 -19t-93.5 -15.5t-77 -19.5t-94 -32q-72 -27 -144.5 -56.5t-132 -70.5t-99.5 -97t-44 -136z" />
<glyph unicode="d" horiz-adv-x="1259" d="M62 156q6 -60 51 -101t127 -50q12 -1 25 -1q74 0 173 45q59 27 104.5 58.5t82.5 69.5t69.5 83t67.5 100q12 18 27.5 23.5t32 1.5t28.5 -13.5t18 -19.5q18 -37 30.5 -69.5t25 -63.5t30 -59.5t45.5 -57.5q31 -31 71 -36q9 -1 18 -1q31 0 63 13q16 6 30.5 16t19.5 22 q2 5 2 11q0 7 -4 15q-7 12 -32 22q-53 23 -90 73t-61.5 114.5t-38.5 138t-21.5 145.5t-9.5 136.5t-4 109.5q-2 92 -42 162.5t-93 115.5q-19 15 -39 19q-6 1 -13 2q-13 0 -23 -6q-16 -8 -24 -21.5t-3 -30.5q18 -96 29 -181t16 -175q2 -23 -15.5 -37t-38.5 -24 q-72 -41 -151.5 -85.5t-158.5 -96.5t-153.5 -116.5t-138.5 -144.5q-32 -41 -32 -91q-1 -7 0 -15zM233 238q45 53 103.5 99t118 86t118 72.5t107.5 61.5q12 7 26 7h4q16 -1 26 -9q9 -7 10 -23v-2q0 -15 -17 -34q-37 -45 -75 -94.5t-82 -96.5t-97 -89t-123 -69 q-37 -14 -63 -14q-7 0 -13 1q-30 4 -44 22q-14 16 -14 38q0 26 15 44z" />
<glyph unicode="e" horiz-adv-x="1069" d="M84 340q-5 -28 -5 -53q-1 -47 17 -87q26 -60 78.5 -104.5t123.5 -76t142 -56.5q55 -17 129 -25q46 -5 94 -5q28 -1 57 1q77 4 148.5 22.5t124.5 51.5q9 6 13 20q2 6 2 13q0 9 -2 17q-4 14 -17.5 23t-36.5 5q-61 -10 -113.5 -17.5t-101.5 -8.5h-15q-42 0 -85 4 q-51 6 -111 22q-49 12 -103 31.5t-98 47.5q-44 27 -70 67q-20 31 -21 73q0 11 2 23q4 35 19 30.5t21 -14.5q22 -29 82 -34q6 -1 13 -1q57 0 143 39q57 25 107.5 38t97.5 27.5t92 38t92 68.5q33 33 49 72q12 30 12 59q0 8 -2 17q-4 37 -26.5 69.5t-61.5 53.5q-60 33 -122 41 q-25 3 -51 3q-35 -1 -71 -7q-60 -12 -120.5 -38t-122.5 -65q-59 -37 -108.5 -75t-88 -82t-65.5 -99t-41 -129zM258 437q-1 3 -1 6q0 7 4 17q5 14 15 23q41 45 98.5 82t120 64.5t128 46t125.5 24.5h5q13 0 27 -9q16 -11 23 -27q6 -11 6 -25q1 -5 -1 -11q-4 -20 -24 -34 q-61 -47 -128.5 -71.5t-132 -40t-123 -26t-99.5 -26.5q-15 -6 -24 -6q-5 0 -7 1q-10 3 -12 12z" />
<glyph unicode="f" horiz-adv-x="909" d="M20 510q3 -21 13 -40t28 -32q39 -26 79 -26q9 0 18 2q49 6 92 12q25 4 38 -18.5t15 -47.5q4 -55 6 -104t19 -109q20 -68 70 -107q46 -36 123 -36h16q18 0 29.5 24.5t12.5 52.5t-8.5 50.5t-29.5 20.5q-31 -4 -54.5 19.5t-39 58t-22.5 76.5q-4 27 -4 51q0 15 1 28 q2 23 20.5 32t40.5 13q47 6 103.5 10t111 10.5t100.5 18.5t70 39q8 8 16 24q11 19 11 34q0 11 -7 20q-9 10 -36 8q-111 -6 -198 -18q-48 -7 -98 -7q-40 0 -81 4q-55 6 -61 66q-8 74 -12 149q-3 46 -3 88q0 28 1 56q3 67 14.5 123.5t36.5 91.5q20 29 48.5 30t61.5 -14.5 t63.5 -41t55.5 -52.5q27 -31 36 -63.5t10 -66.5v-17q0 -26 -2 -52q-1 -16 -1 -31q0 -20 2 -40q2 -29 27.5 -18.5t53.5 35t50.5 55t20.5 42.5q-29 160 -118 261.5t-255 148.5q-31 8 -64 10h-12q-27 0 -51 -8q-29 -10 -48.5 -34.5t-25.5 -69.5q-10 -88 -15 -161t-6 -142v-71 v-73q1 -74 1 -164q0 -18 -13.5 -31.5t-31.5 -13.5q-16 -1 -32 -1q-32 0 -68 3q-20 2 -39 2q-28 0 -50 -4q-18 -4 -25 -19q-6 -11 -6 -24q0 -6 2 -12z" />
<glyph unicode="g" horiz-adv-x="903" d="M2 -182v-10q0 -28 8 -62q10 -41 28.5 -82t44.5 -78t52 -59q107 -92 225 -92q12 0 25 1q131 11 242 152q74 94 110.5 190.5t50.5 197.5q10 79 10 160v42q-4 103 -12 209q-2 21 -2 41q0 26 4 49q5 39 6 77v7q0 35 -8 73q-10 42 -43 97q-37 61 -97 75q-27 7 -56 7 q-35 0 -72 -9q-69 -18 -137 -55.5t-119 -80.5q-104 -88 -142 -170q-31 -66 -31 -123q0 -14 2 -27q9 -67 58.5 -114.5t120.5 -67.5q20 -6 40 -6q36 0 70 20q54 29 97 74t75 90t50 62q16 14 27.5 15t18.5 -6t10.5 -18.5t5.5 -21.5q8 -61 10 -94t3 -55.5t1 -45.5q0 -20 4 -57 q1 -16 1 -34q0 -39 -6 -83q-9 -65 -32.5 -130.5t-61.5 -125t-89.5 -101.5t-115.5 -61q-32 -9 -67 -9q-34 0 -71 9q-72 16 -93.5 63.5t-25.5 96.5t-8 90t-39 45t-52.5 -14.5t-19.5 -50.5zM233 381q0 33 12.5 67.5t36 64.5t56.5 46q35 18 68.5 36.5t62.5 32t51 17.5q6 1 11 1 q13 0 22 -7q12 -12 12 -30q0 -3 -1 -7q-3 -24 -19.5 -55t-42 -70t-53.5 -84q-16 -25 -42 -48t-53 -35q-24 -11 -48 -11h-8q-28 2 -46 27q-18 23 -19 55z" />
<glyph unicode="h" horiz-adv-x="1064" d="M106 978q7 -159 20 -321.5t29.5 -314.5t22.5 -262q0 -20 16.5 -29.5t38 -10.5t44 6t36.5 22q31 31 47.5 60.5t29.5 59t27.5 59t43.5 60.5q57 61 96 120.5t64 107.5q18 35 46.5 25.5t39.5 -32.5q14 -37 21 -65.5t11 -54t11.5 -51t23.5 -56.5q20 -37 34.5 -69.5t27 -66.5 t20.5 -72t16 -87q4 -25 35 -28h10q27 0 53 12q32 16 49 47q8 14 8 30q0 20 -13 44q-47 86 -82 179t-62.5 178t-51 155.5t-44.5 113.5q-30 61 -70 61q-35 0 -77 -48q-47 -55 -83 -106.5t-68 -100.5t-64.5 -97.5t-73.5 -95.5q-18 -20 -37.5 4.5t-24.5 69.5q-6 55 -10 128 t-5 152.5t-1 157.5q0 80 2 148.5t7 120t14 73.5q10 33 -14.5 58.5t-58.5 37.5q-21 8 -42 8q-12 0 -24 -2q-32 -8 -33 -40q-8 -81 -8 -175q0 -54 3 -113z" />
<glyph unicode="i" horiz-adv-x="440" d="M2 1137q36 -57 96 -97q41 -27 95 -26q26 0 55 6q18 4 35.5 17.5t25.5 29.5t5 35t-23 35q-47 35 -93 53t-110 26q-14 2 -25 3q-43 0 -59 -24q-11 -16 -10 -31q0 -14 8 -27zM100 737q2 -66 2 -119v-106v-104t4 -119q6 -119 111 -234q14 -16 51 -19q9 -1 18 -1q27 0 53 7 q33 10 51 28q7 8 8 17q0 13 -15 30q-35 41 -61.5 71.5t-49.5 81.5q-26 56 -30 104q-2 26 -2 51q0 23 2 46q4 49 13 101q11 64 11 115q0 31 -24 57q-26 28 -58 38q-17 6 -32 6q-14 0 -26 -4q-26 -10 -26 -47z" />
<glyph unicode="j" horiz-adv-x="409" d="M-267 -306q1 -32 17 -69q31 -68 89.5 -101.5t129.5 -33.5q70 0 147 36t144 105q57 57 78 166q14 78 14 168q0 35 -2 72q-8 131 -42 274.5t-85 272.5q-14 36 -14 57q0 13 5 21q13 20 34.5 31.5t35.5 25.5q7 6 7 18q0 16 -12 43q-10 20 -21.5 25.5t-30 9.5t-44 13.5 t-64.5 37.5q-27 18 -53.5 12t-46 -26.5t-27.5 -50t4 -58.5q49 -111 89 -204t69.5 -185t49 -190t25.5 -219v-18q0 -48 -9 -95q-11 -55 -38.5 -99t-74 -73t-111.5 -35q-24 -2 -44 -2q-33 0 -52 7q-31 10 -42 36q-6 16 -6 39q0 12 2 25q5 39 13 92q6 33 -6.5 57.5t-29.5 36.5 t-34.5 8t-21.5 -28q-6 -39 -17.5 -72t-18.5 -66q-6 -28 -6 -56v-8zM33 1174q-1 -7 -1 -12q0 -16 13 -25q33 -23 48.5 -40.5t24.5 -32.5t15 -31.5t23 -37.5q7 -10 23 -10q5 0 11 1q25 5 47.5 22.5t36.5 41.5q9 14 9 27q0 9 -4 17q-23 49 -53.5 88t-82.5 71q-9 6 -19.5 6 t-23.5 -6q-24 -12 -42.5 -33.5t-24.5 -45.5z" />
<glyph unicode="k" horiz-adv-x="968" d="M-18 1292q-1 -6 -1 -11q0 -23 15 -40q55 -61 80.5 -149t37 -192.5t15.5 -221.5t14 -236q6 -66 15.5 -120t24 -106t34 -105.5t43.5 -116.5q8 -18 40 -31.5t64 -14.5h5q27 0 45 9q20 10 6 37q-20 35 -33.5 59.5t-28.5 63.5q-8 23 -5 37t14.5 22t26 9t26.5 -1 q61 -12 118.5 -26.5t114 -24.5t116.5 -12h13q54 0 117 14q18 4 28.5 23.5t10.5 42.5t-13.5 40t-43.5 17q-33 0 -83 7t-109.5 22.5t-123 39t-121.5 54.5q-16 8 -28.5 13t-14.5 11.5t6.5 17.5t30.5 32q43 39 81 73.5t97 79.5q35 27 52.5 29t46.5 -4q31 -6 50 20.5t21 62.5v8 q0 32 -15 60q-17 32 -62 33h-6q-33 -1 -71 -21q-42 -22 -86 -56.5t-91 -80t-90 -88.5q-10 -10 -25.5 -17t-30.5 -7q-12 0 -23.5 11t-13.5 38q-4 51 -5 93t-3 82t-5 82t-11 93q-10 63 -11 127t-8.5 120t-31 103t-78.5 80q-23 13 -43 13q-10 0 -22 -4q-30 -11 -49 -37t-23 -56 z" />
<glyph unicode="l" horiz-adv-x="432" d="M12 1253q41 -119 66.5 -223t44.5 -194q18 -93 18 -173v-17q-2 -88 -8 -170.5t-8 -169.5v-13q0 -81 22 -176q6 -27 28 -41q21 -15 45 -18q6 -1 12 -1q18 1 32 7q20 8 19 28q4 98 9 178t8 157q2 58 2 117v40q-1 80 -7 178q-6 80 -17.5 159.5t-23.5 151.5t-21.5 130.5 t-11.5 92.5q-2 36 -40 50q-23 8 -48 9q-16 1 -32 -3q-43 -8 -73 -34q-21 -17 -20 -42q0 -11 4 -23z" />
<glyph unicode="m" horiz-adv-x="1355" d="M69 610v-15q0 -29 3 -61q4 -40 14 -85q12 -51 21.5 -93.5t18.5 -83.5t15 -84t13 -96q2 -23 19 -33t40 -10q25 0 48.5 6t39.5 19q47 35 77 72.5t54.5 77.5t50 82t64.5 87q29 33 40 35t27 -41q14 -35 29.5 -57.5t38.5 -53.5q36 -52 81 -52h2q46 1 71 40q35 57 74.5 91 t72.5 75q10 12 24.5 21.5t28.5 9.5q16 0 30.5 -9.5t20.5 -33.5q18 -63 27.5 -121.5t25 -112t43 -98.5t83.5 -80q15 -10 35 -10h7q24 2 43 12t28 30q4 8 4 17q0 12 -7 25q-43 86 -73.5 166t-53 156.5t-39 152.5t-30.5 152q-4 23 -24.5 40t-45.5 25t-48.5 5t-35.5 -21 q-25 -37 -40 -74t-31.5 -72t-37 -66.5t-57.5 -58.5q-12 -10 -28.5 -22t-33 -17.5t-29.5 2t-19 37.5q-16 66 -30.5 114t-31.5 114q-4 16 -24.5 25.5t-45 8t-46 -10.5t-25.5 -29q-23 -96 -79 -186.5t-136 -188.5q-14 -16 -30.5 -6t-31.5 61q-12 41 -15 77q-2 27 -2 53v17 q1 34 4 69.5t7 78.5q2 31 -18 58q-22 26 -50 42q-25 14 -48 13h-6q-26 -2 -38 -27q-16 -43 -25 -82t-10 -76z" />
<glyph unicode="n" horiz-adv-x="907" d="M53 725q-5 -14 -5 -25q0 -14 7 -24q47 -68 75 -174q24 -92 24 -196v-30q0 -18 8 -49.5t28 -57.5q22 -26 54 -34q6 -2 13 -2q29 0 69 27q35 23 53 55.5t32.5 69.5t30 75.5t43.5 75.5q23 29 44.5 25t54.5 -62q14 -27 20 -65.5t8 -83.5t6.5 -92t16.5 -89t35 -77 q24 -36 67 -54q27 -12 51 -11q13 -1 26 3q34 10 50 34q11 15 12 33q0 7 -2 17q-8 28 -51 47q-23 8 -37 45t-24 89.5t-19.5 114t-20.5 123t-26.5 115.5t-38.5 91q-12 20 -35.5 37.5t-48 26t-46 5.5t-29.5 -26q-16 -41 -26.5 -71.5t-22 -55.5t-26.5 -46.5t-42 -47.5 q-29 -29 -55 -29q-25 0 -37 53q-12 49 -16.5 101.5t-9.5 98.5t-15 80t-33 46q-21 11 -41 11q-14 0 -28 -5q-34 -12 -58.5 -36.5t-34.5 -55.5z" />
<glyph unicode="o" horiz-adv-x="827" d="M74 338v-9q0 -49 20 -99q22 -54 60.5 -100t91.5 -80t116 -44q26 -4 50 -4q50 0 94 16q66 24 119 74.5t89 121t54 148.5q9 39 9 75q0 19 -3 39q-8 54 -26.5 103.5t-42 97.5t-41.5 97q-10 27 -31 45.5t-49 22.5q-8 1 -15 1q-21 1 -45 -7q-32 -10 -63 -43 q-23 -23 -42.5 -39.5t-41 -30.5t-44 -27.5t-50.5 -31.5q-96 -59 -150.5 -136t-58.5 -190zM240 369q2 59 28.5 98t75.5 74q44 29 66 34q9 2 16 2q12 -1 20 -5q14 -8 26.5 -19.5t37.5 -17.5q23 -6 38 4t26.5 20t20.5 13t19 -13q16 -27 28 -61q12 -33 16 -70l2 -24 q0 -26 -6 -52q-8 -39 -27 -76q-39 -63 -91 -97q-42 -27 -95 -27q-14 0 -29 2q-53 6 -87 24.5t-53.5 48t-26.5 65.5q-5 28 -5 59v18z" />
<glyph unicode="p" horiz-adv-x="739" d="M80 627q27 -86 33 -166q5 -60 5 -118q0 -19 -1 -38q-2 -76 -9 -149q-4 -55 -4 -111v-35q2 -73 18.5 -149t55.5 -156q23 -47 42 -65q18 -15 33 -15h4q17 2 30.5 22.5t25.5 51.5q20 56 20 106v13q-3 55 -13.5 108.5t-17.5 109.5q-3 21 -3 43q0 38 8 81q6 33 25.5 45 t48.5 16q43 4 94 29.5t94 66.5t72 95.5t29 115.5q0 66 -30 123.5t-78 98.5t-110 61q-43 14 -89 14q-18 0 -37 -2q-47 -6 -94.5 -25.5t-84 -47t-57.5 -59.5q-13 -22 -13 -43q0 -11 3 -21zM270 516q-1 12 -1 25t1 27q2 26 13.5 47.5t32.5 31.5q14 6 33 6q12 0 26 -2 q59 -10 107.5 -40t52.5 -89v-8q0 -28 -11 -50q-14 -26 -37.5 -44.5t-54.5 -31.5t-63 -19q-35 -8 -54 -8q-1 0 -3 1q-19 0 -26 16.5t-9.5 49.5t-6.5 88z" />
<glyph unicode="q" horiz-adv-x="1056" d="M70 422q-8 -29 -8 -57q0 -30 8 -58q16 -55 65 -97t139 -56q45 -7 85 -7q16 0 31 1q54 4 103.5 19t99.5 38.5t105 52.5q20 10 30.5 9t16 -8t5.5 -19q0 -10 4 -19q16 -55 18 -126.5t8 -142.5t24.5 -132.5t65.5 -95.5q22 -16 43 -16h9q26 5 43.5 23.5t22.5 44.5q1 8 1 16 q0 18 -8 36q-47 88 -57 194q-8 73 -8 146q0 31 2 62q4 102 12 191q3 36 3 66q0 45 -7 78q-4 20 -13.5 26.5t-19.5 6.5t-21.5 -2t-19.5 6q-25 23 -29 48.5t-26 49.5q-47 51 -101 77q-29 14 -62 14q-28 0 -59 -11q-74 -27 -139 -49t-121.5 -50t-105.5 -64.5t-88 -88.5 q-37 -47 -51 -106zM222 416q3 22 28 45q37 31 69.5 52.5t66.5 37.5t71 30.5t82 32.5q37 15 62 15q22 0 35 -11q26 -26 32 -83q2 -20 11 -38t12 -35q1 -4 1 -9q0 -11 -5 -22q-7 -15 -38 -32q-45 -25 -84 -46t-79 -33.5t-84 -14.5h-10q-40 0 -87 14q-23 6 -43 20.5t-32 34.5 q-9 17 -9 34q0 4 1 8z" />
<glyph unicode="r" horiz-adv-x="718" d="M35 676q-5 -17 -5 -33q0 -18 6 -37q11 -35 30.5 -71.5t42 -75.5t36.5 -84q12 -37 21.5 -65.5t18 -56.5t16.5 -57.5t18 -66.5q6 -29 26.5 -42t42.5 -14h4l42 12q22 13 33 38q23 55 31 106.5t16 99.5t21.5 95t47.5 98q28 39 56 39h3q30 -2 64 -14q29 -12 48 1q20 12 27 36 q5 16 5 35q0 8 -1 16q-3 27 -17 41q-36 35 -86 45q-23 5 -46 4q-29 0 -59 -6q-49 -10 -71.5 -36t-31.5 -58.5t-15.5 -70.5t-22.5 -75q-10 -18 -21.5 -25.5t-22.5 -5t-19.5 11.5t-10.5 19q-10 45 -13 75t-11.5 53.5t-26.5 46t-59 53.5q-21 16 -46 16q-11 -1 -22 -3 q-39 -10 -49 -44z" />
<glyph unicode="s" horiz-adv-x="704" d="M78 657q-6 -21 -6 -43q0 -32 12 -67q14 -41 45 -66.5t74 -54.5t95 -71t105 -115q29 -41 39 -76q2 -7 3 -13q0 -27 -35 -47q-60 -35 -116 -47q-19 -4 -38 -4q-37 0 -74 15q-21 8 -39 8q-13 0 -25 -4q-28 -10 -39 -34q-6 -12 -5 -26q0 -12 5 -28q11 -30 54 -58 q27 -18 73 -18q12 0 26 2q64 6 132 26.5t128.5 50t89.5 56.5q45 41 49 99q0 5 1 10q0 52 -38 100q-39 49 -73 86t-67.5 71.5t-71.5 69.5t-83 80q-14 14 -13 38t19 30q47 16 80 36.5t68 36.5q25 12 50 -3q19 -11 19 -42q0 -10 -2 -22q-4 -20 15.5 -22.5t45 7t48 28t26.5 36.5 q5 25 5 48q0 37 -14 67q-23 49 -120 75q-11 3 -25 2q-23 0 -53 -8q-47 -14 -100 -37.5t-106.5 -51t-96.5 -46.5q-53 -23 -67 -74z" />
<glyph unicode="t" horiz-adv-x="847" d="M35 636q-2 -10 -2 -20q0 -12 3 -24q5 -22 21 -33q37 -27 62.5 -37t54.5 -24q23 -10 28 -33t15 -47q14 -31 16.5 -86.5t5.5 -116.5t13 -119.5t39 -95.5q25 -31 53 -37q11 -2 21 -2q17 0 33 6q24 10 39.5 30.5t13.5 45.5q-4 33 -16.5 54.5t-27 57t-28.5 95t-21 168.5 q-2 25 17.5 40t44.5 15q39 0 94 -3q18 -1 37 -1q39 0 79 4q60 6 117.5 25.5t102.5 66.5q18 20 24 47q2 11 2 22q0 14 -4 26q-8 22 -26.5 30t-44.5 -8q-20 -12 -34.5 -22.5t-49.5 -16.5t-103 -7h-30q-64 0 -164 3q-25 2 -41.5 15.5t-20.5 39.5q-6 51 -11 94t-5 82q0 41 5 83 t18 91q2 10 3 20q0 29 -23 54q-30 32 -71 46q-24 8 -46 8q-16 0 -30 -4q-36 -10 -36 -50q0 -55 5 -97t14 -84t20.5 -88t21.5 -112q2 -20 -19.5 -32.5t-35.5 -10.5q-25 4 -43 4t-43 -4q-18 -4 -30.5 -20t-16.5 -38z" />
<glyph unicode="u" horiz-adv-x="1040" d="M124 486v-15q0 -77 9 -147q10 -78 38 -139.5t74 -101.5t117 -46q16 -2 30 -2q38 0 68 11q42 15 75.5 46t63.5 77t58 101q23 46 40 46q5 0 9 -3q20 -14 44 -67q18 -43 33.5 -87t30.5 -84t33.5 -72t43.5 -52q12 -10 31 -10q11 0 25 4q36 10 61.5 34.5t29.5 58.5v7 q0 31 -37 59q-31 23 -58.5 79.5t-52 130t-47 156.5t-44.5 163q-10 37 -41 49t-61.5 8t-54.5 -22.5t-21 -40.5q2 -23 2 -46q0 -89 -32 -159q-40 -88 -99 -164q-14 -18 -35 -35.5t-43.5 -21.5t-44 9t-37.5 54q-29 70 -39 140q-9 64 -9 125v13q1 66 10 125.5t19 106.5 q8 33 -13 53.5t-51 26.5q-13 3 -25 3q-16 0 -32 -5q-28 -8 -32 -29q-14 -78 -24.5 -165t-11.5 -172z" />
<glyph unicode="v" horiz-adv-x="866" d="M-30 710q-1 -3 -1 -7q0 -29 37 -64t59.5 -87t57.5 -132t93 -191.5t165 -265.5q20 -31 37.5 -51.5t33.5 -23.5h6q14 0 30 12q20 16 47 57q84 125 121.5 239.5t60 207t45.5 156.5t74 91q22 12 22 39q0 31 -14.5 63.5t-37 64.5t-46.5 50q-22 17 -41 17h-3q-20 -2 -28 -37 q-12 -51 -21.5 -124t-27.5 -156t-48 -170t-81 -165q-28 -41 -46 -43h-1q-18 0 -51 43q-72 94 -109 166t-53.5 126.5t-20.5 93t-11 69.5t-25.5 53.5t-63.5 44.5q-25 12 -62.5 5t-64.5 -28t-32 -53z" />
<glyph unicode="w" horiz-adv-x="1204" d="M39 725q18 -96 31.5 -175t31 -153.5t41 -151.5t62.5 -165q25 -55 72 -79q37 -19 77 -19q11 0 22 2q52 6 101 38.5t78 88.5q35 70 45 109.5t22.5 44.5t41 -30.5t100.5 -117.5q37 -43 68.5 -74t61.5 -40t58.5 6.5t57.5 64.5q72 121 104.5 236.5t42.5 217.5q1 9 2 17 q-1 39 -25 66q-28 33 -64 43q-15 4 -29 4q-19 0 -37 -8q-30 -14 -25 -54q4 -51 9 -93t7 -82q1 -10 1 -20q0 -30 -5 -61q-6 -41 -24 -88q-12 -29 -27.5 -37t-31 -3t-31 18.5t-27.5 27.5q-35 43 -59.5 86t-43 85t-36 81t-39.5 74q-23 33 -46.5 42t-44 0.5t-35 -31t-16.5 -54.5 q-4 -78 -14 -155t-47 -153q-23 -47 -45.5 -65t-43 -15t-38.5 21.5t-33 46.5q-35 63 -51 133t-19 136l-2 56q0 36 3 70l8 106q0 30 -33 50q-35 22 -77 25q-9 1 -17 1q-31 0 -57 -12t-27 -44q0 -8 2 -17z" />
<glyph unicode="x" horiz-adv-x="952" d="M63 18q-2 -11 -2 -20q1 -15 5 -27q6 -18 18 -25q8 -4 17 -4q5 0 11 1q16 4 31 20q39 43 64.5 86t49.5 85t49.5 82t64.5 79q16 16 27.5 25.5t21.5 9.5q12 0 24.5 -7.5t30.5 -21.5q39 -31 73 -56.5t66.5 -48t67.5 -42t76 -37.5q28 -12 54 -12q8 0 16 1q32 5 50.5 22 t18.5 42q0 27 -29 51q-39 33 -74.5 54.5t-69.5 41t-70 41t-74 54.5q-43 36 -43 62q0 28 36 61q59 53 126 80.5t126 35.5q82 10 105 37q6 7 6 14q0 22 -49 48q-52 28 -103 28h-6q-54 -2 -103.5 -22.5t-100 -55t-99.5 -73.5q-29 -23 -57 -30q-5 -1 -10 -1q-24 0 -56 25 q-23 18 -40 37.5t-33.5 38t-35 35t-44.5 30.5q-31 16 -58.5 12t-48.5 -20q-20 -16 -28 -40q-4 -12 -5 -24q0 -11 4 -20q14 -35 33 -58.5t42.5 -42t51 -36t58.5 -41.5q43 -33 44 -50.5t-26 -54.5q-37 -49 -68.5 -91t-58 -83t-46 -87t-30.5 -108z" />
<glyph unicode="y" horiz-adv-x="952" d="M25 700q66 -156 186.5 -271.5t261.5 -207.5q20 -12 31.5 -20t14.5 -16.5t-2 -23t-19 -38.5q-43 -76 -81 -138.5t-71 -123t-59.5 -127t-46.5 -152.5q-6 -29 7 -40q11 -9 28 -9h7q21 2 42.5 14.5t31.5 34.5q68 158 138.5 283t141.5 241.5t141 237t138 270.5q4 10 4 20 q0 14 -8 30q-14 26 -38.5 41.5t-51 11.5t-41.5 -41q-18 -49 -32.5 -89t-30 -78t-34.5 -75t-50 -78q-25 -33 -41.5 -30.5t-50.5 30.5q-115 90 -204 191.5t-177 226.5q-20 31 -47 31t-49.5 -16.5t-35.5 -42.5q-7 -14 -7 -28q0 -9 4 -18z" />
<glyph unicode="z" horiz-adv-x="835" d="M99 110q-3 -16 -3 -32q0 -21 6 -41q10 -35 32 -58.5t56 -27.5q39 -4 79 -4q35 0 70 3q75 7 152.5 22.5t161.5 35t176 35.5q25 3 28 27q1 5 1 10q0 18 -10 40q-12 26 -34.5 46t-45.5 18q-61 -6 -111.5 -17t-97.5 -22.5t-97 -21.5t-112 -12q-14 -1 -26 -1q-47 0 -53 13 q-2 4 -2 8q0 17 20 53q45 80 89 143.5t84 125t74.5 129t59.5 155.5q8 29 7 57.5t-12 48t-31 27.5q-8 3 -18 4q-14 0 -32 -8q-39 -16 -80 -24t-84 -17.5t-88 -21.5t-92 -35q-29 -14 -39 -33.5t-4 -39t26.5 -38t53.5 -30.5q20 -6 36.5 -3t32 12t33 20.5t39.5 19.5q14 4 29.5 5 t26 -8t10.5 -30q0 -18 -17 -53q-31 -63 -61.5 -112.5t-62 -94.5t-66.5 -92t-74 -107q-23 -36 -30 -74z" />
<glyph unicode="{" horiz-adv-x="729" d="M54 914.5q-3 -25.5 3 -50t21 -41.5q25 -29 45 -50t39.5 -41.5t41 -41t50.5 -47.5q27 -25 28 -43t-17.5 -39.5t-55.5 -50.5t-86 -76q-23 -20 -36 -51t-6 -58.5t41 -47t107 -19.5h27q16 0 26.5 -5t11.5 -18.5t-15 -41.5q-45 -78 -84 -158t-56.5 -158t-3 -151.5t77.5 -135.5 q102 -102 232 -111.5t255 62.5q23 12 28 45t-2 60.5t-25.5 38t-41.5 -20.5q-37 -49 -98 -63.5t-124.5 0t-116 52.5t-66.5 93q-18 63 -3 130t44 128.5t63.5 113.5t55.5 87q14 25 30.5 51.5t18.5 53t-16.5 49t-73.5 38.5q-14 4 -38 2t-34 3.5t5.5 27t78.5 74.5 q20 16 35.5 38.5t19.5 47t-6 49.5t-37 49q-27 23 -50 40t-47 32.5t-46.5 34t-48.5 45.5q-16 16 -19.5 39.5t2 46t13.5 41t16 24.5q68 47 120 89t101 82t101.5 81t119.5 88q25 16 26 34.5t-10 32t-30.5 17.5t-34.5 -6q-154 -109 -278.5 -202t-233.5 -195q-20 -18 -30.5 -45 t-13.5 -52.5z" />
<glyph unicode="|" horiz-adv-x="301" d="M92 -70q0 -20 24.5 -25t53.5 4t52.5 31.5t21.5 59.5q-16 180 -26.5 327.5t-12.5 289t6 289t29 327.5q2 27 -15.5 46t-41 25.5t-44 -5t-22.5 -46.5q-12 -195 -15.5 -352.5t-3.5 -308.5v-311q0 -158 -6 -351z" />
<glyph unicode="}" horiz-adv-x="655" d="M57 1266.5q-4 -23.5 3.5 -43t35.5 -19.5q41 -2 82 8.5t77 13.5t64.5 -9.5t47.5 -57.5q8 -20 -7.5 -64t-45 -97.5t-71.5 -108.5t-89 -94q-43 -37 -55.5 -58.5t-10.5 -38t11.5 -33t9.5 -42.5q2 -43 12 -63.5t25.5 -33t32 -22.5t28.5 -32.5t10 -45.5t-2 -45 q0 -20 11.5 -39.5t49.5 -34.5q100 -39 155.5 -104.5t66.5 -169.5q4 -47 -11.5 -97.5t-45 -98.5t-65.5 -88t-72 -65.5t-65.5 -30.5t-43.5 15q-12 16 -31 0t-26 -43.5t4.5 -56.5t60.5 -35q37 -4 88 19.5t103 66.5t96 101t69 124q53 143 29.5 268.5t-139.5 239.5 q-10 10 -29 18.5t-28 18.5t-3 25.5t43 40.5q14 8 26.5 14t18.5 15.5t2 28.5t-22 56q-23 43 -53.5 44t-69.5 -3q-37 -4 -56.5 10.5t-26.5 36t-3 46t16 42.5q33 49 59.5 86t51 71t45 71t41.5 88q12 33 17 67.5t-1 66.5t-23.5 57.5t-50 42t-66.5 22.5t-71 7t-76 1t-81 2 q-18 0 -33 -18.5t-19 -42z" />
<glyph unicode="~" horiz-adv-x="1040" d="M16.5 626.5q8.5 -18.5 25.5 -22.5t36.5 6.5t32.5 34.5q18 41 29.5 78t24.5 71.5t31.5 67.5t49.5 66q51 51 88 57t63.5 -15.5t44 -58.5t31.5 -69q37 -86 72 -121t70.5 -37t71.5 17.5t75 41.5q53 31 90 74t65.5 93.5t53 108t55.5 118.5q16 33 1 56.5t-40.5 33.5t-50.5 3 t-27 -38q-6 -141 -129 -283q-27 -31 -60.5 -55.5t-67.5 -26.5t-63.5 27t-47.5 104q-16 68 -44 106t-61 51t-69.5 6t-71.5 -27q-53 -31 -93 -71t-73 -92t-58.5 -115.5t-52.5 -139.5q-10 -31 -1.5 -49.5z" />
<glyph unicode="&#xa1;" horiz-adv-x="448" d="M98 952q-2 -23 16.5 -46t45 -44.5t55.5 -36t47.5 -16.5t29.5 11.5t17 35t7 45.5t-1 47q-2 20 -7 46t-14 47.5t-21.5 36t-26.5 14.5q-18 0 -43 -13.5t-47.5 -35t-39 -46t-18.5 -45.5zM121 590.5q2 -17.5 12 -36.5t35 -40q25 -23 35 -64.5t11 -91t-3 -99.5t-6 -89 q-4 -39 -9.5 -101.5t-11.5 -125t-15 -114.5t-17 -69q-18 -35 -19 -63q0 -29 43 -59.5t67.5 5t47.5 113.5q6 25 13 90.5t12.5 152.5t10.5 183.5t7 182.5t1 152t-3 91q-10 78 -41 111t-66 29q-31 6 -62.5 -22t-35.5 -64q-2 -18 -5 -36t-1 -35.5z" />
<glyph unicode="&#xa2;" horiz-adv-x="952" d="M63 348q-10 -47 8.5 -91t49.5 -81t65.5 -61.5t57.5 -32.5q45 -16 61.5 -40t3.5 -83q-6 -29 -7 -62.5t5 -62.5t18.5 -47t33 -16t29.5 20.5t12 46t3 58.5v59q0 55 32 70.5t87 27.5q27 6 70 15.5t92 22.5t99 31.5t91 41.5q82 45 70 74.5t-102 23.5q-45 -4 -87 -16.5 t-80 -27.5t-73 -26.5t-63 -11.5q-29 0 -43.5 5t-19.5 14.5t-4 24t5 30.5q2 16 5 49t5 70t3.5 75.5t3.5 67.5q2 57 20 70.5t49 19.5q14 2 26.5 -9t25 -26.5t25.5 -30t30 -16.5q35 -4 60.5 26t29.5 114q2 41 -17.5 64.5t-50 34.5t-66.5 12t-67 -1q-31 -4 -39 12.5t-3 43 t16.5 60.5t21.5 68q18 66 -1 104t-68.5 48t-68 -26.5t-18.5 -120.5q0 -109 -2 -161t-11 -77t-26.5 -35t-46.5 -31q-29 -23 -68.5 -56.5t-76.5 -74.5t-66.5 -88t-38.5 -92zM214 332q-1 33 10.5 64.5t36 54t46 45t36.5 32t24.5 -1t7.5 -55.5q0 -23 -1 -51.5t-4 -57t-6.5 -55 t-5.5 -41.5q-4 -16 -8 -31.5t-13 -24.5t-25.5 -8t-43 19.5t-40 48t-14.5 62.5z" />
<glyph unicode="&#xa3;" horiz-adv-x="1320" d="M41 86q2 -51 43 -66.5t99.5 -13.5t126 11.5t120.5 7.5t110.5 -21.5t122 -44.5t137 -49.5t158.5 -32.5q86 -10 146.5 6.5t101.5 45t67 64t42 64.5t12 46.5t-18.5 24.5t-36 4t-39.5 -17q-37 -29 -104.5 -55.5t-145.5 -30.5q-51 -2 -108.5 9t-113.5 29.5t-106.5 41 t-85.5 43.5q-35 18 -47 30.5t-12 22.5t7 24.5t11 37t5.5 44t0 44t-3.5 50t-2 62.5t2 55.5t8.5 32.5t18.5 20.5t32.5 18.5t52.5 11t67.5 -2t70.5 -7t59.5 -6t41 8t22.5 25.5t1 36t-23.5 41t-52 28.5t-70.5 10t-73 -1t-58 -5q-23 -4 -41.5 -6t-30.5 1t-18.5 13.5t-8.5 33 t-4 28.5t-1 21.5t8.5 54.5t23.5 129q16 88 36.5 137t42 71.5t45 27.5t48.5 9q25 2 47.5 -13t39.5 -43t25.5 -63.5t6.5 -72.5q-6 -74 25.5 -119t72.5 -41q20 2 38.5 4t30 16.5t14.5 47t-9 96.5q-12 66 -45 129t-79 112.5t-99.5 79t-104.5 27.5q-76 -2 -125 -43t-78.5 -103.5 t-45 -137t-20.5 -145.5t-6 -129t-1 -85q-2 -41 -13.5 -60.5t-31 -25.5t-48 -4t-63.5 4q-72 4 -93.5 -17.5t-21.5 -88.5q0 -68 34 -88.5t114 26.5q39 23 62.5 31t35.5 4t18.5 -17.5t14.5 -33.5q8 -18 11 -31.5t2 -31t-7 -45t-18.5 -77t-31 -67t-41 -18.5t-50 6.5t-58 9.5 t-64.5 -4t-61.5 -23.5t-46 -49.5t-16.5 -83z" />
<glyph unicode="&#xa4;" horiz-adv-x="1310" d="M74 1004q-10 -27 4 -51.5t39.5 -45t57.5 -37t58 -26.5q51 -23 79 -38t24 -56q-2 -20 -17.5 -49t-34 -66t-37 -84t-26.5 -105q-6 -43 0 -74.5t15.5 -57t19.5 -49t14 -48t-5 -44t-26.5 -36t-40 -33t-43 -35t-36 -50t-22.5 -65.5t-8 -62.5t9 -38.5q8 -10 25 -11 q18 0 34.5 8.5t29 22.5t14.5 32.5t22.5 39t51 41t65.5 38t65.5 30t78.5 14.5t103.5 5t114 12t109.5 33.5t84 42t56.5 30t40 18.5t32.5 8t31.5 -8t33 -22.5t38 -26t49.5 -17.5q27 -4 40 3.5t16 19.5t-2 27.5t-13 27.5q-14 23 -50.5 70t-85.5 78q-25 14 -38 23t-19 17.5 t-7 18.5t-1 27q0 16 7 57t16.5 90t17.5 100.5t8 92.5q0 39 12.5 62.5t29.5 37.5t35.5 21.5t33.5 17.5q14 8 21 26.5t10 40t0 41t-11 31.5q-6 12 -21.5 16.5t-34 3.5t-37 -6.5t-30.5 -13.5q-12 -6 -21.5 -23.5t-21.5 -41t-31.5 -52t-52.5 -55.5q-33 -29 -67.5 -26.5 t-73.5 14.5t-83 25.5t-95 11.5q-51 -4 -82 -13.5t-51.5 -19.5t-36 -17.5t-35.5 -3.5q-20 2 -48 31t-58.5 62.5t-61.5 65.5t-57 42q-88 37 -123 -69zM344 450.5q2 49.5 29.5 111t76 116.5t115 96t144.5 49q27 2 64.5 -29.5t71.5 -78.5t58.5 -103.5t22.5 -103.5t-15.5 -105.5 t-47.5 -110.5t-89 -89t-139 -39q-84 -4 -141.5 22.5t-91 68.5t-47 94t-11.5 101.5z" />
<glyph unicode="&#xa5;" horiz-adv-x="1357" d="M39 1258.5q8 -48.5 67 -78.5q29 -14 75 -76t95.5 -132.5t91.5 -134t62 -83.5q41 -41 51.5 -57.5t-14.5 -32.5q-12 -6 -27.5 -14.5t-38 -14.5t-56.5 -10t-79 -2q-47 2 -70.5 -7.5t-34.5 -23.5t-14.5 -32.5t-7.5 -35.5q-10 -33 27 -68.5t108 -41.5q35 -4 63 9t50.5 32.5 t44 40t43.5 32.5q47 25 75 16t44 -64.5t11 -74t-48 -24.5q-23 -4 -78 -8t-117.5 -7.5t-120 -6.5t-81.5 -3q-25 0 -43.5 -12t-30.5 -30.5t-18.5 -38t-6.5 -33.5q0 -29 36 -47.5t67 -22.5q14 -2 59 7t100.5 21.5t114 28t103.5 25.5q43 10 64.5 7t30.5 -16.5t12 -36t11 -48.5 q8 -29 20.5 -57.5t30 -53t39 -40t46 -13.5t33 29.5t6 66.5t-10.5 79t-16 67q-6 16 12.5 27t50 17.5t72.5 8.5t79 3t69.5 3t48.5 6q23 6 44 7t37.5 7.5t25.5 19.5t7 44t-39.5 42t-91.5 11q-53 0 -109.5 -7t-94.5 -13q-37 -6 -58.5 0t-32 20.5t-12.5 34.5t-4 43t1 41 t14.5 32.5t34 25t61.5 20.5q39 8 85 10t92 -1t89 -8t73.5 -9.5t40 10t6.5 39t-15.5 52t-22.5 50.5q-10 20 -44 26.5t-80 2.5t-98.5 -14.5t-101.5 -18.5q-49 -10 -68.5 -9t-21.5 10t9.5 24.5t23.5 36t46 58.5t74 80t79.5 79.5t66.5 56t39 40t14 43t-4 41t-16 32t-31.5 16.5 t-46.5 -1t-48.5 -21.5t-37.5 -43.5q-16 -29 -55 -81t-86 -110t-94.5 -110.5t-76 -79t-50 -37t-41 -6t-42 22.5t-55 49t-70.5 83t-75 111.5t-67.5 118t-45.5 101.5q-31 86 -75 97t-97 -23q-63 -41 -55 -89.5z" />
<glyph unicode="&#xa6;" horiz-adv-x="450" d="M92.5 1266.5q-16.5 -33.5 1.5 -82.5q8 -25 13.5 -64t7.5 -85t2 -97q0 -49 2 -94q2 -47 11 -71.5t22.5 -37t29 -13.5t27.5 3q25 6 40 29.5t5 97.5t-5 152.5t5 158.5t-24.5 102.5t-73.5 28.5q-47 6 -63.5 -27.5zM172 442q2 -23 4 -62.5t3 -86.5t0 -99.5t-3 -99.5 q-4 -47 10.5 -79.5t35 -51t43 -27t38.5 -6.5q14 2 20.5 14.5t6.5 30.5t-4.5 37t-10.5 33q-6 12 -7 56t-1 100q0 57 2 115.5t2 101.5t-1 68.5t-6 38t-15 16.5t-31 4q-43 0 -66.5 -28t-19.5 -75z" />
<glyph unicode="&#xa7;" horiz-adv-x="1013" d="M46 648q1 -38 40 -85q59 -74 124.5 -115.5t127 -63.5t116 -29t91.5 -13t74.5 -21.5t69.5 -42t52.5 -63.5t24.5 -86q2 -49 -12.5 -74.5t-42 -37t-66.5 -12.5t-84 -3q-92 -4 -157.5 3t-112.5 50q-23 20 -44.5 27.5t-40 5.5t-32.5 -11t-22.5 -17.5t-20.5 -17.5t-17 -22.5 t2 -31t36 -43.5q59 -53 156.5 -76t195.5 -27q49 -2 111.5 12.5t124 37t112.5 50t77.5 52t22.5 73t-20.5 101.5t-39 103.5t-32.5 79t2 44t31.5 32.5t40 45t24.5 83t-25.5 103.5t-89 89t-146.5 76.5t-193 67q-109 31 -160 59.5t-70.5 58t-18.5 59.5t-1 65q-4 68 40 106.5 t140 28.5q47 -4 77 -15.5t46 -27t22.5 -36t10.5 -44.5q6 -49 49 -71.5t86 -10.5q20 6 43 21.5t35 38t11 52t-27.5 64.5t-66.5 69.5t-91 62.5t-109.5 47.5t-122.5 25.5q-61 2 -118.5 -44t-102.5 -110.5t-74.5 -129t-35.5 -97.5q-6 -31 9 -63.5t33.5 -62.5t32 -57.5t2.5 -50.5 q-14 -29 -38.5 -55t-42 -57t-16.5 -69zM284 629q1 14 10 24.5t28.5 21.5t54.5 27q33 16 58.5 26.5t51.5 10.5q29 0 64 -10t88 -31q53 -23 84 -44t45 -42.5t17 -44t1 -45.5t-5 -37t-11 -21t-23.5 -9t-41.5 -2q-53 0 -106.5 18t-102.5 18q-25 0 -57.5 3.5t-63.5 13.5 t-55.5 30.5t-32.5 55.5q-4 23 -3 37z" />
<glyph unicode="&#xa8;" horiz-adv-x="737" d="M96 1077q-6 -25 3.5 -47t26.5 -38.5t38.5 -27t38.5 -10.5q35 0 60.5 34t25.5 81q0 23 -3 46.5t-13.5 42t-29 30.5t-48.5 12q-43 0 -64.5 -37t-34.5 -86zM448.5 1110q-4.5 -14 2 -41t21.5 -52.5t36.5 -44t46.5 -18.5q49 0 72 32.5t35 98.5q12 63 -13.5 92t-73.5 35 q-29 2 -50 -8t-36.5 -25.5t-25.5 -35t-14.5 -33.5z" />
<glyph unicode="&#xa9;" horiz-adv-x="1413" d="M72 414q-2 -66 22.5 -137.5t79.5 -134t142 -109.5t208 -64q80 -12 160 7.5t154.5 59.5t143.5 94t126 111.5t102 115t72 102.5q41 68 59.5 133t21.5 122.5t-7.5 104.5t-28.5 82q-18 33 -26.5 51.5t-10.5 37t-1 45t1 75.5t-22.5 95t-65.5 81t-108.5 55.5t-151.5 20.5 q-115 0 -222.5 -41t-203.5 -110.5t-177 -164t-139.5 -200t-92 -217t-35.5 -215.5zM193 469q4 63 25.5 146t61 170t100 170t144.5 149.5t191.5 106.5t242.5 42q63 0 102.5 -17t63 -44t32.5 -58.5t15 -60.5q6 -31 18.5 -54.5t26 -45t23.5 -41.5t12 -45q2 -23 11.5 -66 t9.5 -100q0 -55 -17.5 -122t-66.5 -136q-49 -72 -108.5 -140.5t-131 -124t-156.5 -88t-186 -30.5q-201 4 -313.5 101.5t-99.5 287.5zM346 588q-6 -49 20.5 -99.5t74.5 -90.5t110.5 -64.5t124.5 -24.5q63 0 113.5 12.5t90.5 31t72.5 38t61.5 31.5t38 27.5t4 27.5t-23.5 19.5 t-43.5 5.5q-25 -4 -58.5 -15.5t-72.5 -23.5t-81 -22.5t-83 -12.5t-78.5 11.5t-66.5 38t-46.5 58t-17.5 72.5t43 91.5t98.5 99.5t108.5 81.5t73.5 39t33 -5t20.5 -22.5t17.5 -25.5t23.5 -14.5q29 -2 47.5 25.5t28.5 62.5q6 16 2 36.5t-17.5 38t-39 31t-64.5 15.5 q-33 2 -82 -22.5t-104.5 -65.5t-111.5 -93.5t-103 -105.5t-78 -102t-35 -84z" />
<glyph unicode="&#xaa;" horiz-adv-x="989" d="M88 920q0 -80 65.5 -118t163.5 -38q49 0 101.5 24.5t101.5 57.5t90 66.5t68 52t42 16.5t26.5 -17.5t19.5 -41t18.5 -56t26.5 -48t34.5 -27t36 -10.5t29.5 3q25 6 24 49.5t-24 90.5q-10 23 -22 53.5t-22.5 65t-16.5 72.5t-4 75t0 61.5t-12.5 43t-33 33.5t-61.5 34 q-80 37 -161.5 5t-178.5 -103q-43 -31 -97 -74t-101 -90t-80 -94.5t-33 -85.5zM150.5 527.5q-5.5 -29.5 3 -62.5t40 -47.5t73.5 -15.5t85 10.5t72 32t67.5 29.5t81.5 12t86 3h84q39 0 56.5 17.5t15.5 40t-20 43t-47 26.5q-47 10 -111 11q-63 0 -128 -3t-125 -5.5t-99 2.5 q-41 4 -69 -7.5t-44 -34t-21.5 -52zM231 985q12 20 55.5 58t95.5 75t104.5 65.5t80.5 30.5q55 2 81 -19.5t-19 -74.5q-23 -29 -53.5 -63.5t-66.5 -66.5t-76 -55.5t-83 -27.5q-86 -10 -114.5 13.5t-4.5 64.5z" />
<glyph unicode="&#xab;" horiz-adv-x="1173" d="M63 313q0 -25 11.5 -41t35 -31.5t59.5 -30.5t83 -36q96 -43 172 -94t135 -86q57 -33 96.5 -15.5t55.5 60.5q16 41 10 71.5t-67.5 47t-151.5 54.5t-164 93q-37 27 -44 42t2 25.5t26.5 18.5t31.5 25q12 14 41 43.5t63 63.5t68.5 68t61.5 58q51 49 43 86t-39 74 q-16 18 -34.5 20t-37 -8t-36 -31.5t-28 -50t-46 -71.5t-81.5 -86t-94.5 -78t-80.5 -47q-47 -18 -69 -56.5t-22 -87.5zM593 428.5q1 -14.5 10 -30t31.5 -35t63.5 -46t89.5 -69.5t93.5 -87t81.5 -82t55.5 -52q37 -31 67.5 -8.5t42.5 69.5q6 23 -6 47.5t-37.5 51t-61.5 55 t-75 63.5q-41 33 -60.5 53.5t-27.5 36t-8 27.5q0 14 -2 34.5t16.5 41t45 41t55 40t51.5 37.5q20 18 36.5 39t21.5 45.5t-4 52t-42 60.5t-55.5 21.5t-39.5 -42t-29.5 -66.5t-23 -52.5t-36 -30.5t-56 -28.5t-65.5 -29t-63.5 -30.5t-44 -36.5t-21.5 -57.5q-4 -18 -3 -32.5z" />
<glyph unicode="&#xac;" horiz-adv-x="964" d="M68.5 528.5q23.5 -30.5 107.5 -55.5q41 -12 109.5 -9t140.5 12t135.5 22.5t97.5 23.5q33 8 46.5 9t15.5 -7t-2 -23.5t-6 -35.5q-2 -23 -6.5 -56.5t-7.5 -73.5t0 -85t17.5 -88t33 -68.5t39 -38t39 -13.5t32.5 9q29 18 25 54t-17 110q-6 37 -3 78t9.5 82t11.5 79.5t3 71.5 t-2 60t-3 49t-13.5 42.5t-30.5 41.5q-23 20 -46.5 16t-51 -19.5t-60.5 -36t-72 -34.5q-41 -14 -99 -19t-116.5 -4t-106.5 7t-67 16q-33 23 -63.5 17.5t-71.5 -54.5t-17.5 -79.5z" />
<glyph unicode="&#xad;" horiz-adv-x="536" d="M33 493.5q2 -24.5 14 -46t33 -23.5q47 -8 93 -6t95 6t100.5 6t110.5 -6q18 -2 31.5 13.5t19 35t-1 39t-24.5 23.5q-123 29 -224.5 29.5t-205.5 -5.5q-25 -2 -34 -21.5t-7 -44z" />
<glyph unicode="&#xae;" horiz-adv-x="1406" d="M59 606q0 -43 13.5 -105.5t43 -132t76 -139t114 -126t158.5 -92.5t207.5 -40t210 43t164 124t121 175.5t84 196.5t52 187.5t24.5 148.5t5 89t-6 45t-12 21.5t-14.5 19.5t-12.5 41t-5 83q-2 84 -63.5 129t-150.5 66.5t-188.5 25.5t-172.5 6q-106 2 -196.5 -35t-163.5 -98 t-127 -142t-91 -166t-54.5 -170t-15.5 -155zM154 596q0 49 12 118.5t38.5 144.5t67.5 149.5t101.5 133t139.5 97.5t181 41q43 2 97.5 1t93.5 -5t49 -14.5t-33 -28.5q-86 -37 -127 -58.5t-33 -50.5q4 -14 15.5 -20t24 -7t23.5 2t15 7q14 18 41 34.5t60.5 23.5t73.5 3 t85 -28.5t77 -49t49.5 -61.5t22.5 -95.5t-1 -152.5q-4 -63 -20.5 -140t-45 -155.5t-73 -153.5t-104.5 -132.5t-139 -90t-179 -28.5q-152 6 -251.5 58t-157.5 129t-81.5 165t-21.5 164zM387 918q0 -41 12.5 -85.5t26.5 -64.5q14 -18 29.5 -60t28 -90.5t21.5 -96.5t11 -79 q4 -63 17.5 -90.5t58.5 -38.5q20 -6 29.5 12.5t11.5 47t1 60.5t1 54q0 23 6 30t15.5 5t19.5 -9t20 -15q8 -8 39 -21.5t70 -29t82 -33t77.5 -31.5t56 -18.5t32 0t14.5 14.5t6 24q2 29 -12 61t-51 40q-18 4 -50 15t-69 26.5t-75 33t-66.5 34t-35.5 29.5t3 27.5t37.5 33 t66.5 49t62.5 53t33 44t5.5 43t-21 48.5q-14 25 -47 38t-73 16t-83 -4t-77.5 -19.5t-55 -16.5t-35 -1t-28 12.5t-35.5 19.5q-45 20 -62.5 -3.5t-17.5 -63.5zM575 768q-8 16 2.5 32.5t32.5 26.5q14 8 33 16.5t36 12.5t30.5 3t19.5 -9q10 -16 -5 -29.5t-54 -38.5 q-78 -45 -95 -14z" />
<glyph unicode="&#xaf;" horiz-adv-x="794" d="M41 934q0 -12 9 -24.5t27.5 -20.5t47.5 -9t68 9q37 10 104.5 15t139 7t135 1t92.5 -3q59 -4 79.5 16.5t14.5 49.5q-4 14 -8.5 30.5t-13.5 32t-25.5 25.5t-42.5 14q-18 2 -61.5 1t-100.5 -3t-122 -6t-123 -8t-104 -9t-67 -8q-18 -4 -28.5 -16t-14.5 -29.5t-5 -35t-1 -29.5 z" />
<glyph unicode="&#xb0;" horiz-adv-x="681" d="M53 1096q0 -23 12.5 -68t45 -92t88 -87t141.5 -48q86 -10 138 29.5t81 101t40 131.5t15 119q10 98 -28.5 143t-130.5 41q-80 -2 -153 -37t-128 -79t-88 -89t-33 -65zM209 1047q0 23 9 49t29.5 49.5t54.5 41t83 23.5q29 2 52.5 0t37.5 -17t16 -45t-12 -81t-30.5 -80 t-35 -42t-38 -15t-39.5 2q-20 2 -43 12t-41.5 25.5t-30.5 35t-12 42.5z" />
<glyph unicode="&#xb1;" horiz-adv-x="1167" d="M56 727q3 -27 14 -49q18 -47 49 -71.5t74 -18.5q20 2 58 14t84 27.5t94 31t91 25.5t63.5 8t27.5 -12t7 -25v-28q0 -29 -8 -81t-20 -87t-24.5 -102.5t-24.5 -135.5q-6 -33 -26.5 -45t-56.5 -14t-86 1t-114 1q-66 -2 -96.5 -4t-44 -9.5t-18.5 -22.5t-17 -42 q-12 -29 -6 -49.5t21.5 -33.5t38 -20.5t44.5 -7.5q20 0 63.5 6.5t95.5 16.5t109.5 23.5t108.5 28t113.5 23.5t122 15t108.5 6t74 -4q49 -10 64.5 2t21.5 60q2 23 -14.5 37t-48 20t-74.5 8t-92.5 0t-77 0t-42 8t-17.5 20.5t-3 37.5t6.5 73t15.5 108t18 112.5t17.5 87t29 50 t50 27t64.5 11.5t70 2t56 3t35.5 11t27 20.5t28.5 30.5t17 37t-8 34t-27.5 22.5t-38.5 5.5q-43 -6 -108.5 -21.5t-133.5 -15.5q-35 0 -42 19.5t-1 50t16.5 69.5t14.5 78q2 39 -2 61.5t-16.5 33.5t-34 14t-50.5 1q-96 0 -114 -106q-4 -29 4 -51.5t21.5 -44t26.5 -44t17 -49.5 q8 -55 -21.5 -71.5t-84.5 -30.5q-55 -16 -145.5 -19t-206.5 15q-57 8 -87 -2t-41.5 -31.5t-8.5 -48.5z" />
<glyph unicode="&#xb2;" horiz-adv-x="692" d="M46 1203.5q-3 -23.5 7 -44.5q23 -41 69 -44t87 28q39 29 46 11.5t7 -48.5q0 -16 -17.5 -50t-40 -74t-46 -78t-35.5 -60q-25 -47 7 -67.5t116 -14.5q41 2 103.5 22.5t124 44t111.5 44t66 24.5t17.5 18.5t-5 28.5t-17.5 23.5t-19 7.5q-16 -6 -67.5 -30.5t-141.5 -35.5 q-45 -4 -63.5 2.5t-23.5 18.5t-1 26.5t6 26.5t10 36.5t18.5 54.5t19.5 60.5t13 53.5q2 23 -3 44t-22.5 37.5t-47 26t-74.5 7.5q-70 -2 -113 -17.5t-65.5 -37t-25.5 -45z" />
<glyph unicode="&#xb3;" horiz-adv-x="630" d="M25 1188q10 -35 29.5 -42t68.5 17q47 25 72.5 22t9.5 -46q-4 -12 -7 -26.5t0 -26t14 -19.5t33.5 -10t51.5 -2t55.5 -3t47 -11.5t30.5 -28.5q14 -29 -12.5 -51.5t-69.5 -41t-88 -32t-67.5 -23.5t-25.5 -28.5t6 -37t24.5 -31.5t31.5 -13q14 0 45 12t70 31.5t81 42t83 45.5 q39 20 56.5 53t16.5 66.5t-17.5 63.5t-43.5 46t-42 26.5t-23.5 22t-8.5 25.5t5 41q10 53 -38 86t-139 33q-72 -4 -121 -22.5t-79.5 -43.5t-42 -50.5t-6.5 -43.5z" />
<glyph unicode="&#xb4;" horiz-adv-x="847" d="M71 873.5q3 -21.5 19 -45t39 -44t42 -24.5t37.5 5t41 28.5t51.5 48.5q29 27 90.5 85t129 121.5t132 119.5t99.5 83t37 54.5t-15.5 47t-45.5 25.5t-50 -8q-18 -14 -52 -48t-79 -78t-97.5 -93t-106.5 -93t-108.5 -76t-101.5 -42q-37 -8 -51 -26.5t-11 -40z" />
<glyph unicode="&#xb5;" horiz-adv-x="1075" d="M-117.5 -447.5q2.5 -19.5 16 -36t33 -28.5t36 -20.5t37 -2t37.5 20.5t29.5 33.5t14.5 38t14.5 52.5t29.5 75t35.5 84t31 79.5t21.5 80.5t18.5 90.5t16.5 90.5t17 83q8 39 21.5 51t27 9t26.5 -15.5t24 -24.5q23 -25 66.5 -53.5t84.5 -32.5t96.5 35t104.5 104q25 31 38 41 t21 5t11.5 -21.5t7.5 -36.5q2 -20 8 -55t12 -78t11.5 -87t9.5 -83q2 -39 18 -55.5t37 -16.5q23 0 48 12.5t48 30.5t22 51t-13.5 70t-31 75t-26.5 66q-10 29 -11 75t2 101.5t9 116t12.5 117.5t5 90t-10.5 49.5t-30.5 21.5t-54.5 7q-35 2 -53 -26.5t-30.5 -70.5t-20.5 -90.5 t-23 -87.5q-29 -78 -79 -123t-117 -49q-35 -2 -52.5 2.5t-26.5 15.5t-14.5 28.5t-13.5 44t-15 67.5t-12.5 86t-5.5 88t9 74q16 61 0.5 98t-62.5 33q-23 -2 -47.5 -9t-42.5 -24.5t-29.5 -46.5t-7.5 -72q2 -43 -8 -131t-28.5 -193.5t-42 -215t-44.5 -193.5q-23 -84 -48 -138 t-52 -94t-53.5 -73t-46.5 -72q-18 -18 -15.5 -37.5z" />
<glyph unicode="&#xb6;" horiz-adv-x="1087" d="M45 922q0 -72 48 -120t114.5 -79t137.5 -46t118 -18q45 -4 65.5 -7t26.5 -12t4 -29.5t2 -57.5q2 -37 3 -109.5t0 -156.5t-5 -167t-10 -140.5t13.5 -67.5t45 7.5t49 54t27.5 75.5q2 39 2 119t-1 168t-1 166t4 112q4 33 22.5 43.5t38 1t35 -32t15.5 -53.5t-5.5 -101.5 t-10.5 -152t-9 -161.5t0 -129q6 -98 33 -140.5t70 -31.5q41 10 39.5 54t-11.5 118q-4 37 -3 97t5 131t10.5 141.5t12.5 129.5q6 57 13 92t14.5 56.5t12.5 34t9 26.5q2 14 -7 32.5t-21.5 43.5t-24 53.5t-8.5 63.5q2 33 1 56.5t3 44t17 41.5t44 54t37 63t-4 52.5t-35 35.5 t-55 13q-45 12 -75 6t-54.5 -18t-48 -23.5t-56.5 -9.5t-53.5 -3t-48 -17.5t-69.5 -33t-115.5 -53t-139 -44t-115 -26.5t-78 -46t-28.5 -100zM221 901q2 14 30 32.5t65.5 36t77.5 34t69 28.5q27 12 50.5 24.5t38.5 15.5t23.5 -8t6.5 -44q0 -41 1 -86t-10 -74 q-10 -31 -39.5 -51.5t-95.5 -13.5q-33 2 -70.5 13t-71.5 26.5t-55.5 33t-19.5 33.5zM696 848q6 35 9.5 60.5t6.5 44t4 35t5 32.5q2 16 9 31.5t15.5 21.5t16.5 1t16 -30q6 -20 10.5 -47.5t6.5 -55.5t1 -52.5t-5 -36.5q-4 -14 -21.5 -29.5t-36 -21.5t-31 3t-6.5 44z" />
<glyph unicode="&#xb7;" horiz-adv-x="503" d="M104 561.5q-2 -16.5 12.5 -30t39 -22.5t56.5 -13t64 0q33 2 57.5 20.5t43 42t31 49t16.5 43.5q10 35 -23.5 64.5t-95.5 25.5q-39 -2 -74.5 -23.5t-63.5 -51t-44.5 -59t-18.5 -46z" />
<glyph unicode="&#xb8;" horiz-adv-x="659" d="M106.5 -86q-6.5 -29 5 -56.5t41 -50t87.5 -34.5q57 -10 99 -20.5t69.5 -24t41 -34t13.5 -52.5q0 -31 -22.5 -55.5t-54.5 -40t-68.5 -19.5t-63.5 4q-29 8 -51.5 5t-39 -12t-24.5 -21.5t-8 -24.5q0 -10 16.5 -21.5t44 -19.5t62.5 -13.5t72 -5.5t82 19.5t82.5 55.5 t64.5 84.5t27 103.5q0 57 -28 89.5t-65.5 51t-77.5 27t-67 16.5q-25 8 -44 24.5t-28.5 38t-7.5 44t23 44.5q18 20 21 39t-4 33t-21.5 22.5t-28.5 10.5q-47 6 -67.5 -9.5t-30 -42t-13.5 -56t-18 -50.5q-12 -20 -18.5 -49z" />
<glyph unicode="&#xb9;" horiz-adv-x="311" d="M66 1217q14 -29 26 -75t21.5 -96.5t15.5 -97.5t10 -76q2 -29 13.5 -50t27 -27.5t31 6t27.5 51.5t11 93t-8.5 109.5t-16.5 104.5t-11 78q-6 55 -36 78.5t-71 19.5q-94 -12 -40 -118z" />
<glyph unicode="&#xba;" horiz-adv-x="749" d="M51 516q-4 -47 12.5 -68.5t47 -27.5t70.5 2t83 24q43 14 79 20.5t73 8.5t79 3t97 5t73.5 24.5t12.5 44t-29.5 44.5t-52.5 27q-25 6 -64.5 5t-86 -4t-95.5 -6.5t-94 -3.5t-81 2t-61.5 -5t-42 -28.5t-20.5 -66.5zM109 971q2 -53 36.5 -95t86 -72t110.5 -45.5t110.5 -13 t88.5 28t61.5 65.5t36.5 86t10 87t7.5 64.5t18.5 43t13 41t-10 60.5t-25.5 65.5t-29 41.5t-46 22.5t-75.5 5.5q-53 2 -123 -31t-131.5 -87t-102.5 -124t-36 -143zM276 1016q2 27 15.5 56.5t31 53t38 39t38.5 15.5q27 0 50.5 -18.5t42 -45t29.5 -55.5t9 -49 q-4 -41 -27.5 -67.5t-90.5 -26.5q-68 0 -105 21.5t-31 76.5z" />
<glyph unicode="&#xbb;" horiz-adv-x="1320" d="M58 663q5 -24 22.5 -46.5t47.5 -40t71 -23.5t79.5 -23.5t72.5 -41t63.5 -49t54.5 -46.5q25 -23 32 -35t4 -20t-13.5 -13.5t-22.5 -13.5q-12 -6 -40 -24.5t-64.5 -40t-79.5 -42t-82 -28.5q-41 -10 -59.5 -27.5t-21.5 -39t8 -43t31.5 -38t44 -26.5t51.5 -7t56.5 19.5t57 51 t71.5 68.5t89.5 62.5t87 51.5t67.5 39q51 31 41 79t-53 85q-20 18 -72.5 52t-115 74.5t-125 85t-105.5 82.5q-31 29 -61.5 33t-57 -6t-46 -29.5t-28.5 -37.5q-10 -18 -5 -42zM655.5 725q6.5 -25 24.5 -45.5t51 -28.5q31 -10 54.5 -21.5t46 -26.5t46 -36.5t58.5 -50.5 q33 -29 45 -48t11 -34.5t-11 -29t-20 -27.5q-10 -16 -35 -40t-52.5 -49.5t-54 -51t-43.5 -43.5q-35 -37 -38 -81t34 -75q18 -16 37.5 -28.5t38.5 -12.5q20 0 37.5 19.5t34.5 66.5q14 47 50 89t79 77t83.5 64.5t69.5 52.5q27 23 44.5 37t20.5 27t-11.5 29.5t-53.5 45.5 q-39 27 -88 68.5t-97 84.5t-90 83t-64.5 67t-47 36t-48.5 7t-45.5 -13.5t-39.5 -25.5q-18 -16 -25.5 -38.5t-1 -47.5z" />
<glyph unicode="&#xbc;" horiz-adv-x="1236" d="M7 -138.5q1 -25.5 9.5 -44t20.5 -26.5q23 -14 49.5 12.5t36.5 69.5q2 14 22.5 59t49 111t64.5 142.5t72 153.5t68.5 147.5t55.5 119.5q33 76 87 171t111.5 184.5t109.5 162t81 101.5q59 59 73 99t-4 56q-47 -2 -75.5 -8t-47 -18.5t-27.5 -29.5t-17.5 -42t-55.5 -99.5 t-107.5 -167.5t-120 -189.5t-89.5 -166.5q-20 -47 -49 -109.5t-62 -132t-66.5 -140t-63.5 -131t-54.5 -105.5t-36.5 -66q-20 -29 -27.5 -58.5t-6.5 -55zM78 1362.5q2 -21.5 12 -40.5t21 -28q8 -8 13 -23.5t8 -43t5 -68.5t6 -98q4 -59 14.5 -89t24 -42t31 -13t37.5 1t23 37.5 t-2 91t-12 121t-9 127t-11.5 91t-24.5 39t-35.5 6t-43.5 -5.5q-35 -4 -47 -22.5t-10 -40zM442 268q0 -20 8.5 -38.5t21.5 -31t27.5 -10.5t52.5 3.5t81 1.5h80h53t18 -20.5t4 -49.5t-3 -60.5t-3 -54.5t1 -44t7.5 -36.5t22.5 -23.5t47 -6q45 2 57.5 35.5t8.5 78.5t-15.5 89 t-9.5 67q4 47 30.5 54t92.5 11q33 2 65.5 12.5t58.5 28t40 38.5t12 44q-4 23 -24.5 27t-48 -2t-59.5 -19.5t-56 -21.5q-49 -18 -78 -14t-29 39t5 65.5t28 65.5q10 16 17.5 38.5t7.5 45.5t-7.5 43t-21.5 32q-31 35 -60.5 24t-46.5 -52q-31 -78 -172 -176q-35 -25 -70.5 -51.5 t-64 -48t-46.5 -35.5l-19 -13q-12 -14 -13 -35zM690 345q-2 7 10 20q25 25 38.5 33t31.5 8q8 0 12 -11.5t2 -26t-9 -25.5t-21 -11h-29q-14 0 -23.5 3t-11.5 10z" />
<glyph unicode="&#xbd;" horiz-adv-x="1277" d="M72 1198.5q-2 -18.5 7 -38t23.5 -38t22.5 -56.5t13 -84t6 -98.5t-1 -97.5q-4 -92 10.5 -123.5t67.5 -19.5q25 6 37 18.5t16.5 31t1 39.5t-5.5 46q-4 25 -7 75t-6 107.5t-4 112.5t1 90q2 70 -31 90.5t-76 8.5q-39 -12 -56 -28.5t-19 -35zM95 -44.5q5 -21.5 17.5 -29.5 t26.5 -8t22.5 -1t14.5 6t10 27.5t11 61.5q4 27 26.5 77t55 111.5t72.5 127t78 124t72 105.5t52 70q29 33 79 95t104.5 130t104.5 131.5t80.5 102t43 63.5t12.5 39q0 16 -8.5 25.5t-18.5 19.5q-51 4 -76.5 -2t-38 -20.5t-13.5 -35t-3 -45t-28.5 -69.5t-69.5 -100.5 t-94.5 -118t-102.5 -121.5t-110.5 -137t-114.5 -161t-101 -162t-71 -142.5t-31 -102.5t-1 -60.5zM601.5 72.5q6.5 -19.5 28 -34.5t51.5 -26.5t56 -19.5q27 -10 99.5 -8t155.5 11t155.5 21.5t97.5 24.5t22 28.5t-19.5 29t-40 18.5t-40 -2.5t-55.5 -10.5t-88 -1t-100.5 3.5 t-92 4.5t-56 9t-15.5 17q0 12 10 25.5t21 25.5q8 12 27.5 37t44 57.5t51 69.5t53.5 74q25 37 29.5 68.5t-5.5 54t-32.5 35t-49.5 10.5q-37 -4 -64.5 -7t-52 -8.5t-48 -11.5t-52.5 -14q-57 -18 -70.5 -45t9 -57.5t71 -25.5t97.5 34q25 12 36 8t13 -17.5t-4 -32t-17 -32.5 q-10 -16 -36.5 -49t-57.5 -73t-62.5 -79l-52.5 -65q-23 -27 -16.5 -46.5z" />
<glyph unicode="&#xbe;" horiz-adv-x="1458" d="M29 1164.5q-2 -25.5 10 -46t45 -16.5q18 2 42 9t46.5 12t38.5 5q18 0 25 -14q4 -12 -24 -31.5t-71 -38.5q-23 -10 -34 -29.5t-6 -39t30 -33.5t76 -12t95 1t78 -11.5t54.5 -33t22.5 -63.5t-24.5 -83t-70 -75.5t-94.5 -57t-98 -30t-63.5 -24.5t-9.5 -37.5t33 -35 t60.5 -13.5t80.5 23.5t93.5 56.5t91 78t74.5 88t34 97t-15.5 98t-58 79t-95 37t-64.5 16.5t6 29.5t47 38.5t60 46.5q55 49 40 77t-68 34q-27 2 -71 1t-93 -5.5t-95 -9.5t-73 -11q-25 -4 -39 -27.5t-16 -49zM262 -55.5q-4 -48.5 19 -71.5q10 -10 35.5 5.5t56 42t65.5 57 t63.5 51t29.5 38t-8 34t-19 33t-6 34.5q2 12 43 74.5t102.5 152.5t134 195.5t138 201t115.5 169t69 100.5q103 164 37 184q-61 18 -86 -4t-37 -94q-4 -23 -53.5 -106t-122 -196.5t-157.5 -241.5t-162 -240.5t-134 -195.5t-72 -106q-47 -68 -51 -116.5zM654 254 q-11 -37 8 -78q8 -18 43.5 -21t80.5 0t92.5 9t82.5 4q33 -2 46 -13.5t14 -28.5t-4 -37.5t-7 -39.5q-4 -37 23.5 -54.5t74.5 -10.5q23 2 38 18t24.5 40t12.5 50.5t3 50.5q0 25 1 36t5 15.5t14 4.5t28.5 2t50.5 9t62.5 17.5t53 24t22.5 27.5t-21.5 25t-53 19.5t-67.5 11.5 t-62 1q-29 -4 -35 11t-3 40t12 56.5t13 60.5q8 57 26.5 95t55.5 93.5t35 79t-31 35.5q-33 14 -47 14t-23.5 -13t-21.5 -41t-39 -67q-29 -41 -84 -95t-117.5 -108.5t-123 -99.5t-97.5 -65q-74 -41 -85 -78zM892 323.5q-24 4.5 19 33t68 42t43 35.5q6 8 15.5 12.5t15.5 0 t8 -17.5t-6 -40q-4 -16 -5 -29.5t-7.5 -22.5t-20.5 -13.5t-45 -4.5q-61 0 -85 4.5z" />
<glyph unicode="&#xbf;" horiz-adv-x="798" d="M25 -158q-2 -39 23.5 -81t70.5 -77.5t105.5 -60t127.5 -26.5q68 -4 133.5 32.5t119.5 88t92 104.5t48 86t3 52.5t-25 24.5t-41 -7.5t-43.5 -45t-40.5 -63.5t-51 -55.5t-78 -42t-117 -19.5q-72 -4 -108.5 13.5t-54 43t-19.5 54t-2 49.5q0 20 25.5 56t62.5 75t80 75t78 56 q94 53 133 112.5t43 145.5q2 43 -9.5 87t-26.5 84t-31.5 69.5t-26.5 46.5q-12 25 -26.5 32t-32 4t-37 -13.5t-40.5 -22.5q-43 -25 -47 -53.5t19 -69.5q10 -20 30.5 -34.5t39 -31t33 -40t12 -62.5t-31 -76t-68.5 -70.5t-85 -63.5l-78 -52q-35 -25 -63.5 -64t-49 -84 t-32.5 -91t-14 -85zM352 1034q0 -18 17.5 -48t40 -57.5t45 -48t33 -18.5t27.5 22.5t32.5 48.5t28 57.5t14.5 47.5t-8.5 40t-26.5 40.5t-37.5 29.5t-42.5 9q-16 2 -36.5 -10t-40 -30.5t-33 -41t-13.5 -41.5z" />
<glyph unicode="&#xc0;" horiz-adv-x="1107" d="M51 39q-8 -61 11.5 -85t46.5 -24q29 0 55 16.5t34.5 35t24 47t33.5 62.5t34.5 69t26.5 63q8 29 25.5 44.5t37 23.5t41 13t40 13.5t50.5 13.5t68.5 9t76.5 7t75 7q35 2 50.5 -5t21.5 -20.5t6 -31.5q0 -16 4 -32.5t19.5 -55.5t34 -84t36 -88t25.5 -67.5t25.5 -38t38 -16.5 t38 5.5t25.5 24.5t15 29.5t9 28.5t-4 34.5t-24.5 50.5t-39 72t-38 82t-29.5 76.5t-12 56.5q0 20 5 33.5t6 25.5t-6 27.5t-29.5 40t-39 63.5t-30 85t-27.5 92t-31 83q-35 72 -43 137.5t2 112.5q4 23 9.5 38t4.5 28.5t-13.5 27t-41 34t-69.5 54t-84 71.5t-81 77t-60.5 67.5 t-52 45t-58.5 19.5t-54.5 -5t-39.5 -27q-16 -18 -25.5 -43.5t-3.5 -52.5t32.5 -52.5t82 -44t79 -31.5t39 -28.5t34 -38t65.5 -57.5q45 -35 59 -52.5t10 -29.5t-19 -29.5t-26 -52.5q-8 -25 -33.5 -83t-60.5 -135t-75 -163t-76.5 -163.5t-64.5 -138t-38 -87.5 q-16 -39 -35.5 -60.5t-38 -37.5t-34 -34.5t-19.5 -51.5zM461 500q0 16 20 51q43 72 64.5 117t34.5 67q6 10 11 27.5t14 26t21.5 -1t35.5 -48.5q10 -23 29.5 -61.5t31.5 -78.5t11 -73t-32 -41t-52 -11t-40 -3q-18 0 -33.5 1t-33.5 1t-38 -1t-32 5t-12 23z" />
<glyph unicode="&#xc1;" horiz-adv-x="964" d="M14.5 -110.5q20.5 -59.5 81.5 -71.5q31 -6 49.5 12t29.5 48t16.5 63.5t7.5 56t14 48.5t29.5 53.5t35 57t27.5 62.5t18.5 48.5t17.5 21.5t22.5 9t35.5 11q41 14 102.5 9t114.5 -5q51 0 65.5 -3t21 -33.5t21.5 -90t28 -131.5q6 -35 22.5 -53t34.5 -25.5t37.5 -8.5t32.5 1 q25 4 32 32t-28 75q-16 23 -24.5 57.5t-13.5 77.5t-10.5 90t-17.5 94t-25.5 111.5t-25.5 132.5t-21.5 131.5t-13.5 108.5t-23.5 83.5t-44 67.5t-50 46.5t-42.5 19.5q-20 2 -44.5 -3.5t-47 -19.5t-41 -37.5t-27 -58.5t-21.5 -80t-28.5 -91t-33 -90t-31.5 -79 q-31 -72 -70 -145.5t-45 -133t-38.5 -127t-92.5 -176.5q-57 -106 -36.5 -165.5zM326 1301q2 -35 36 -95q16 -29 37 -35t43.5 1.5t47 23.5t49 34.5t66.5 44t88 51.5t88 49.5t65 39.5q47 31 48 60.5t-11 58.5q-6 12 -23.5 18.5t-41 4t-49.5 -12.5t-46 -26q-23 -16 -65 -41 t-92 -49.5t-101 -46t-90 -31.5q-51 -14 -49 -49zM415 525.5q3 19.5 17 54t28.5 60.5t27 47.5t20.5 41t10 44t12.5 39.5t24.5 17t29.5 -12t27.5 -49q29 -80 35 -142.5t6 -99.5q0 -18 1 -31.5t-2 -22.5t-14 -12t-38 1q-53 6 -88 15t-59 9q-12 0 -22.5 1t-14.5 10.5t-1 29z" />
<glyph unicode="&#xc2;" horiz-adv-x="909" d="M72.5 1312.5q9.5 -24.5 35 -48t60.5 -43.5q35 -18 64.5 -7t54 35.5t43 54t31 48t18.5 32t14 21.5t22.5 11t43.5 1q27 -4 39 -22.5t19 -44t17.5 -53t34.5 -48.5q49 -41 85 -47t79 43q20 25 21 41q0 16 -12.5 30.5t-32 29t-38 35t-42 55t-48 71.5t-46 70t-35.5 49 q-18 33 -41 43t-45.5 1t-42 -31.5t-31.5 -53.5q-25 -61 -87.5 -112.5t-133.5 -79.5q-35 -14 -45.5 -35t-1 -45.5zM79.5 20.5q20.5 -49.5 67.5 -61.5q23 -6 39.5 8.5t29.5 45t25.5 72.5t28.5 91q14 49 36 70.5t47.5 28t57 3t68.5 -3.5q74 0 113 -12t76 -29q18 -8 28.5 -30.5 t14.5 -55t4 -73.5q0 -39 -2 -78q-2 -41 8 -70.5t25.5 -49t36 -28t40.5 -4.5q18 4 26.5 28t8.5 54q0 31 -7.5 66.5t-19.5 64.5t-24 93.5t-23.5 135t-20.5 133t-17.5 89.5t-30 103.5t-46 166.5t-46 173t-29.5 122q-10 47 -33.5 81t-77.5 34q-53 0 -77.5 -38t-53.5 -118 q-14 -41 -29.5 -123t-34 -173t-43 -172t-57.5 -118q-31 -37 -45 -68.5t-20 -65t-12.5 -70.5t-20.5 -82q-31 -90 -10.5 -139.5zM398 430q1 16 12 57q18 80 37.5 142.5t31.5 120.5q6 29 12.5 53t14.5 33.5t16 -4t19 -58.5q6 -29 21.5 -77t32.5 -99t30.5 -97.5t17.5 -66.5 q6 -43 2 -61.5t-51 0t-80 28t-68 9.5q-16 0 -27 -3.5t-16.5 2t-4.5 21.5z" />
<glyph unicode="&#xc3;" horiz-adv-x="1112" d="M-3 1151q3 -21 16.5 -38t33 -30.5t41.5 -17.5q41 -10 56.5 30t33.5 126q8 43 26.5 66.5t43 33.5t57.5 12t74 2q39 0 64.5 -12t44 -28.5t36 -32t40 -21.5t48.5 -6q29 0 55.5 9t49 25.5t35.5 45.5q12 27 38.5 58.5t55 63t55.5 61t39 54.5q25 47 5.5 64.5t-50.5 5.5 t-78 -37.5t-102 -97.5q-29 -35 -54.5 -51.5t-50 -19.5t-45 7.5t-35.5 26.5q-29 33 -76.5 43t-119.5 10t-117 -10t-80 -59q-33 -47 -60.5 -108.5t-70.5 -133.5q-12 -20 -9 -41zM53.5 13.5q12.5 -21.5 37 -31t54 -6t45.5 19.5q16 14 28.5 43t22 62.5t16.5 70.5t15 70 q31 131 152 143q31 2 52.5 9t45 16.5t55 20.5t85.5 24q51 12 75.5 9t34.5 -13.5t14.5 -25.5t14.5 -27.5t24.5 -44t28.5 -74.5t26.5 -93.5t18.5 -99.5t18.5 -75.5t31 -38t41.5 -9.5t52 12q29 8 31 46t-11 90.5t-37 112t-48 112.5q-25 51 -26 86t0 59.5t-6 43t-42 37t-55.5 50 t-36.5 71.5t-31.5 83t-40 82t-42 76t-34 73.5t-37 76.5t-51 85t-56 60.5t-49.5 11.5t-46.5 -23.5t-45 -44t-28.5 -47t-4 -48.5t8 -54.5t8.5 -63.5t-18 -101.5t-48.5 -140t-56.5 -143t-45 -110.5t-32 -90.5t-30.5 -100.5t-33.5 -101t-39.5 -93q-18 -35 -5.5 -56.5zM394 614.5 q-1 14.5 9 40.5q18 55 33 108.5t37.5 100.5t44 54.5t45.5 -41.5q10 -23 24.5 -52.5t28 -58.5t26 -53.5t20.5 -32.5q8 -10 16 -25.5t11 -31t-4 -27.5t-28 -14q-43 -4 -89 -5.5t-95 5.5q-25 2 -42 4t-26.5 8t-10.5 20.5z" />
<glyph unicode="&#xc4;" horiz-adv-x="983" d="M77 456.5q-5 -22.5 3 -48t35 -39.5q27 -16 36 -26.5t8 -20t-8.5 -19.5t-15.5 -24q-16 -31 -28.5 -98.5t-24.5 -160.5q-4 -41 5 -57t23.5 -17t32 10t33.5 28q14 16 30.5 54t32 82t28 87t16.5 72q4 27 14 40t24.5 19t32 9t35.5 9q37 12 88 23.5t117 34.5q33 10 48 7 t21.5 -15.5t8.5 -30t8 -35.5t21.5 -73.5t36 -121t45 -130t49 -101.5t42 -47t28.5 -2t16.5 29.5t7.5 48.5t-13.5 83t-37 117.5t-44 117.5t-37 83t-14.5 45t8.5 35.5t21.5 35t30 40.5q31 45 29.5 67.5t-70.5 26.5q-35 2 -53.5 5t-27.5 12.5t-12.5 24.5t-9.5 44q-6 27 -17 96.5 t-23.5 150.5t-27 157.5t-26.5 119.5t-44 58.5t-65.5 12.5t-62.5 -23.5t-33 -47.5q-4 -18 -17 -64t-32.5 -105.5t-41 -127t-41 -130t-33 -114t-15.5 -77.5q-4 -41 -10 -58.5t-16.5 -23.5t-24.5 -3t-35 7q-20 2 -34.5 -13.5t-19.5 -38zM184 1511q-4 -35 16.5 -60.5t45 -21 t52.5 27.5t34 54q2 14 -1 36t-12.5 41.5t-24.5 33.5t-36 16q-20 -2 -33.5 -15t-21.5 -32.5t-12.5 -41t-6.5 -38.5zM337 507q-3 7 1 19.5t10 30.5q12 31 32.5 90.5t42 121.5t37 116.5t19.5 77.5q2 20 9.5 47.5t15.5 43t17 7.5t20 -57q8 -49 17 -105.5t16.5 -108t14.5 -91.5 t13 -56q12 -35 11 -61.5t-35 -44.5q-37 -18 -79 -34t-102 -11q-29 2 -43 5t-17 10zM766 1569q-16 -53 4.5 -92t61 -27t69.5 44t33 87t-19.5 91t-54.5 36q-23 2 -38 -10t-24.5 -31.5t-16.5 -45.5t-15 -52z" />
<glyph unicode="&#xc5;" horiz-adv-x="1064" d="M78 -56q-2 -48 2 -90t15 -68t32 -22q18 4 37.5 36t34 76t23.5 94t7 93t3.5 71t15.5 46.5t27.5 33.5t39.5 34q47 37 136.5 70.5t187.5 56.5q49 10 75.5 1t43 -30.5t31 -50.5t38.5 -55q49 -55 70 -104.5t-16 -72.5q-18 -10 -20.5 -26.5t9 -29.5t35 -20t58.5 3q33 8 49 38.5 t17 67.5t-10 75t-32 65q-23 27 -53.5 79t-67.5 116.5t-79 134t-82.5 129t-57 100.5t-23 71.5t-10.5 57t-20 57.5q-20 37 -28.5 58.5t-5.5 37t15.5 27.5t31 32.5t33.5 38t26.5 39t17.5 47t4 60.5q-2 33 -21.5 72t-50 72.5t-70.5 55t-79 21.5q-47 0 -80 -10t-58.5 -27.5 t-47 -42t-44 -51.5t-27.5 -64.5t1 -77.5t21.5 -76t37.5 -56q20 -23 18.5 -81.5t-17 -129t-35 -137t-31.5 -103.5q-6 -16 -15.5 -63.5t-20.5 -110.5t-24.5 -137t-24.5 -141.5t-20.5 -122t-13.5 -80.5q-6 -39 -8 -87zM324 1309q12 53 47 85.5t84 28.5q47 -4 78.5 -45t31.5 -82 t-31.5 -64.5t-74.5 -29.5q-23 -4 -48.5 3t-47 21.5t-34 36t-5.5 46.5zM332 472q2 13 8 29.5t17.5 68t23.5 109.5t21.5 109.5t11.5 70t6 44t13 37.5t22.5 2t36.5 -63q8 -31 24 -74t34.5 -85t36 -78t27.5 -54q18 -37 24.5 -61.5t-32.5 -37.5q-20 -6 -45.5 -5t-54.5 1t-57.5 -3 t-55 -17t-40 -16.5t-18.5 4t-3 19.5z" />
<glyph unicode="&#xc6;" horiz-adv-x="1609" d="M51.5 26.5q-26.5 -75.5 7.5 -141.5q16 -33 37 -42t41.5 -1t41 33t36.5 59.5t32.5 62.5t27 53.5t12.5 51t-11 58.5q-12 31 1.5 66.5t38 73.5t56 76t56.5 74.5t57.5 50t68.5 16.5t72 1t68.5 2t47 -3t20.5 -24.5t5 -43t1 -56.5t7 -55.5t8 -46t1 -42t-16 -40.5 q-29 -43 -27 -86t39 -103q18 -29 46 -36t60 -2.5t65.5 16.5t62 22.5t78 19.5t105.5 16t112.5 14.5t101.5 15.5q88 16 117 48t35 79t-28 62.5t-95 -25.5q-31 -18 -86.5 -26.5t-117.5 -9.5t-123.5 0t-102.5 -1t-60.5 23.5t-28 62.5t-10.5 79t-8 72.5t-5 52t10.5 38t28.5 30 t52 27.5q31 14 83 23.5t108.5 15.5t107.5 9t82 5t34 22.5t-12.5 46t-42 49.5t-53 30t-62.5 0t-77 -18.5t-86 -27t-90 -24.5t-68.5 -11t-35 4t-15.5 13t-12 19q-16 18 -22.5 67t-22.5 129q-8 39 19.5 64.5t74.5 41t106.5 25t114.5 17.5q109 14 203 6t174 -10q39 -2 49 18.5 t3 48t-25.5 54t-34.5 39t-78.5 13.5t-143.5 -6.5t-166 -20.5t-149 -28q-63 -16 -97 -18t-52.5 4t-28.5 20.5t-26 30.5q-41 39 -80 33t-73 -34.5t-58.5 -67.5t-34.5 -66q-10 -25 -8 -56.5t6 -68.5t6 -78t-8 -84q-23 -84 -46.5 -116.5t-56.5 -38.5q-16 -4 -30.5 -3t-31 -3 t-37 -17.5t-49 -42t-38.5 -51.5t-7 -42t15 -36.5t26.5 -38t9.5 -46t-22.5 -56.5t-44 -68t-53.5 -80q-55 -86 -81.5 -161.5zM587.5 688q-20.5 12 4.5 86q8 23 18.5 46.5t21.5 34.5t21.5 4t20.5 -44q8 -37 13 -53.5t3 -24.5t-11 -13t-30 -19q-41 -29 -61.5 -17z" />
<glyph unicode="&#xc7;" horiz-adv-x="1222" d="M82 565q0 -133 32.5 -228t84 -159.5t112 -101.5t115.5 -51q35 -10 49 -19.5t17.5 -22t0 -29.5t-5.5 -40t2.5 -43.5t25 -36.5t62 -29.5t115.5 -21.5q74 -10 119 -15.5t69.5 -14.5t33 -22.5t8.5 -37.5q0 -25 -16.5 -42.5t-44 -33.5t-65.5 -34.5t-79 -45.5q-41 -25 -36 -42 t31.5 -24.5t62.5 -5t56 14.5q23 14 61 36.5t75 51.5t65.5 61.5t32.5 67.5q8 68 -66.5 120t-203.5 64q-66 6 -94.5 11.5t-37 14.5t-2 26.5t10.5 46t54 65.5t115.5 74t132 69.5t107.5 53.5q39 20 37 43.5t-23.5 42t-53 26.5t-50 -6t-58.5 -44t-94.5 -60.5t-122 -56t-141 -29.5 t-138 18.5t-111.5 74.5t-71 136t-17 203q4 82 40.5 156.5t92 139t125 117t139.5 90t134.5 60.5t111.5 29q31 2 47 -3t25.5 -20.5t14.5 -40t9 -57.5q4 -35 27.5 -47.5t49 -7t47 27t23.5 56.5t-15 79.5t-51 84.5t-80 64.5t-104 20.5q-82 -6 -172 -41.5t-178 -93t-168 -132.5 t-141 -159t-97 -173t-36 -175z" />
<glyph unicode="&#xc8;" horiz-adv-x="1048" d="M24.5 897q-4.5 -23 8 -44.5t33 -40.5t42 -35.5t35.5 -31.5q8 -10 14.5 -48t9.5 -92t4 -116.5t1 -121.5v-109v-70q0 -35 -9 -48t-20.5 -22t-19.5 -20.5t-4 -44.5q2 -33 11 -53t29.5 -31.5t55.5 -12.5t88 7q35 4 89 17.5t117.5 31t129.5 37t124 38.5t104 35.5t67 29.5 q33 16 34 40.5t-17.5 44t-48.5 27.5t-58.5 -6t-78.5 -29.5t-108.5 -28t-118 -22.5t-104.5 -14q-47 -4 -75.5 -6t-46 2t-23.5 16t-6 37v63v80q0 43 -1 82t-3 62q-4 23 9 40t35.5 29.5t52.5 18.5t62 10q33 2 109 8t158.5 13.5t152 15.5t92.5 16q20 8 28.5 26.5t6.5 38 t-14.5 37t-32.5 21.5q-18 4 -74.5 1t-127 -9t-144.5 -12t-129 -8.5t-90 -1.5t-55.5 11.5t-27.5 34t-7 66.5t39.5 71.5t95 49t115 35t98.5 29t69 14.5q33 0 62 -5.5t54.5 -12.5t51.5 -9q53 -4 66.5 33t-21.5 98q-16 31 -54 38t-88 1t-110.5 -22.5t-119.5 -32.5 q-121 -35 -207 -61.5t-150 -16.5q-47 6 -75.5 -10.5t-46 -44t-25.5 -59t-12.5 -54.5zM148 1474.5q-5 -22.5 45 -69.5q25 -23 78 -45.5t114 -41t120.5 -32.5t96.5 -20t55.5 7t21.5 33.5t-8 43t-36 34.5t-65 33t-85 44.5t-89 47t-77 43.5q-16 10 -34 11q-16 0 -34 -6.5 t-35 -16.5t-32 -20q-31 -23 -36 -45.5z" />
<glyph unicode="&#xc9;" horiz-adv-x="1204" d="M70 1012q0 -23 14 -42.5t30.5 -41t32 -47t19.5 -62.5q2 -25 6 -82t9 -131t10.5 -154.5t9.5 -155.5t4 -134q0 -57 -2 -84q-10 -80 21.5 -113t135.5 -43q102 -10 218 -3t221.5 21.5t190.5 31t128 24.5q14 2 27.5 26.5t15.5 50t-10 44t-45 10.5q-115 -29 -243 -41t-236 -23 q-47 -4 -81 -8t-60.5 -1t-50 17.5t-50.5 47.5t-38 78t-16 96t-6 107.5t-5.5 109.5t0 75.5t15.5 30t27.5 8.5t37 11t79 26.5t132 32t151.5 27.5t137 16q57 2 74.5 21.5t9.5 44t-35.5 48t-58.5 34t-83 2.5t-114.5 -25.5t-129 -38t-124 -33t-84 -11.5t-37 15.5t-10.5 41.5 q0 29 -4 69.5t0 63t18.5 38t37 28t55.5 34.5q66 43 166 48t202 1q51 -2 73 18.5t22 47.5t-20.5 50t-53.5 28q-66 2 -112 -2.5t-86 -13.5t-79 -19t-88 -18.5t-79.5 -11.5t-53.5 -3t-41 1t-43 1t-51.5 -20.5t-49 -49t-36.5 -60.5t-14 -54zM326.5 1366.5q5.5 -23.5 28 -37.5 t56 -11t62.5 35.5t70 58.5t86 47.5t89 40.5t79 42q35 20 41 46t-6.5 46.5t-39 30.5t-59.5 2q-31 -10 -87 -43t-115.5 -73t-110.5 -78.5t-72 -59.5q-27 -23 -21.5 -46.5z" />
<glyph unicode="&#xca;" horiz-adv-x="1155" d="M105 100.5q-1 -18.5 6.5 -40t17.5 -46t44 -34t80 -10.5t99.5 2t104.5 5.5t119.5 15.5t139 28.5t133 31t103.5 19.5q80 10 107.5 26t23.5 39q-2 10 -6 24.5t-16 27t-31.5 17.5t-52.5 -3t-97.5 -17.5t-137 -18.5t-141.5 -17.5t-107 -12.5q-41 -4 -60.5 22.5t-28 66.5 t-8.5 81q0 43 2 72q2 27 23.5 40t56.5 18t78 5q45 0 92 2q92 4 182.5 6.5t145.5 -14t61 13t-4 97.5q-4 33 -57 44t-128 10t-160 -8t-154.5 -9t-105.5 1t-53.5 12t-21.5 25.5t-8 43t-4 41.5q0 14 8 26t23.5 24.5t42.5 35.5q27 20 75 40.5t99 38t96 30.5t66 22q18 8 41.5 -0.5 t48 -19.5t49 -20.5t45.5 -4.5q33 8 43 26.5t7 42t-16.5 50t-25.5 49t-55 25.5t-98.5 -6t-115 -26.5t-104.5 -33.5q-92 -35 -173 -69t-134 -34q-43 14 -63.5 -13.5t-50.5 -76.5q-14 -25 -26.5 -37t-13.5 -26.5t10 -39t46 -69.5q33 -47 30 -78t-15.5 -52.5t-19.5 -35.5t21 -26 q27 -12 39 -20.5t18.5 -25t11.5 -49t21 -94.5q14 -61 10.5 -82.5t-21 -24.5t-44.5 3t-55.5 -2.5t-42 -21.5t-14.5 -31.5zM146 1280.5q-5 -18.5 2.5 -37t22.5 -33t36 -20.5q37 -10 89 -11t83 3q14 2 19 22.5t7.5 45t5.5 45t17 22.5t24.5 -11.5t22.5 -32t28.5 -41t43.5 -38.5 q53 -35 92 -27t76 39q18 14 1.5 40t-48 53.5t-68.5 54t-57.5 45t-32.5 49.5t-25.5 65.5t-33 68.5t-56.5 58.5t-57.5 27.5t-30.5 -9t-13 -34.5t-5 -49.5t-12.5 -66t-27 -78.5t-35.5 -72.5t-40 -45q-23 -14 -28 -32.5z" />
<glyph unicode="&#xcb;" horiz-adv-x="1038" d="M73 949.5q-1 -15.5 6 -39t23 -60.5q25 -59 29 -103.5t2 -78t-4 -58t10.5 -43t18.5 -46t10 -63.5t8 -77t12.5 -84t11.5 -65.5t2 -37t-7.5 -24.5t-18.5 -25q-12 -16 -14 -39.5t2 -50t14 -52.5t22.5 -46t46.5 -22.5t73.5 4t76.5 17.5t58 17q12 4 50 14.5t88 25t107.5 29.5 t109.5 31.5t94.5 31t62.5 24.5q31 14 32.5 27.5t-14.5 22.5t-47 15.5t-70 8.5t-91 -4t-107.5 -13.5t-106.5 -14.5t-88 -9q-74 -4 -102.5 -1t-36.5 46q-10 41 -17.5 96t-11.5 133q-2 39 4 55.5t18.5 22.5t28 7t32 5t57 12.5t94 17.5t112 15.5t109.5 8.5t78.5 7t40 17 t14.5 32.5t2 49.5t-21.5 42t-52 15t-61.5 -5t-49 -15q-18 -10 -53 -14t-79 -7.5t-91.5 -7.5t-88.5 -12t-61 -8t-27.5 7t-7.5 21q0 16 2 41q4 49 47 86t121 54q39 8 74 19t68.5 20.5t66.5 11.5t66 -6q31 -10 50 -7t29.5 12t13.5 21.5t5 22.5q4 23 -17.5 56.5t-89 37.5 t-140.5 -1t-150 -40q-76 -35 -126.5 -39t-99.5 19q-45 35 -114 -13q-18 -12 -27.5 -22t-10.5 -25.5zM143 1278q0 -31 37 -51.5t86 -26.5q25 -4 47.5 5t41 25.5t28.5 37t10 43.5q0 20 -14 36.5t-34.5 25.5t-44.5 14.5t-42 5.5q-23 0 -44 -12.5t-36.5 -30t-25 -38t-9.5 -34.5z M446 1278q-6 -35 33 -50.5t86 -15.5q23 0 47.5 9.5t44 25t33 32t15.5 32.5q2 14 -5.5 33.5t-20.5 37t-33.5 29.5t-47.5 14q-35 2 -62.5 -14t-46 -39.5t-29.5 -50.5t-14 -43z" />
<glyph unicode="&#xcc;" horiz-adv-x="417" d="M-133 1475.5q6 -37.5 61.5 -62t108.5 -44t125 -54.5q70 -35 94.5 -34t36.5 30q12 27 0 51t-49 35q-18 4 -46 27.5t-58.5 52t-61.5 57.5t-55 43q-45 27 -73 12.5t-58.5 -45.5t-24.5 -68.5zM64.5 1063q-3.5 -31 7 -62.5t24.5 -50.5q8 -12 17.5 -59t16.5 -114.5t13.5 -149.5 t11.5 -164t9 -158t6 -133q2 -84 15.5 -132t32 -72.5t38.5 -30t40.5 -3t32 4.5t14.5 17t-4.5 47t-21.5 91q-10 39 -19 112t-15.5 161t-11.5 182t-8 179t-3 151q0 68 4 100q4 47 -1 76.5t-17.5 47t-30.5 24t-41 8.5q-57 2 -81.5 -19.5t-28 -52.5z" />
<glyph unicode="&#xcd;" horiz-adv-x="417" d="M-28.5 1291.5q-4.5 -21.5 2 -41t18.5 -37t26 -25.5q14 -10 36 -5t44.5 18t44 31.5t36 37t48 42t73.5 48t82 48.5t71 42t38 35.5t2.5 31t-27 19.5t-50.5 4q-20 -2 -55 -14.5t-78 -30.5t-87 -40.5t-85 -45.5t-72 -43t-45 -35q-18 -18 -22.5 -39.5zM58 981q-3 -35 34 -88 q18 -27 33.5 -90.5t27 -137t18.5 -144t11 -111.5q2 -41 3 -98.5l2 -115t5.5 -107.5t14.5 -76.5t27.5 -35t35 -2t30.5 24.5t17 45q2 16 0 92t-5 180.5t-9 223t-11 221t-9 175.5t-7 87q-10 55 -57 52t-102.5 -31.5t-58.5 -63.5z" />
<glyph unicode="&#xce;" horiz-adv-x="425" d="M-271.5 1180.5q3.5 -27.5 25 -46t54 -22.5t59.5 18q18 14 54 48t75 74t72.5 79t44 61.5t24 28.5t26.5 2t24.5 -15t19.5 -24q6 -12 34.5 -34.5t67.5 -47t80 -44t76 -21.5q33 -4 52.5 10.5t24.5 35t-3.5 42t-28.5 31.5q-41 23 -92 58.5t-88 96.5q-35 59 -71 86t-97.5 33 t-90 -32.5t-44.5 -86.5q-8 -23 -41 -60.5t-75 -78.5t-84 -78t-67 -57q-35 -29 -31.5 -56.5zM70 1055q-4 -35 4 -70t14 -51q4 -12 12.5 -66.5t18.5 -133.5t20.5 -171t19.5 -178t14 -156.5t5 -105.5q0 -53 9.5 -84t25.5 -47.5t39.5 -20.5t52.5 0q29 2 42 17.5t14 35t-8 42 t-23 40.5q-10 12 -19.5 76t-17.5 155t-13.5 195.5t-7.5 199.5t-1 167t10 96q20 74 -14 109t-89 35q-57 2 -80.5 -23.5t-27.5 -60.5z" />
<glyph unicode="&#xcf;" horiz-adv-x="409" d="M-137 1360q0 -55 45 -77.5t94 -25.5q49 -4 75.5 17t26.5 74t-34.5 79.5t-87.5 26.5q-43 4 -81 -17.5t-38 -76.5zM63.5 1023q2.5 -34 19.5 -67.5t34 -46.5q10 -8 18 -62t13.5 -134t7.5 -173.5t3 -179.5t1 -153q0 -66 -2 -92q-2 -41 10 -70t32.5 -47t45 -27.5t47.5 -7.5 q47 4 53.5 52t-16.5 128q-8 27 -16.5 80t-16.5 122t-15.5 145.5t-11.5 151.5t-5 139.5t3 107.5q6 63 -1 104t-22.5 63.5t-38 32t-48.5 13.5q-57 4 -77 -20.5t-17.5 -58.5zM137 1376q4 -47 44 -70.5t87 -27.5t75 19.5t32 66.5q2 20 -8.5 37.5t-29 29t-41 17.5t-44.5 6 q-47 0 -83 -16.5t-32 -61.5z" />
<glyph unicode="&#xd0;" horiz-adv-x="1038" d="M65.5 516q6.5 -53 40 -56t87.5 27q27 14 41 13.5t22 -16t10 -40t4 -55.5t5.5 -75t4.5 -88t-2.5 -82t-15.5 -58q-25 -41 -28 -77t45 -66q23 -16 47 -12.5t45.5 16t36 27l18.5 18.5q2 4 51 25.5t119 64.5t145.5 109.5t135.5 160.5q43 68 67.5 150t27.5 169t-18.5 175 t-72.5 166q-41 61 -101.5 98t-129 54.5t-139.5 21.5t-133.5 3t-109.5 -4t-67 3q-35 8 -52.5 -5.5t-25.5 -36t-8 -48.5q0 -27 4 -45q2 -18 14 -56.5t27.5 -84.5l31 -92t25.5 -79q18 -66 0 -84t-61 -18t-70 -35t-20.5 -88zM274 1036.5q7 10.5 50 20.5q20 4 72.5 14t113.5 10 q63 0 124.5 -16t98.5 -65.5t69 -112t48 -131t13 -139.5t-36 -134q-35 -66 -73.5 -129t-83.5 -116.5t-95.5 -89t-103.5 -42.5q-49 -6 -63.5 22t-14.5 77v55v64t-1 58.5t-3 43.5t-1 29.5t7 22.5t22.5 13.5t45.5 4.5t44 4t21.5 13t7.5 22.5t1 33.5t1 33.5t-3.5 22t-15.5 12.5 t-35.5 6t-44 4t-36 9.5t-30 24.5t-25.5 48q-12 33 -21.5 71t-16.5 74.5t-13 68.5t-14 48q-16 35 -9 45.5z" />
<glyph unicode="&#xd1;" horiz-adv-x="1155" d="M101 177q5 -62 19.5 -109.5t37 -76t51.5 -28.5t47 26.5t26.5 66.5t6.5 85t-10 84q-10 39 -15.5 100.5t-8.5 132t-3 140.5q0 72 4 129q2 53 6 75.5t10.5 24.5t14.5 -13t20 -36q8 -14 42 -57t81 -101.5t102.5 -122t105.5 -119.5t90 -97t58 -52q53 -31 74 -60.5t33 -82.5 q6 -25 13 -51.5t19.5 -48t29 -34.5t40.5 -13q25 0 33 28.5t8 71.5q0 45 -4 96t-4 98q-2 70 -8 102t-12.5 51.5t-12.5 42t-8 75.5q0 33 2 110.5t5 167.5t5 178.5t0 145.5t-30.5 77.5t-61.5 15.5t-58.5 -30.5t-19.5 -58.5q4 -23 8.5 -70t7.5 -109.5t5 -132t3 -135t1 -122.5 q0 -55 -2 -90q-4 -53 -11 -62.5t-16.5 2.5t-21.5 32.5t-25 31.5q-12 8 -47 46t-80 91t-93 113.5t-87 116t-76 103.5t-65.5 89t-46 73.5t-17.5 59.5q-16 55 -37.5 70.5t-41 4t-34 -41t-14.5 -66.5q0 -25 -2 -81t-4 -131t-6 -161t-8 -166.5t-8.5 -151.5t-8.5 -116 q-6 -68 -1 -130zM220 1400.5q-3 -22.5 11.5 -35.5t37 -16t38.5 5q31 16 80 54t129 97q39 29 60.5 30t30.5 -17.5t12.5 -50t7.5 -68.5t28.5 -57.5t57 -25.5t69.5 5t66 32.5t64.5 59.5t70.5 80t65.5 89t53.5 87q20 41 12 63.5t-27.5 28.5t-43 -2t-31.5 -28q-18 -39 -55 -99.5 t-109 -126t-105.5 -55.5t-21.5 109q6 49 -3 77.5t-28.5 41t-46.5 10.5t-53 -15q-29 -12 -69 -34.5t-85 -52.5t-90 -63.5t-84 -66.5t-42 -55.5z" />
<glyph unicode="&#xd2;" horiz-adv-x="1224" d="M45 414q-4 -55 28.5 -126t96 -134.5t154 -106.5t200.5 -43q111 0 224.5 43t207 117t155 172t69.5 209t-28 202t-99.5 155.5t-147.5 98t-172 31.5q-129 -4 -248.5 -56t-214 -136t-155 -194.5t-70.5 -231.5zM205 430q4 88 58 175t133 156.5t169 113t168 43.5 q135 -4 223 -83t88 -249q0 -84 -36.5 -165t-97 -145.5t-136.5 -103.5t-151 -41q-78 -2 -154 12.5t-136.5 48t-96 92t-31.5 146.5zM322 1443.5q4 -24.5 22 -45t45 -35.5t53.5 -19.5t86 -30t127 -55t129 -55t92.5 -27.5q31 -4 44 8t8 29.5t-28.5 37t-64.5 31.5t-89.5 41 t-94.5 62.5t-87 67.5t-69 58q-55 47 -89 37t-71 -57q-18 -23 -14 -47.5z" />
<glyph unicode="&#xd3;" horiz-adv-x="1015" d="M41 397q-2 -66 27.5 -138.5t85 -131.5t137.5 -97t184 -34q102 2 192.5 52t158 127t108.5 174.5t45 195.5t-37 191t-105.5 167t-140 119t-139.5 47q-98 2 -174 -34t-133 -96t-96 -136t-63.5 -150.5t-37 -142.5t-12.5 -113zM180 442.5q4 75.5 32 158.5t72 153.5t101 117 t123 46.5q27 0 47 -12.5t38.5 -28l37 -31t37.5 -19.5q20 -4 55 -16t67.5 -41t55 -79t18.5 -130t-40 -156.5t-89 -137t-118.5 -99.5t-129.5 -41q-66 -4 -123 17.5t-100 62.5t-65.5 100.5t-18.5 135zM281 1219.5q2 -19.5 6 -36t21.5 -27.5t40 -15t47 0t46.5 18q20 14 62.5 39 t95.5 53.5t115 58t125 54.5t75.5 49.5t-3 43t-48.5 25.5t-61 -3q-43 -16 -108.5 -40t-133 -48.5t-126 -46t-87.5 -29.5q-29 -10 -43 -24.5t-20 -33t-4 -38z" />
<glyph unicode="&#xd4;" horiz-adv-x="1134" d="M74 417.5q-4 -55.5 7 -128t54 -138t126 -112.5t222 -51q137 -4 242.5 49t176.5 132t110 168t45 155t-11.5 112.5t-45 87.5t-57.5 84t-50 101q-12 35 -25.5 63.5t-38 49t-68.5 31.5t-118 11q-49 0 -91 -4t-80 -17.5t-74 -39t-70.5 -70.5t-77.5 -105.5t-80 -126t-64.5 -131 t-31.5 -121zM140.5 1117q-9.5 -21 3 -35.5t40 -23.5t59 -11.5t62.5 1t47 13.5q27 14 58.5 51t61.5 82t54.5 88t34.5 70q23 51 48.5 44t37.5 -44q6 -18 20.5 -43t37 -49.5t52 -47t66.5 -37t55.5 -1t24.5 38t1 52.5t-15 42q-10 12 -34 35.5t-50.5 52t-51 60.5t-32.5 61 q-18 57 -36.5 78.5t-70.5 31.5q-27 4 -46 14.5t-34.5 9.5t-27.5 -20.5t-22.5 -73t-38 -108.5t-67.5 -106.5t-87 -96.5t-98 -78q-43 -29 -52.5 -50zM205 384q10 73 32.5 140.5t56.5 128t77 108.5t96 79.5t115 44.5q41 8 61.5 4t33.5 -16.5t24.5 -32t36 -42t49 -28.5t48 -16.5 t45.5 -37.5t38 -93q20 -78 6.5 -166t-62.5 -165t-136 -128t-218 -53t-197.5 37.5t-91 101t-14.5 134.5z" />
<glyph unicode="&#xd5;" horiz-adv-x="1210" d="M51 524q-10 -109 20.5 -179.5t87 -121.5t130 -90t151.5 -80q154 -84 285 -47t260 170q63 66 99 154t51.5 171t17.5 150.5t0 94t-20.5 55t-44 57.5t-54 56.5t-49.5 52.5q-23 25 -41 35t-31.5 16t-20.5 10t-5 16.5t14 18.5t30.5 12t39 16.5t39 31t49.5 56t64.5 78.5 t64.5 91.5t47 93.5t8 63.5t-26.5 20.5t-39 -8.5t-28.5 -22.5q-6 -12 -25.5 -35.5t-45 -53.5t-55.5 -61.5t-58.5 -58t-66.5 -32t-76 2t-73.5 22.5t-62.5 32q-53 31 -86 50t-74 23q-20 2 -67 -22.5t-100.5 -60t-102.5 -73.5t-70 -65q-31 -39 -29.5 -61.5t29.5 -52.5 q27 -29 73 -18t83 66.5t78 75t90 23.5t92 -17.5t96 -76.5q27 -29 13.5 -44.5t-53.5 -28.5t-102 -28.5t-136 -42t-136.5 -57.5t-110.5 -79t-80 -119.5t-42 -178.5zM188.5 637.5q16.5 64.5 63.5 99.5q47 33 116.5 70t140.5 66.5t129 48t85 16.5t38 -13.5t20.5 -27.5 t21.5 -35.5t39 -38.5q20 -16 49 -21t56.5 -12.5t50 -22.5t32.5 -50q8 -35 19.5 -76t10.5 -87t-22.5 -100.5t-77 -118t-117 -110.5t-130 -68.5t-147.5 -10t-167 66.5q-90 55 -141 131t-68.5 152.5t-1 141z" />
<glyph unicode="&#xd6;" horiz-adv-x="1284" d="M59.5 549q-10.5 -115 29.5 -219.5t115 -185.5t179 -132t223 -59q78 -6 148.5 17.5t130 65.5t108.5 97t86 111.5t59.5 108.5t30.5 89q25 111 12.5 184.5t-36.5 133.5q-12 29 -26.5 54.5t-28 56t-23.5 69.5t-12 94q-6 111 -93.5 152t-222.5 41q-186 -4 -311 -66.5 t-204 -160t-116.5 -217t-48 -234.5zM223 569q2 88 27.5 183.5t84 172t159 124t254.5 43.5q29 -2 40 -7.5t14 -12.5t4 -18.5t11 -23.5q10 -14 25.5 -26.5t25 -24.5t8 -25.5t-25.5 -25.5q-25 -14 -34 -34t-3 -35t26.5 -20t55.5 11q33 14 50.5 23.5t26.5 5t16 -24.5t24 -61 q14 -41 28.5 -86t19.5 -94.5t-2 -104t-34 -115.5t-61.5 -118.5t-83 -98.5t-109.5 -63.5t-141 -12.5q-80 8 -155 38t-132 85.5t-90 140.5t-29 205zM389 1434q-4 -12 3 -25.5t21.5 -25t34 -18.5t40 -9t39 -1t31.5 6t19.5 16.5t0.5 31.5t-10.5 40.5t-10.5 39t-19.5 31 t-37.5 16.5q-16 2 -35 -8t-34 -26.5t-26.5 -35t-15.5 -32.5zM803 1487q0 -16 3 -36.5t13 -41t28.5 -36t49.5 -17.5q31 -4 46 8t20.5 31.5t2 43.5t-7.5 44q-10 39 -28.5 70.5t-65.5 31.5q-20 4 -32.5 -5t-18.5 -24.5t-8 -35t-2 -33.5z" />
<glyph unicode="&#xd7;" horiz-adv-x="1081" d="M35 863.5q-2 -21.5 7 -43t27.5 -42t41 -37t59.5 -51.5t77 -75t76.5 -75.5t61.5 -56t31 -34t3 -22.5t-12.5 -17.5t-17.5 -16.5q-8 -10 -39 -32.5t-69.5 -48t-75.5 -50t-57.5 -37t-35 -33t-17.5 -42t7.5 -41t40.5 -27.5q59 -18 103.5 2t44.5 63q0 20 17.5 45t43 49.5t55 47 t52 43t40 21.5t30 -7t23.5 -21.5t21 -21.5q10 -10 41 -37.5t70 -63.5t80 -75t71.5 -69.5t53 -42t40 -10.5t29 11.5t21.5 20.5q8 10 16.5 29.5t6 40t-17.5 40t-54 29.5q-37 10 -71 39t-64.5 62.5t-60 66.5t-58.5 53.5t-41 32.5t-12 21q0 10 7 18t17 18q8 10 35 33t57.5 49.5 t62.5 52t54 42.5q20 16 48 24t54.5 14.5t47 11.5t30.5 15q8 10 10.5 32.5t-8 41t-37 27t-71.5 -10t-88 -51.5t-83 -71t-75 -75.5t-61.5 -64.5t-44 -37t-30.5 -9t-25.5 10t-26.5 24q-14 12 -58.5 63t-93.5 111.5t-92 117t-55 81.5q-16 31 -34 38t-36 0.5t-37.5 -22.5 t-36 -32.5t-18.5 -38z" />
<glyph unicode="&#xd8;" horiz-adv-x="1105" d="M-109 -373q-29 -84 1 -117.5t85 -29.5q27 2 38.5 19.5t14.5 44t0 57t-3 59.5q0 27 24.5 84t58 121.5t67.5 124t50.5 92.5t30.5 25.5t43 -27t80 -41t143 -16.5q92 2 178 52t155 122.5t112 152.5t49 146q4 45 -7.5 101t-26.5 112.5t-31.5 107.5t-20.5 88t31.5 85t88 97.5 t109 92.5t90.5 69q72 53 83.5 89t-25.5 79q-35 41 -84 28t-80 -73q-14 -29 -41 -66.5t-58.5 -77.5t-65.5 -81t-65 -74q-31 -35 -61.5 -40t-64 0t-75.5 14.5t-93 7.5q-100 -6 -189.5 -53.5t-159 -117t-119 -152.5t-69.5 -159q-18 -68 -15 -124t16 -101t31.5 -80t33.5 -59 q12 -25 13 -40t-8.5 -30.5t-27.5 -35t-43 -50t-52.5 -85t-54 -116t-49 -122t-37.5 -103.5zM180 424q-2 16 6.5 57t26.5 93.5t51 110.5t82 109.5t116.5 90.5t158.5 51q20 2 45 2q27 0 42 -8t15 -29q0 -20 -27 -57q-29 -37 -86 -106.5t-118.5 -144.5t-117 -139.5t-75.5 -91.5 q-23 -27 -43 -29.5t-36.5 9.5t-27 34.5t-12.5 47.5zM335 233.5q1 24.5 36 65.5t87 101.5t103 120t92 107.5t53.5 64.5t25.5 32.5t29.5 23.5t38 0t50.5 -35.5q35 -35 37 -102.5t-21 -159.5q-12 -53 -48 -103.5t-85 -89.5t-105.5 -62.5t-109.5 -23.5t-96 4t-65.5 18.5 t-21.5 39z" />
<glyph unicode="&#xd9;" horiz-adv-x="1085" d="M74 749.5q-6 -120.5 14.5 -224t57 -189.5t82.5 -155.5t91 -123.5q43 -53 94.5 -73.5t100.5 -20.5t94 17.5t80 39.5q33 23 79 82.5t89 134t79 155.5t52 149q31 135 18.5 265t-38.5 226q-14 47 -36 69.5t-38 16.5t-21.5 -38.5t13 -96t12.5 -159t-27.5 -197t-52.5 -198.5 t-59.5 -162.5t-73.5 -101.5t-94 -45t-97.5 4t-83 44t-70.5 93.5t-64.5 134t-46 141t-15.5 114.5t14.5 100.5t28.5 109.5t31.5 99.5t23.5 67.5q16 45 -3 81t-62 46q-25 6 -45 6t-45 -18q-12 -10 -24.5 -26.5t-23 -57.5t-19.5 -115t-15 -194.5zM258 1634.5q-6 -55.5 19.5 -73 t103.5 -25.5q39 -4 89 -44t102.5 -87t101.5 -87t84 -44t51 -2t17 14t-9 35.5t-26 58.5q-12 23 -43 59t-73 74.5t-90 78.5t-93.5 73t-81 53.5t-54.5 22.5q-47 6 -69.5 -22.5t-28.5 -84z" />
<glyph unicode="&#xda;" horiz-adv-x="1019" d="M82 725q-10 -102 15.5 -196.5t71.5 -177.5t104.5 -150.5t111.5 -118.5t86 -76.5t68 -25.5t83 27.5t132 82.5q55 37 92 108.5t58.5 159.5t30.5 185.5t10 185.5t-3 159.5t-8 106.5q-6 53 -14.5 87t-18.5 52.5t-23.5 25.5t-29.5 7q-43 0 -53.5 -23.5t-4 -70.5t27 -147.5 t26.5 -258t-38 -280.5t-106 -194q-31 -35 -63.5 -47.5t-64 -9.5t-60.5 17.5t-49 34.5q-23 20 -63 66.5t-79.5 110t-68.5 139.5t-27 155q0 39 6.5 95.5t16.5 115t27.5 113.5t40 90t27.5 60.5t-1 44t-20.5 32t-30.5 23.5q-35 23 -61.5 19.5t-49.5 -40.5q-20 -35 -48 -157.5 t-50 -329.5zM455 1335q2 -37 36.5 -65.5t61.5 -15t74 72.5q23 29 64.5 57.5t90.5 54t101.5 47.5t95.5 38q43 14 48 37.5t-11.5 42t-47 27.5t-59 -1t-79 -30.5t-108.5 -48t-116.5 -62.5t-105.5 -76t-45 -78z" />
<glyph unicode="&#xdb;" horiz-adv-x="1003" d="M64.5 636q5.5 -81 22.5 -151.5t40 -132.5q20 -61 65.5 -128.5t98.5 -124t106.5 -94.5t94.5 -38q80 0 172 69.5t172 196.5q39 63 59 161t29.5 195t9.5 175v108q0 55 -26.5 74t-51.5 8q-12 -4 -25.5 -9t-23.5 -19.5t-14.5 -41t2.5 -73.5q23 -176 9.5 -290.5t-44.5 -187.5 t-72 -114t-74 -67q-33 -29 -61.5 -37.5t-54 -2t-48 24t-41 40t-50 57t-62.5 84t-56.5 118t-31.5 158.5q-2 39 6 87t20.5 96t26.5 90t25 71q23 53 20.5 89t-41.5 46q-41 10 -83 -2t-64 -72q-37 -100 -48.5 -191t-6 -172zM283.5 1197q5.5 -30 52.5 -46q23 -8 36 -10t25.5 3 t26.5 17.5t39 34.5q49 43 104.5 95t91.5 118q18 33 37 33q20 0 41 -16.5t40.5 -41t37.5 -41.5q37 -35 73 -39t58.5 14.5t28.5 57.5t-17 74q-10 16 -37.5 29.5t-57 29t-54.5 37t-27 56.5q-4 33 -14 64.5t-27.5 55t-41 35.5t-52.5 8t-47 -24.5t-26.5 -50t-7.5 -63.5t12 -66 q8 -31 -24 -74t-78 -86t-93 -81t-68 -58q-37 -35 -31.5 -65z" />
<glyph unicode="&#xdc;" horiz-adv-x="1118" d="M122 539q-1 -72 6 -150t26.5 -154.5t60.5 -140t107.5 -104.5t164.5 -45q98 -6 177 65.5t138.5 184t101.5 250t68.5 265.5t39 228t14.5 141q2 59 -30.5 71.5t-68.5 -2.5t-59.5 -51t-5 -71t11 -92t-19.5 -154q-4 -33 -15.5 -97.5t-29.5 -143t-47 -160.5t-66 -148.5 t-85 -106.5t-107 -34q-90 8 -139.5 46t-73 99.5t-28.5 147.5t-5 195q0 106 7 183t18.5 136t25 108.5t25.5 102.5t-18.5 71.5t-73.5 14.5t-80 -25.5t-37 -48.5q0 -55 3 -180t-3 -278q-2 -51 -3 -123zM342 1421q-4 -31 6 -62.5t28.5 -56t41 -40t43.5 -13.5q39 2 43 43t10 109 q2 33 4 56.5t-4 38.5t-23.5 23.5t-50.5 12.5q-43 -4 -65.5 -26.5t-32.5 -84.5zM686 1384q-4 -37 35 -49t88 -8t80 35.5t35 54.5q2 10 -9.5 25.5t-30 30t-42 24.5t-49.5 10q-23 0 -41.5 -12t-32.5 -30.5t-22.5 -40t-10.5 -40.5z" />
<glyph unicode="&#xdd;" horiz-adv-x="1277" d="M23.5 1180.5q7.5 -29.5 32 -54t59.5 -41t63 -18.5q18 -2 59.5 -28.5t92.5 -66.5t106.5 -89t104.5 -93.5t86 -80t51 -47.5q20 -20 23.5 -43t-4 -47.5t-20.5 -47t-23.5 -43t-28 -50.5t-35 -64.5t-32.5 -72.5t-23.5 -75t-12.5 -86t1 -94t22.5 -76t54.5 -31t50.5 24t13.5 56 q0 35 -6.5 72t-8.5 66q-2 27 12.5 72.5t36 95t44 93.5t38.5 66q14 23 31.5 24t36 -7.5t38 -18.5t38.5 -6q18 2 28.5 19.5t13.5 39t-4.5 42t-21.5 30.5q-61 37 -37 111q6 18 42 68t81 108.5t90 112t70 75.5q47 45 53 88t-41 68q-23 12 -42 8t-34.5 -17.5t-26 -35t-16.5 -41.5 q-6 -23 -30.5 -63t-58.5 -88t-69.5 -98t-62.5 -91t-45 -51.5t-32.5 -3t-29 26t-33 36.5t-65.5 62.5t-106.5 95.5t-119.5 99t-105 75q-43 25 -56.5 43t-17.5 33.5t-8 28t-29 26.5q-23 10 -42 16t-38.5 3t-40 -16t-47.5 -40q-27 -29 -19.5 -58.5zM548 1345.5q-1 -22.5 6 -45 t17 -36.5q23 -31 59 -33t64 8q27 10 58.5 63.5t60.5 112.5q14 29 52 75t83 92t86 85t62 55q39 29 46 59.5t-18 55.5q-47 47 -110 -29q-10 -12 -40 -42.5t-69 -70.5t-85 -84t-89 -83t-79 -68.5t-56 -40.5q-25 -12 -36 -31.5t-12 -42z" />
<glyph unicode="&#xde;" horiz-adv-x="983" d="M37 1161q2 -27 10 -65.5t19.5 -80.5t24.5 -83t23.5 -69.5t25 -76t28.5 -118t28.5 -166.5t24.5 -225.5t29.5 -195t43 -89t49.5 -15t50.5 29t28.5 41t-5 45t-28.5 54t-40.5 68.5q-23 39 -15.5 53.5t28 16.5t48 -2t50.5 -2q14 0 54 21.5t92 58t108.5 85t102.5 104.5 t76 117.5t30 120.5q-2 59 -41 102.5t-100.5 71t-136.5 44t-145.5 26.5t-129 14.5t-86.5 8.5q-43 6 -60.5 17t-20.5 29.5t-1 42t0 54.5q-4 31 -15.5 46.5t-27 21.5t-34 3t-34.5 -9q-23 -10 -40 -28t-13 -71zM258 833.5q4 28.5 49 45.5q18 6 58.5 8t89.5 -1t102 -13.5 t97 -24.5t73 -34.5t31 -45.5q2 -27 -12.5 -61.5t-39 -73.5t-55 -78t-63.5 -71.5t-62.5 -55t-50.5 -29.5q-33 -10 -59.5 -20t-47 -11t-33.5 13t-19.5 55t-12.5 87t-12 89t-12.5 81t-12.5 63q-12 49 -8 77.5z" />
<glyph unicode="&#xdf;" horiz-adv-x="1044" d="M-178 -250q-4 -25 6 -49.5t29.5 -45t46 -32.5t57.5 -12q51 0 117.5 45t127 123t101.5 182.5t39 222.5q0 74 -16.5 144.5t-40 135t-49 123t-46 105.5t-18.5 90t14.5 78t33 60.5t36.5 42.5q16 14 32.5 32.5t35 35t42 27.5t54.5 11q55 0 92 -18.5t61.5 -45t38 -56 t21.5 -52.5q16 -45 -17.5 -68.5t-93.5 -29.5q-29 -4 -47 -20.5t-27.5 -43t-12.5 -59.5t-3 -66q0 -35 40 -73.5t95.5 -78.5t111.5 -75t89 -59q31 -25 41 -47.5t8 -42t-11 -35t-17 -23.5q-16 -18 -69.5 -50t-143.5 -81q-45 -25 -48.5 -43t15 -28.5t50.5 -13.5t56.5 3 t69.5 27.5t91 49.5t86 56.5t56 46.5q31 37 33 91.5t-41 101.5q-23 23 -46 52.5t-48 56t-52.5 47t-53.5 24.5q-55 10 -97.5 42t-46.5 69t56.5 52t152.5 9q45 -4 55.5 13.5t0 52t-33 85t-42.5 115.5q-20 63 -47 110.5t-70 79.5t-103.5 48t-148.5 20q-92 4 -158.5 -31.5 t-111.5 -97t-68 -141.5t-25 -162t17.5 -160.5t58.5 -136.5q27 -39 40 -91t19.5 -108.5t4.5 -113.5t-8.5 -107.5t-13.5 -88t-13 -56.5q-10 -27 -26.5 -50.5t-37 -40.5t-42 -29.5t-37.5 -14.5q-16 -4 -29.5 4t-27 20.5t-28 25.5t-34.5 20q-41 12 -58.5 -21t-23.5 -82z" />
<glyph unicode="&#xe0;" horiz-adv-x="1185" d="M62 122.5q8 -34.5 37.5 -66t79.5 -55.5t115.5 -30t144.5 19.5t153 65.5t132 85t87 76q27 31 40 38t20.5 1t11.5 -21.5t14 -29.5q8 -16 19.5 -46t24.5 -63t29.5 -61.5t37 -43t56.5 -21.5t63.5 -1t32.5 30t-34 71t-65.5 100t-44 107.5t-24.5 105.5t-9 92t-10 58.5 t-19.5 28.5t-22.5 26.5t-18 54.5q-6 37 -30.5 56.5t-60.5 23.5t-78 -5t-80 -26q-33 -14 -86.5 -50t-116 -85t-127 -105.5t-119.5 -107.5t-95 -93t-50 -63q-16 -31 -8 -65.5zM238 162q2 31 21.5 64.5t54 68.5t75.5 70q84 72 133 107.5t92 31.5q20 -2 31.5 -5t19 -7.5 t14.5 -7.5t21 -5q14 2 34 18.5t37 29t29.5 8.5t14.5 -43q2 -41 0 -70t-15.5 -56.5t-43 -56t-80.5 -67.5q-53 -39 -113.5 -74t-119 -56.5t-106.5 -25.5t-74.5 20.5t-24.5 55.5zM276.5 1029q6.5 -38 42.5 -46q47 -10 91.5 -32.5t87.5 -46t87 -40t91 -12.5t68.5 14.5t23.5 23.5 t-10.5 27.5t-32.5 28.5t-54 37t-73 49.5t-78 52t-69 45.5q-59 37 -100.5 22t-61 -50t-13 -73z" />
<glyph unicode="&#xe1;" horiz-adv-x="1056" d="M74 121q-4 -74 43 -121t137 -43q29 0 70 14.5t86 35t89 44t80.5 45t61.5 38t31 20.5q8 6 18 17t21 11q10 0 19 -16t20 -66q8 -49 28.5 -79.5t45 -43t52 -7.5t50.5 28t25.5 39t-4.5 32.5t-22.5 36t-29.5 48t-20.5 75.5t-4.5 99.5t15.5 103.5t40 90t27.5 65.5t-15 42 t-46 20.5t-67 1q-104 -10 -200.5 -45t-179.5 -84t-151.5 -106.5t-116.5 -113.5t-74.5 -104t-28.5 -77zM219 137.5q-6 18.5 19 48.5q25 33 59.5 72t81.5 78t108.5 70.5t139.5 50.5q33 8 63.5 11t47 -5t12.5 -29.5t-37 -62.5q-35 -41 -86.5 -82t-103.5 -75t-99 -59.5 t-72 -33.5q-25 -10 -54.5 -12.5t-51 4t-27.5 25zM369.5 746q13.5 -35 49.5 -44.5t78 4t54 48.5q8 23 35.5 50t66.5 54t84 49.5t88 34.5t48.5 35.5t-10 45t-44 34t-55.5 4.5q-27 -10 -79 -35t-108.5 -56.5t-106.5 -66.5t-71 -63q-43 -59 -29.5 -94z" />
<glyph unicode="&#xe2;" horiz-adv-x="1130" d="M89 151.5q3 -49.5 27.5 -86t62.5 -60t79 -36.5q27 -8 70 2.5t93 31t103.5 50t101.5 59t88 57.5t60 46q33 27 48.5 33t21.5 0t6 -23q0 -16 2 -30q2 -16 9 -42t19.5 -55.5t26 -60.5t27.5 -55q12 -25 37.5 -20t47 26.5t31.5 51t-6 56.5q-49 74 -64 139.5t-12 122t17 104.5 t27 89q14 55 3 84t-35 40t-51.5 9t-47.5 -6q-18 -4 -22.5 0t-10.5 10t-24.5 10t-65.5 0q-33 -4 -86.5 -25.5t-116.5 -55t-132 -77.5t-129.5 -91.5t-107.5 -95.5t-67 -89q-33 -63 -30 -112.5zM225.5 172q-10.5 27 12.5 68q20 39 73.5 89t114.5 95t119.5 78t93.5 37 q68 8 100 8q35 -1 64 -21q25 -31 16.5 -74.5t-49.5 -93.5q-20 -25 -64 -58.5t-97.5 -67t-106.5 -61.5t-92 -42t-79 -13t-67.5 15t-38 41zM257 887.5q7 -29.5 37 -49t69.5 -24.5t70.5 11q16 8 35.5 39t39 72t38 88t35.5 88q20 53 36.5 64.5t32 0t31.5 -35t35 -37.5 q18 -16 24.5 -29.5t10.5 -29t10 -36t24.5 -49t38 -52t41 -37t45.5 -13.5q27 1 56 21t27.5 47.5t-21 61.5t-51 70t-62.5 70q-59 70 -89 130.5t-54 119.5q-12 29 -46 58.5t-69 39t-59.5 -12t-18.5 -93.5t-15.5 -136.5t-58 -118.5t-80.5 -97t-83 -70q-37 -31 -30 -60.5z" />
<glyph unicode="&#xe3;" horiz-adv-x="1001" d="M100 182q-4 -37 11.5 -70.5t43 -59t64.5 -43t74 -19.5q37 -4 84 10t92 36.5t83 50.5t56.5 50.5t29.5 27.5t17.5 -1t8.5 -18.5t2 -24.5q0 -25 23.5 -74t82.5 -110q29 -31 57.5 -32t47 17.5t19.5 51t-26 69.5q-25 37 -35 90t-12 113.5t1 123t5 116t-8 83t-32.5 43 t-57.5 15.5t-82 2q-35 2 -62.5 -8.5t-58 -32t-72.5 -57t-106 -87.5q-66 -51 -110.5 -83.5t-74.5 -60.5t-45.5 -54.5t-19.5 -63.5zM120 731.5q11 -26.5 83 -33.5q35 -4 56.5 10.5t37.5 42t32.5 65.5t45.5 83q27 45 63.5 41t75.5 -29.5t77 -60.5t70.5 -53.5t64.5 -7t60.5 37 t51 56t36.5 53.5q14 20 39 45t44.5 49.5t26 51t-18.5 55.5q-25 27 -43.5 29.5t-37 -14.5t-41 -53t-55.5 -85q-35 -49 -62.5 -63.5t-52 -2t-45 47t-41 83.5t-54 65.5t-69.5 10.5t-65.5 -31.5t-40 -60.5t-40 -72t-65.5 -70.5t-69.5 -65.5t-54.5 -58q-20 -39 -9 -65.5zM274 215 q0 27 17.5 53.5t47.5 52t64 50.5q33 25 68 48t65.5 38.5t57.5 20.5t47 -9q16 -12 17 -39t-10 -57.5t-33.5 -63.5t-51 -57.5t-63.5 -51t-71 -44t-68.5 -19.5t-59.5 24.5t-27 53.5z" />
<glyph unicode="&#xe4;" horiz-adv-x="1093" d="M57 199q-10 -51 6.5 -87t51.5 -60.5t84 -39t108 -22.5q57 -8 123 23.5t124 74.5t102 85t61 54q14 12 28.5 25.5t23.5 21t14 4t3 -25.5q-4 -31 -2 -48.5t6.5 -32.5t11.5 -35.5t15 -53.5q23 -98 54.5 -124t74.5 1q20 12 36.5 18.5t23 20.5t-1.5 42t-37 81t-41.5 99 t-15.5 89t-1 82l4 78t-6 58.5t-17 32.5t-18.5 26.5t-11.5 42.5q-4 55 -54 71.5t-122 -6.5q-66 -25 -138.5 -55.5t-164.5 -103.5q-45 -37 -98.5 -75t-100.5 -79t-81.5 -86t-43.5 -96zM201 989.5q-4 -14.5 12 -36t42 -42t53.5 -35t43.5 -14.5q35 0 63.5 26t22.5 73 q-4 23 -13 45t-25.5 38.5t-39 26.5t-49.5 8q-31 2 -50 -5t-31.5 -21.5t-18.5 -31.5t-10 -31.5zM219 219.5q10 38.5 41 77.5t72 74t74 57q33 20 71.5 48t80.5 47.5t86 25.5t85 -14q10 -14 10 -48q0 -33 -15 -75.5t-48 -87.5t-86 -84t-104.5 -68t-96.5 -42t-84 -9t-67 33 q-29 27 -19 65.5zM668 1051q-4 -43 34.5 -68t88 -31t70 26t24.5 69q2 37 -32 67.5t-79 34.5q-43 0 -72.5 -27.5t-33.5 -70.5z" />
<glyph unicode="&#xe5;" horiz-adv-x="1185" d="M62 122.5q8 -34.5 37.5 -66t79.5 -55.5t115.5 -30t144.5 19.5t153 65.5t132 85t87 76q27 31 40 38t20.5 1t11.5 -21.5t14 -29.5q8 -16 19.5 -46t24.5 -63t29.5 -61.5t37 -43t56.5 -21.5t63.5 -1t32.5 30t-34 71t-65.5 100t-44 107.5t-24.5 105.5t-9 92t-10 58.5 t-19.5 28.5t-22.5 26.5t-18 54.5q-6 37 -30.5 56.5t-60.5 23.5t-78 -5t-80 -26q-33 -14 -86.5 -50t-116 -85t-127 -105.5t-119.5 -107.5t-95 -93t-50 -63q-16 -31 -8 -65.5zM238 162q2 31 21.5 64.5t54 68.5t75.5 70q84 72 133 107.5t92 31.5q20 -2 31.5 -5t19 -7.5 t14.5 -7.5t21 -5q14 2 34 18.5t37 29t29.5 8.5t14.5 -43q2 -41 0 -70t-15.5 -56.5t-43 -56t-80.5 -67.5q-53 -39 -113.5 -74t-119 -56.5t-106.5 -25.5t-74.5 20.5t-24.5 55.5zM285 1061q0 -53 36.5 -106.5t88 -96.5t105.5 -68.5t89 -23.5t75 20.5t73.5 55.5t59.5 91t34 128 t-17.5 121t-68.5 74.5t-93.5 39t-91.5 11.5q-43 -4 -94 -22.5t-94 -50.5t-72.5 -76t-29.5 -97zM440 1057q0 37 34 73.5t81 36.5q27 0 54.5 -13t49 -31.5t36 -40.5t12.5 -38t-9.5 -38.5t-21.5 -42t-36 -32.5t-52 -13q-31 0 -57.5 14t-47 35.5t-32 46t-11.5 43.5z" />
<glyph unicode="&#xe6;" horiz-adv-x="1159" d="M55 272q-16 -63 3.5 -106t55.5 -70.5t76.5 -41t69.5 -15.5q27 -4 50.5 11.5t45 39t42 52t43 53t32.5 25.5t14.5 -12t5.5 -37t5 -50q10 -53 50 -98.5t68 -69.5q14 -12 30 -10t29 11t22.5 24.5t13.5 31.5q6 31 51 33t112.5 8t120 20.5t101.5 32.5q25 8 37 31t10 43.5 t-18.5 29.5t-49.5 -5q-33 -16 -57.5 -21.5t-52 -8.5t-61.5 -4t-83 -7q-98 -12 -128.5 27.5t-30.5 111.5q0 35 23.5 50.5t59 21.5t75.5 7t75 11q33 8 61.5 40t49 72t33 80t12.5 66q0 27 -27 45.5t-64.5 27.5t-80.5 9q-41 0 -74 -12q-31 -12 -51 -12t-36 9t-32 25.5t-41 34.5 q-35 27 -83 16.5t-99 -40t-100.5 -68.5t-86.5 -68q-74 -59 -130 -137t-91 -207zM199 305q8 51 35.5 98.5t61.5 86t66.5 66.5t49.5 40q20 14 46.5 27.5t47 15.5t26 -13.5t-17.5 -58.5q-47 -86 -75.5 -158.5t-67.5 -123.5q-20 -27 -52 -45.5t-62 -20.5t-48.5 17.5t-9.5 68.5z M723 514q-25 10 0 41t74 41q14 0 30.5 -4t25.5 -11.5t8 -16.5t-19 -17q-41 -18 -67.5 -30.5t-51.5 -2.5z" />
<glyph unicode="&#xe7;" horiz-adv-x="923" d="M51 279q2 -29 15.5 -64t35 -65.5t49 -56t60.5 -36t46 -17.5t15 -13.5t-5 -14.5t-15 -20q-10 -12 -12 -24.5t6 -28t28.5 -33t59.5 -37.5q39 -23 83 -33t83 -19.5t64.5 -23.5t27.5 -43t-18.5 -55.5t-53.5 -51t-75 -50t-82.5 -52t-40.5 -45.5q0 -20 19 -31.5t50 -11.5t53 10 q20 10 54 35t71 56.5t73 67.5t60 71q25 33 38.5 54.5t11.5 39.5t-22.5 35.5t-63.5 46.5q-43 27 -82 44t-68 30.5t-46 28t-17 36.5q0 23 36.5 32t91 14t114 9.5t106.5 18.5q45 14 51 38.5t-10.5 48.5t-48 38t-60 6t-56.5 -20.5t-56.5 -20.5t-61.5 -8q-31 0 -70 16 q-37 16 -55 17.5t-29.5 -7t-20.5 -19.5t-30 -19q-39 -16 -72.5 23.5t-56.5 119.5q-10 39 3.5 71.5t46 62.5t83 58.5t111.5 61.5q98 51 180 70.5t129 -17.5q23 -18 41.5 -8t29.5 31.5t12 47.5t-11 36t-23.5 27.5t-30 29.5t-51 17t-88 -9t-123 -38.5t-136 -59.5t-134 -79 t-115 -94t-77 -107.5t-21.5 -116.5z" />
<glyph unicode="&#xe8;" horiz-adv-x="989" d="M80 256q-10 -90 31 -148.5t104.5 -93t137 -48t128.5 -13.5t114.5 15.5t116 37t104.5 46.5t83 48q33 20 36 47t-14.5 45.5t-50 21.5t-69.5 -19q-72 -45 -143.5 -71t-180.5 -40q-72 -10 -130 17.5t-105 105.5q-23 39 -23 53q0 16 21.5 25.5t61.5 17.5t97 31q55 23 139.5 69 t162 98t133 101t57.5 80t-16.5 59.5t-50 50t-72.5 30.5t-86 3q-98 -14 -196.5 -63t-181.5 -124t-139.5 -172t-68.5 -210zM128 1394q-1 -40 23.5 -81t61.5 -47t98.5 -48t129 -94.5t131 -103.5t104.5 -78q39 -27 57.5 -13.5t20.5 43t-9.5 62.5t-31.5 47t-79 58.5t-128.5 98.5 t-134 107.5t-97.5 84.5q-78 39 -111.5 21.5t-34.5 -57.5zM298 472q7 15 44 46q74 61 143.5 107.5t155.5 64.5q20 4 43 4t34 -7t6 -22t-42 -40q-37 -27 -78 -52.5t-81 -48t-74.5 -39t-61.5 -24.5t-50.5 -11.5t-34.5 2t-4 20.5z" />
<glyph unicode="&#xe9;" horiz-adv-x="1075" d="M72 283q4 -96 44 -156.5t101.5 -94.5t136 -46.5t148 -14.5t142.5 14.5t129.5 42t110.5 58.5t85 65.5t33.5 53t-20.5 30t-50 7.5t-55.5 -14.5t-48 -32t-60.5 -38t-93.5 -32.5t-144.5 -16q-113 -4 -166 8t-73.5 31.5t-20.5 44.5t-4 47q-6 37 20.5 52t121.5 19q41 2 99 19.5 t119.5 46.5t122 65.5t109.5 76.5t80 82t35 79q2 16 -8.5 40.5t-33 47.5t-58 38t-85.5 13q-74 -2 -156.5 -22.5t-162.5 -55t-153.5 -83t-129 -107.5t-87 -127t-27.5 -141zM274.5 832.5q6.5 -13.5 33 -12.5t61 12.5t57.5 25.5q14 8 46 38t74 69t87 83t87 85t74 74.5t46 47.5 q20 23 38.5 53.5t18.5 51.5q0 23 -26.5 23.5t-96 -34t-140.5 -98t-135.5 -132t-115.5 -133t-80 -103.5q-35 -37 -28.5 -50.5zM292 487.5q9 18.5 58 49t103.5 59.5t105.5 50.5t93 34.5t66.5 15t51.5 -2t40 -15t5 -29.5t-55 -47.5q-96 -59 -179 -102t-161 -49q-39 -4 -73 -2 t-49 11t-6 27.5z" />
<glyph unicode="&#xea;" horiz-adv-x="976" d="M70 790.5q6 -30.5 26.5 -45t49 -13.5t53.5 18q47 29 91 97t105 152q31 41 44.5 72t22.5 52.5t17 32.5t31 15q20 2 32.5 -10t19.5 -33.5t12.5 -48t13.5 -51.5q16 -49 46 -76.5t101 -46.5q35 -10 50.5 2.5t15.5 34.5q0 25 -12.5 55.5t-32.5 59.5t-40 74t-38.5 93t-33.5 93 t-23 76q-10 31 -16.5 49t-15.5 28.5t-23.5 13.5t-39.5 3t-40 -3t-24 -13.5t-14.5 -31t-7.5 -55.5q-16 -104 -48 -176.5t-65.5 -123t-64.5 -83t-47 -55t-36.5 -30t-39 -10.5t-33 -8t-22.5 -26q-20 -51 -14 -81.5zM80 295q8 -74 64.5 -131.5t129 -95t145.5 -58t116 -22.5t90 1 t92 11t85 21.5t68.5 32t34.5 38t-1 33.5t-24.5 21.5t-36 -1t-30.5 -12.5t-31.5 -5t-53.5 -2t-93.5 -3t-102.5 2t-76.5 13t-64.5 23.5t-63 35.5q-45 27 -58.5 46t-3.5 34.5t39 24.5t70 13q39 4 110.5 30t147.5 58.5t142 67t99 57.5q31 20 29 67.5t-29.5 93.5t-74.5 76 t-105 17q-31 -2 -90 -24.5t-128.5 -59t-143.5 -86t-131.5 -102.5t-92 -108.5t-28.5 -106.5zM331 482.5q5 15.5 40 37.5q68 43 146.5 82t139.5 49q27 4 51.5 3t37 -8t5.5 -21t-44 -39t-81 -45.5t-86 -37t-78 -28.5t-54 -20q-20 -8 -41 -7t-31 10t-5 24.5z" />
<glyph unicode="&#xeb;" horiz-adv-x="884" d="M57 322q0 -80 37 -140.5t94.5 -100.5t126 -59.5t131.5 -19.5t111.5 9t86.5 21.5t66.5 28t51 27.5t29 31.5t-2 35t-27 23.5t-44.5 0q-53 -18 -109.5 -24.5t-130.5 -10.5t-120 14.5t-74 45.5q-37 33 -50.5 51t-6.5 29.5t34 19.5t68 23q88 31 171 70.5t149.5 80.5t108.5 80 t46 68t-19.5 59.5t-63.5 55t-89 39t-94 9.5q-41 2 -74 -6t-62.5 -23.5t-60.5 -38t-70 -50.5q-37 -29 -74.5 -56.5t-68.5 -66.5t-50.5 -92.5t-19.5 -132.5zM150 1083q0 -29 8 -54t21.5 -46.5t30.5 -34t34 -12.5q35 0 62.5 44t31.5 103t-25.5 89t-85.5 30q-43 -4 -60 -33.5 t-17 -85.5zM238 466q2 15 32 52q63 74 114.5 99.5t119.5 35.5q29 4 58.5 3t46 -10t13.5 -26.5t-40 -44.5q-74 -55 -125 -78.5t-105 -35.5q-29 -6 -56.5 -11.5t-43.5 -2t-14 18.5zM539 1055q0 -20 13 -45t31.5 -46.5t40 -37t38.5 -15.5q16 0 31.5 15.5t26.5 39t17 49t6 48.5 q0 43 -24.5 60.5t-73.5 21.5t-77.5 -22.5t-28.5 -67.5z" />
<glyph unicode="&#xec;" horiz-adv-x="417" d="M-128 1101q-1 -22 5 -40.5t23.5 -31.5t54.5 -17q74 -10 136.5 -41t121.5 -62q29 -14 43 -6t15 28.5t-11 49t-39 55.5q-53 53 -112.5 98.5t-137.5 73.5q-43 6 -70.5 -9t-27.5 -56q0 -20 -1 -42zM72 687.5q-4 -21.5 5 -46.5t29.5 -43t32 -59t16.5 -93.5t4 -114t-3 -118.5 q-4 -59 3 -93t20.5 -52.5t31.5 -22.5t39 0q41 6 57 52.5t4 107.5q-6 31 -11 82t-7 107.5t-1 111.5t7 92q14 84 -20.5 115.5t-118.5 27.5q-41 -2 -62.5 -17t-25.5 -36.5z" />
<glyph unicode="&#xed;" horiz-adv-x="405" d="M96 702.5q-4 -22.5 1 -50t13.5 -48t17.5 -63.5t15.5 -97.5t9.5 -112t-1 -108.5q-10 -102 16.5 -145t85.5 -47q29 -2 43 16.5t17 47t-1 65t-10 71.5t-9 91.5t-3 117.5v117v88q0 43 -17.5 71.5t-97.5 35.5q-41 2 -58.5 -12.5t-21.5 -37zM100.5 1014q12.5 -29 42 -47.5 t65.5 -17.5t58.5 40t44 68.5t49 60.5t67.5 66t101 84q41 33 52.5 53t4.5 31.5t-28.5 14.5t-47.5 1t-48.5 -7t-34.5 -11q-16 -10 -60 -49t-93.5 -86.5t-95.5 -90.5t-66 -61q-23 -20 -10.5 -49z" />
<glyph unicode="&#xee;" horiz-adv-x="423" d="M-153 854q3 -23 10 -41q12 -37 48 -32t128 65q45 29 73.5 70.5t47 81.5t31 72t28.5 42q14 8 43 -10.5t64.5 -44t74.5 -49t76 -23.5t54.5 15.5t17.5 35.5q0 23 -18.5 45.5t-53.5 38.5q-35 14 -65.5 47t-55 73t-40 84t-19.5 83q-10 78 -42 88t-97 -14q-31 -12 -46.5 -26.5 t-18.5 -36t3 -56.5t16 -86q10 -53 -10 -103.5t-55 -92.5t-77 -70.5t-75 -36.5q-20 -12 -29.5 -31.5t-12.5 -42t0 -45.5zM102 125q-10 -55 20 -93t79 -38t55 33.5t-6 101.5q-4 23 -3 67t6 99t13 115.5t15.5 114t14.5 95.5t11 58q12 51 -4 75.5t-69.5 31t-82 -24.5t-16.5 -103 q4 -20 4 -61t-3 -94t-7 -111.5t-9 -112t-10.5 -94.5t-7.5 -59z" />
<glyph unicode="&#xef;" horiz-adv-x="423" d="M-35 1171.5q-4 -34.5 12.5 -58t42 -39t53 -21.5t44.5 -9q35 -4 62.5 25t27.5 78t-33 66.5t-98 23.5q-25 2 -43.5 5t-31.5 -1t-22.5 -19.5t-13.5 -50zM109 150q-6 -23 3 -49.5t27.5 -46t43 -29t49 1t36 22.5t16.5 28.5t4 41t-3 59.5t-1 105.5t3 148.5t4 148.5t6 105.5 q6 55 -19.5 70.5t-87.5 19.5q-31 2 -45 -10t-17 -31.5t2 -44t11 -49.5q4 -16 4 -55t-2 -88t-6 -104.5t-9 -104.5t-10 -86t-9 -53zM303 1153q-4 -20 8.5 -43t31.5 -41t44 -30.5t47 -12.5q90 1 90 107t-127 106q-61 -6 -74.5 -25.5t-19.5 -60.5z" />
<glyph unicode="&#xf0;" horiz-adv-x="1198" d="M88 338q2 -43 16.5 -102.5t55.5 -114.5t113.5 -93t191.5 -38q139 0 237.5 35.5t166 92t107.5 125t60.5 134t26.5 120t8 83.5q2 41 -21.5 97t-57.5 111.5t-67.5 103.5t-54 72.5t-9.5 41t39 26.5t61.5 16.5t60.5 10.5t45 6t30.5 8t17.5 21.5t5 46.5t-24.5 37t-63.5 -2.5 t-88 -25.5t-98 -33.5t-76 -20.5t-42 3t-24.5 26.5t-21.5 48t-30.5 44t-38 18.5t-38 -2t-28.5 -15q-18 -18 -21.5 -41t37.5 -66q20 -23 19.5 -34t-13 -17t-34 -7t-41.5 1q-23 2 -33 -10.5t-12.5 -32t2 -44t14.5 -48.5q8 -25 33.5 -31t56.5 -1t64.5 17.5t62.5 26.5 q27 14 43 19t25.5 4t17.5 -9t20.5 -22.5t40 -47t55 -82t49 -116t23.5 -148.5q2 -117 -44 -197.5t-118.5 -133t-159.5 -77t-165 -26.5q-78 -4 -126 21.5t-75.5 65.5t-37 85t-11.5 82t29 77t77 77t96 68.5t89 52t62.5 18.5t44 -9t41 -12.5t53.5 7.5q31 12 41 35.5t1.5 48 t-32 48t-56 36t-70.5 0t-81 -39t-91 -62.5t-101.5 -70.5t-97.5 -67.5t-74.5 -67.5t-47 -71.5t-14.5 -80z" />
<glyph unicode="&#xf1;" horiz-adv-x="964" d="M63 672q0 -27 10.5 -39t20.5 -24.5t18.5 -31t4.5 -57.5q-4 -47 -3 -109.5t8 -124t19.5 -117.5t30.5 -91q35 -70 79 -51.5t73 108.5q29 88 78 170t102 178q25 47 42 63.5t31.5 12.5t27.5 -22.5t30 -38.5q16 -23 33.5 -80.5t32 -127t23.5 -140t11 -115.5q2 -47 22.5 -65.5 t44 -8.5t44 49t22.5 109t-15 167t-44 195.5t-59.5 183.5t-61.5 125.5t-61.5 47t-64.5 -12t-62.5 -56.5t-55.5 -83q-27 -47 -42 -75.5t-27.5 -52t-25.5 -51.5t-34 -73q-18 -43 -29.5 -53t-17.5 -1t-7 32.5t1 50t2 61.5t-2 72t-7 70.5t-13 58.5q-16 41 -28.5 58.5t-49.5 -1.5 q-18 -10 -35.5 -18t-32 -20.5t-24 -29t-9.5 -42.5zM70 1063q-10 -68 11 -94.5t71 -36.5q25 -4 43 11t35.5 46t37 71t47.5 85q27 45 47.5 44t37 -24.5t33 -56.5t38.5 -53q20 -20 51 -30.5t64 -10.5t62.5 12t51.5 37q20 25 43 40t46.5 32.5t50 40t57.5 63.5q31 39 48.5 68.5 t22.5 52t-2.5 41.5t-23.5 39t-42 12t-55.5 -35.5t-61 -67.5t-62.5 -85t-59.5 -57.5t-58.5 2t-61.5 51t-66.5 90t-72.5 47.5t-72.5 -39t-63.5 -78t-45 -69.5t-38 -37t-43 -24.5t-41 -30.5t-29.5 -55.5z" />
<glyph unicode="&#xf2;" horiz-adv-x="804" d="M19.5 1061.5q0.5 -21.5 15 -38.5t43 -28.5t78.5 -11.5q49 0 102 -9t104.5 -23.5t96.5 -31t78 -30.5q31 -14 45 1t15 41.5t-10.5 55.5t-29.5 45q-18 14 -71.5 32.5t-117 39t-125 43t-96.5 45.5q-59 18 -84.5 -12.5t-37.5 -73.5q-6 -23 -5.5 -44.5zM55 274 q-4 -53 18.5 -107t67.5 -97t107.5 -70t136.5 -29t134.5 34t103.5 92.5t68.5 124.5t29.5 134q4 63 0 106.5t-13.5 74t-18.5 53t-13 45t-3 52.5t-1 59.5t-10.5 55t-30.5 42.5q-23 14 -74 -3.5t-114.5 -54t-132 -86t-126.5 -94.5q-66 -49 -92 -136t-37 -196zM197 332 q2 57 27.5 113.5t61.5 99.5t75.5 67.5t68.5 22.5q18 -2 49 -23.5t59.5 -56.5t49 -80t18.5 -94t-17.5 -100.5t-43 -92.5t-63.5 -65.5t-76.5 -20.5t-79.5 18.5t-68 42t-46 68.5t-15 101z" />
<glyph unicode="&#xf3;" horiz-adv-x="946" d="M51 223q0 -23 9.5 -60.5t41 -74.5t91 -65.5t161.5 -32.5q92 -4 166 24.5t131.5 77.5t99.5 109.5t68.5 120t42 111.5t17.5 81q4 45 -11.5 91t-54.5 85t-100.5 66.5t-149.5 36.5q-104 10 -197.5 -35t-163 -126t-110.5 -188.5t-41 -220.5zM203 264q2 55 15 114.5t45 109 t84 80t130 28.5q78 -4 127 0t77 0t38 -23.5t8 -70.5t-8 -96.5t-22.5 -85t-48.5 -73.5t-85 -61q-53 -29 -117.5 -47t-119 -15t-90 34.5t-33.5 105.5zM291.5 943q11.5 -42 52.5 -60q39 -18 72 -9t76 74q20 33 56 50.5t75 30.5t76.5 26.5t66.5 36.5q53 45 41 85t-90 33 q-39 -4 -94.5 -23.5t-113.5 -48t-111.5 -62.5t-86.5 -62q-31 -29 -19.5 -71z" />
<glyph unicode="&#xf4;" horiz-adv-x="847" d="M55 358q2 -131 44 -220t157 -120q37 -10 88 -10t107.5 11.5t114 35t104.5 58t72.5 95t34.5 127t7 128t-8 100.5q-12 76 -25.5 122t-68.5 50q-29 2 -43 10.5t-26.5 17.5t-29 17t-48.5 8q-39 2 -69 -7t-55.5 -22.5t-51 -29.5t-56.5 -29q-43 -18 -88 -44.5t-81 -65.5 t-57.5 -95.5t-21.5 -136.5zM80 891q0 -61 39 -66.5t92 25.5q27 14 43 31.5t28.5 39t21.5 50t21.5 67.5t24.5 52.5t24.5 12.5t25 -10.5t24.5 -17.5q12 -6 40 -27.5t60.5 -47t61 -50t43.5 -39.5q29 -29 56 -34t58 30q29 33 14.5 68t-55.5 59q-18 10 -42.5 35t-54.5 56.5 t-64.5 66.5t-71.5 68q-37 31 -59.5 51t-43 28.5t-41 6t-53.5 -16.5q-31 -14 -48 -47t-25.5 -69.5t-11.5 -72.5t-5 -57q-4 -20 -20.5 -40.5t-34.5 -44t-32.5 -50t-14.5 -57.5zM207 301q2 47 26.5 104.5t61.5 103.5t81 71.5t85 11.5q41 -16 65.5 -22.5t38.5 -6.5q16 0 27.5 4 t28.5 13q14 8 26 6t18.5 -18.5t5.5 -49.5t-9 -86q-10 -53 -28 -104.5t-46.5 -92t-71.5 -67.5t-100 -31q-117 -10 -166 28t-43 136z" />
<glyph unicode="&#xf5;" horiz-adv-x="897" d="M55 307.5q-6 -69.5 22.5 -127t79 -99.5t116 -66.5t130.5 -26.5q66 -4 118 15.5t95 53t81 79.5t79 97q39 51 50.5 120t5 136.5t-25 126t-34.5 89t-30.5 49t-34 30t-50 16.5t-77.5 7q-92 -4 -165 -43t-139 -92q-33 -27 -68.5 -60.5t-67 -79t-55.5 -100.5t-30 -124.5z M116 958.5q5 -22.5 20.5 -45t37.5 -41.5q47 -37 90 1t74 118q14 39 35.5 41t44 -13t43 -39t37.5 -34q31 -23 75.5 -20.5t116.5 32.5q35 14 72 53.5t69.5 85.5t58.5 92t38 77q25 61 2 87.5t-76 -14.5q-25 -18 -43 -37.5t-33.5 -43t-32 -54t-38.5 -69.5q-23 -41 -50 -41 q-25 0 -49 19.5t-47.5 51t-42.5 56.5q-37 49 -81 50t-78.5 -34t-90 -90t-127.5 -111q-18 -14 -24 -34.5t-1 -43zM250 360q2 47 26.5 94.5t58.5 87.5t70.5 67.5t67.5 37.5q39 12 57.5 -2t27.5 -38.5t19.5 -48t34.5 -30.5q29 -6 47.5 -1t29.5 3t15.5 -23.5t6.5 -80.5 q2 -57 -13.5 -107.5t-49.5 -88t-87 -58t-127 -18.5q-92 4 -141 57t-43 149z" />
<glyph unicode="&#xf6;" horiz-adv-x="940" d="M62 274.5q1 -47.5 16.5 -93.5t53.5 -84t102.5 -63.5t163 -29.5t171 27.5t124.5 83t86 115t53.5 122t26.5 105.5t9 65q2 27 -4 57.5t-17 55t-26.5 39t-34.5 12.5q-18 -4 -44.5 5t-59.5 21.5t-71 24t-79 11.5q-23 0 -41 -3.5t-41.5 -9.5t-56.5 -16t-82 -24.5t-83.5 -39 t-59.5 -58.5t-43.5 -75t-34.5 -86q-12 -31 -20.5 -72.5t-7.5 -89zM160 1010q-4 -27 4 -48.5t23.5 -37t38 -23.5t45 -10t38 8t24.5 28.5t13 42t6 48.5q4 49 -16.5 77.5t-69.5 24.5q-43 0 -69.5 -28.5t-36.5 -81.5zM180.5 284q-12.5 40 3.5 83q14 43 33 81.5t44.5 69.5 t60 48.5t84.5 17.5q39 0 60 -8.5t37.5 -20.5t33 -23.5t41.5 -17.5q27 -6 59.5 4t59 15.5t39.5 -5t1 -59.5t-36.5 -105.5t-62.5 -103.5t-90 -78.5t-117.5 -34t-118 16t-86 49.5t-46 71zM569 1014q-12 -76 99 -94q27 -4 44 1t27.5 17t14.5 30t8 38q2 20 -4 39.5t-19.5 35 t-33 24.5t-41.5 7q-49 4 -69 -28.5t-26 -69.5z" />
<glyph unicode="&#xf7;" horiz-adv-x="1474" d="M39 494.5q-6 -25.5 2 -48t26.5 -40t49 -23.5t75 3t103.5 40q39 20 121 41.5t185.5 42t216 40t211.5 35t175 27t103 15.5q82 12 103 53t15 94q-4 27 -17 38t-34 11q-20 0 -43.5 -11t-44 -29.5t-79 -33t-136.5 -28.5t-166 -29.5t-168 -32t-165 -36t-161.5 -35t-139 -22.5 t-95.5 3q-37 10 -65.5 1t-47 -29.5t-24.5 -46zM614 262q2 -10 16.5 -23.5t36 -24.5t47 -18.5t48.5 -2.5q47 6 70.5 48t27.5 83q2 20 -8 35.5t-25.5 25.5t-34 15.5t-34.5 5.5q-23 -2 -48.5 -20.5t-47 -42.5t-36 -47.5t-12.5 -33.5zM659.5 930q-2.5 -12 13 -27.5t37 -30 t44 -23.5t32.5 -9t27.5 8t34 22.5t29 34.5t12.5 45t-15.5 49.5t-36 44t-42 31.5t-33.5 15q-16 2 -32.5 -18.5t-32 -48.5t-25.5 -54.5t-12.5 -38.5z" />
<glyph unicode="&#xf8;" horiz-adv-x="835" d="M18 -209q-10 -68 1.5 -82t29 -2t36.5 41t25.5 49.5t21.5 54t34.5 69.5t40 71t39 57.5t35 28.5t32 2t30.5 -12.5t32 -12.5q14 -4 33.5 -12t47 -13t64.5 -5t88 12q49 12 71.5 30.5t30 45t8.5 58.5t7 69q14 72 25.5 141.5t-7.5 134.5q-10 31 -16 55.5t-6 46.5q0 23 6 44.5 t23 50.5q14 27 30.5 39t33.5 20t34.5 18.5t36 33t38 32.5t39 16.5t39 11.5t37.5 19t19.5 32.5t-12 37t-39 34t-60.5 19.5t-65.5 -14.5t-58 -48t-50 -65.5t-41.5 -62q-18 -29 -38.5 -44.5t-48.5 -24.5t-62.5 -15.5t-83.5 -14.5q-49 -10 -110.5 -44t-119 -74.5t-100.5 -78.5 t-51 -55q-10 -16 -24.5 -51t-20.5 -75t3 -79.5t48 -64.5t51 -44t10 -35.5t-15 -33t-28 -34.5q-29 -37 -68.5 -101.5t-54.5 -175.5zM208 374.5q7 20.5 44 61.5q18 20 42.5 42t49.5 40.5t47.5 33.5t38.5 26q18 12 42 24t39 15.5t16.5 -9t-23.5 -49.5q-51 -74 -103.5 -141.5 t-74.5 -98.5q-23 -33 -41.5 -40t-51 34t-25.5 61.5zM387 233q37 74 72 118t57 73q12 14 21.5 26.5t19.5 14.5t21.5 -13.5t23.5 -58.5q6 -23 13.5 -59.5t7.5 -71.5t-8.5 -61.5t-31 -28.5t-63.5 -6t-76.5 -1t-55 17.5t-1.5 50.5z" />
<glyph unicode="&#xf9;" horiz-adv-x="952" d="M76 336q2 -68 27.5 -126t62.5 -102.5t80 -72t79.5 -31.5t84 21.5t94.5 64.5t86 83t61 77q20 33 31.5 40t17 -6.5t8.5 -46t11 -77.5t29.5 -77t47 -49.5t49 -21.5t36.5 6q12 8 22 30t13.5 49.5t-3.5 60t-30 67.5q-23 33 -33 78t-13 93t-2 94.5t1 80.5q0 27 -6.5 41.5 t-17.5 19.5t-27.5 6t-36.5 5q-20 2 -37 1t-29 -14.5t-22.5 -42t-18.5 -79.5q-8 -49 -16.5 -64.5t-24.5 -26.5t-45 -35t-74 -93q-47 -70 -77.5 -89.5t-53 -11t-40 34t-36.5 47.5q-18 20 -19 67.5t7 103t19.5 109.5t21.5 89q8 35 -12.5 54.5t-50 25.5t-60 -1t-39.5 -26 q-18 -35 -44.5 -127t-20.5 -229zM301 1200q-12 -51 16.5 -83t65.5 -32q18 0 47 -22.5t62.5 -52t68.5 -58t63.5 -43t49 -8.5t27 24.5t-0.5 44t-34 54.5q-27 27 -56.5 64.5t-62.5 74.5t-65.5 68t-65.5 47q-53 25 -78 0t-37 -78z" />
<glyph unicode="&#xfa;" horiz-adv-x="915" d="M78 274.5q-2 -36.5 11 -88t39 -99.5t61.5 -81t82.5 -33q45 0 94.5 30t94.5 70t81 80t56 62q41 43 51 43q12 0 23 -29q4 -12 11 -34.5t17.5 -47t27.5 -49t44 -41t39 5t16 59.5t1 80.5t-9 71.5q-6 27 -11 66t-7 84t-1 93t7 93t5 70t-9 38t-24.5 18t-41 9.5t-49 -14 t-45 -51.5t-35 -76t-18.5 -88q-10 -90 -52 -162.5t-128 -138.5q-43 -33 -73 -36t-49.5 16.5t-28.5 60.5t-11 98.5t6 95t19.5 63.5t23.5 45.5t22 39.5q18 39 11.5 83t-64.5 56q-102 6 -127 -69q-6 -18 -16 -68.5t-19.5 -110t-16.5 -119t-9 -96zM390 1025.5q-3 -21.5 8.5 -41 t31.5 -38.5q41 -37 77 -28.5t71 73.5q33 63 83 87t130 36q39 6 49 27.5t0.5 45t-34 42t-52.5 16.5q-53 -4 -113.5 -26.5t-157.5 -88.5q-47 -31 -68.5 -57t-24.5 -47.5z" />
<glyph unicode="&#xfb;" horiz-adv-x="927" d="M75 475.5q1 -61.5 6 -125t13 -121.5q8 -55 30.5 -103t54.5 -83t70 -54.5t75 -19.5t77.5 30t77.5 73t68 89t47 81q16 33 24.5 16.5t14.5 -54.5t12 -86t23 -75q31 -55 85 -77.5t91 -4.5q35 18 23.5 74.5t-52.5 128.5q-18 35 -27.5 73.5t-13.5 78.5t-6 80t-4 79 q-6 78 -35 120t-70 42t-62.5 -31t-39.5 -102q-10 -35 -18.5 -63.5t-22.5 -57.5t-36.5 -61.5t-59.5 -75.5t-59.5 -56.5t-38 -5t-26.5 34t-21.5 60t-15.5 82t-5 96.5q0 51 4 101t10 93q8 57 -14.5 84t-54.5 27q-31 0 -64 -23.5t-45 -66.5q-10 -33 -13 -84t-2 -112.5z M125 974.5q2 -20.5 6 -36.5q6 -35 42 -50.5t77 13.5q20 14 53 38t69 53.5t68.5 61t55.5 60.5q20 29 44.5 13.5t47 -52.5t42 -83t34.5 -79q29 -63 72.5 -71.5t86.5 14.5t28 69t-56 87q-20 20 -44 58t-47.5 84t-44 94t-33 87t-40 50.5t-58 1t-58.5 -41t-40 -75.5 q-25 -92 -91.5 -134t-145.5 -63q-33 -8 -47.5 -24.5t-18.5 -35t-2 -39z" />
<glyph unicode="&#xfc;" horiz-adv-x="958" d="M90 273.5q6 -66.5 33 -122t70 -94.5t98 -53q29 -6 70.5 16.5t87 59.5t89.5 81t78 79q33 35 53.5 31.5t32 -30t15.5 -65.5t6 -73.5t18.5 -61.5t38 -44t44 -23.5t34.5 -2.5t21.5 11.5t11.5 25t-5 50t-27.5 90t-30 119t-10.5 119.5t3 109.5t12.5 88.5t8.5 59q0 23 -11.5 35 t-34 18t-61.5 10.5t-58.5 -9t-28.5 -38t-12 -58.5t-9 -66q-12 -66 -55.5 -129.5t-108.5 -129.5q-33 -31 -63.5 -52t-57.5 -26t-47.5 9t-28.5 55q-10 39 -3 85t22.5 93t36 95.5t37 93.5t-9 66.5t-62.5 25.5t-71 -6t-34 -29q0 -18 -5 -37.5t-14 -50.5t-23.5 -76t-35.5 -114 q-20 -68 -14 -134.5zM174 1079q-2 -25 8.5 -46t26.5 -36.5t36.5 -24.5t43.5 -7q20 2 42.5 12t40 26.5t28 36t8.5 39.5q-4 41 -28 74t-83 37q-61 0 -90 -31t-33 -80zM571 1071q-6 -35 28 -62.5t87 -31.5q51 -4 68.5 25.5t17.5 64.5q0 16 -2 31.5t-11 28t-29.5 19.5t-59.5 7 q-39 2 -57.5 -4t-26.5 -18.5t-10.5 -28t-4.5 -31.5z" />
<glyph unicode="&#xfd;" horiz-adv-x="847" d="M19 677q-1 -40 36 -63q18 -10 67.5 -53t105 -95t105.5 -100.5t70.5 -66.5t29.5 -29.5t12.5 -22.5t3.5 -28v-43q0 -18 -16.5 -60t-40 -95.5t-53.5 -110.5t-56.5 -109.5t-48 -91.5t-27.5 -53q-10 -23 -19.5 -44.5t-10.5 -42t7.5 -36.5t30.5 -25q23 -10 38 -0.5t25.5 26.5 t17.5 40t13 41q4 12 24.5 56t50.5 104.5t63.5 130t64.5 132t54.5 111t29.5 64.5q10 25 25.5 67t35 84t42 77.5t49.5 50.5q53 29 63 70.5t-6 84.5q-16 41 -44 42t-63 -34q-16 -16 -28.5 -40.5t-23.5 -52t-23.5 -59.5t-31 -64.5t-32.5 -44t-26.5 -8.5t-26.5 17.5t-32.5 31 t-61.5 58.5t-92.5 90t-92.5 93t-61.5 69.5t-35.5 31.5t-32.5 4t-29 -13t-25.5 -18q-23 -33 -24 -73zM367.5 881.5q13.5 -35.5 42 -54t59.5 -5t55 54.5q12 20 40 48.5t63 61.5t73.5 64.5t73.5 58.5t40 44t-10.5 26.5t-43 8.5t-55.5 -9q-29 -10 -73 -39t-91 -65t-89 -71.5 t-67 -58.5q-31 -29 -17.5 -64.5z" />
<glyph unicode="&#xfe;" horiz-adv-x="811" d="M70 1106.5q-2 -23.5 3 -58t15 -85.5q6 -35 15.5 -123t20.5 -203t21.5 -245t18.5 -248.5t12 -215t2 -141.5q-4 -70 4 -112t23.5 -60t40 -15t55.5 23q31 18 35 69.5t-2 110t-16.5 114.5t-12.5 85t18.5 55.5t55.5 54t80 58.5t92 65.5t96 90t80 117t35 121t-35 102.5 q-41 43 -89 53t-97 4t-96.5 -21.5t-82.5 -23.5q-35 -10 -52 -11t-24 4t-9.5 17t-4.5 31q-4 18 -12 55t-17.5 83t-16.5 97.5t-7 98.5t-8 75.5t-22.5 42t-33 12.5t-38.5 -12q-23 -12 -34 -26.5t-13 -38zM324 394q2 44 15 84t48 63q33 20 77 28.5t85 4t71.5 -18t38.5 -33.5 q8 -23 -1 -48t-30.5 -53t-55 -56.5t-72.5 -55.5q-41 -27 -71 -49t-51.5 -34.5t-32.5 -10.5t-13 25q-2 27 -6 68.5t-2 85.5z" />
<glyph unicode="&#xff;" horiz-adv-x="952" d="M23.5 705.5q-5.5 -25.5 4 -50t30 -45t48.5 -28.5q27 -8 54.5 -33t55.5 -55.5t59.5 -62.5t68.5 -54.5t52.5 -40t24.5 -35.5t19.5 -39.5t38.5 -48.5q27 -27 39 -43t13 -31.5t-8 -34t-23 -51.5q-16 -33 -48 -86t-66 -116.5t-62.5 -131t-36.5 -125.5q-10 -57 4 -82.5 t36.5 -34.5t47 -8t39.5 -1q14 -4 29.5 -1t23.5 12t4 25.5t-28.5 41t-26.5 52t10 61.5t32.5 77t41 96t49.5 93t60.5 71t63.5 53.5t56.5 41t26.5 29.5t-4.5 21.5t-15.5 22.5t-7 32.5t18.5 51.5t41 69.5t51 83t49.5 91.5q20 45 25.5 73.5t-3 45t-26 25.5t-37.5 19 q-23 8 -48.5 3t-47 -20t-34.5 -39t-9 -50.5t4 -46.5q0 -18 -4 -37t-13.5 -41.5t-23.5 -54.5q-14 -31 -26.5 -44.5t-24.5 -13.5t-24.5 9.5t-27.5 19.5q-12 10 -59 55t-100.5 103.5t-99.5 118t-60 96.5q-18 47 -42 65.5t-50 18.5q-25 0 -52.5 -14.5t-52 -33t-30 -44zM262 1012 q0 -29 14.5 -56.5t36 -49t48 -36t53.5 -14.5q51 0 70.5 42t19.5 85q0 20 -10.5 42t-25.5 39t-34.5 28.5t-40.5 13.5q-16 2 -38.5 -2t-43 -15.5t-35 -31t-14.5 -45.5zM582 942q0 -29 31.5 -55.5t86.5 -30.5q27 -2 47.5 5t34 19.5t20.5 28t9 29.5t-11.5 29.5t-34 29t-43 22.5 t-38.5 9q-23 2 -41 -5t-31.5 -20.5t-21.5 -30t-8 -30.5z" />
<glyph unicode="&#x152;" horiz-adv-x="1873" d="M45 412q2 -127 57.5 -212t137.5 -137.5t178 -76t184 -25.5t152.5 22.5t110.5 58.5t75 71t43 61q27 47 37 40t20 -48q4 -18 9.5 -29.5t17.5 -16.5t33.5 -6t62.5 3q27 2 76 6t108.5 8t123 11.5t120 13.5t98.5 14t60 16q27 12 36 35t2 44.5t-29.5 34.5t-61.5 5t-89.5 -14 t-104.5 -9t-109.5 -4.5t-102.5 3.5q-47 2 -69.5 34.5t-31.5 76.5t-10 90t-3 77q-4 31 22.5 46.5t64 21.5t80.5 9t74 9t66 11.5t69.5 6.5t66.5 -3.5t56 -14.5q47 -23 66.5 -7.5t15.5 56.5t-35.5 67.5t-124.5 26.5q-47 0 -93 -7t-93 -13t-95 -8t-95 8q-47 8 -55.5 25.5t4 34 t37 28.5t42.5 10q20 -2 68.5 8.5t105 22.5t109.5 25.5t81.5 17.5t62.5 2t65 3t53.5 23.5t32.5 65.5q8 45 -19.5 55.5t-88 -1t-149.5 -34t-202 -41t-164 -25.5t-69.5 -5t-20.5 13.5t-16 29.5q-16 27 -31.5 40t-58.5 17t-69 -16t-50 -61q-12 -20 -35 -21.5t-53.5 3.5 t-68.5 11.5t-81 1.5q-119 -12 -229.5 -69.5t-194.5 -140t-134 -182t-48 -197.5zM180 440q2 31 17.5 77t45 97.5t70.5 103.5t94.5 93t117 66.5t139.5 25.5q45 0 70.5 -8t37.5 -23.5t15.5 -36t3.5 -42.5q0 -47 28.5 -77t69.5 -18q20 6 31.5 13.5t21.5 7.5t22.5 -11t30.5 -42 q12 -20 17.5 -71.5t-1.5 -117t-30 -137.5t-69 -132.5t-116.5 -101t-172.5 -43.5q-111 -4 -195 38t-140.5 101.5t-84 125t-23.5 112.5z" />
<glyph unicode="&#x153;" horiz-adv-x="1579" d="M55 262q2 -59 30 -111.5t73 -92.5t102 -64.5t118.5 -26.5t115 29t96.5 72t71.5 84t41 65.5t22.5 15t22.5 -29t25.5 -49t31.5 -44t54.5 -37t85 -39t112.5 -31.5t137.5 -15q74 -4 118 6t64.5 29.5t20.5 46.5q0 29 -15 61q-14 31 -35.5 34t-52 -6t-70.5 -23.5t-91 -16.5 q-199 -12 -218 106q-4 29 18.5 39t59.5 12.5t83 1t89 5t99.5 39t106.5 78.5t85 97.5t37 96.5q4 90 -51.5 143.5t-153.5 57.5q-49 2 -106.5 -24t-114.5 -62.5t-108.5 -74.5t-88 -60.5t-54 -24.5t-26 9t-8.5 34t-2 51q-2 27 -12 56.5t-30.5 54t-49.5 40t-67 17.5 q-55 2 -119 -25.5t-127.5 -75.5t-121.5 -109.5t-102.5 -124t-71 -119t-24.5 -95.5zM186 295q8 51 48 107.5t88.5 102.5t94.5 76.5t68.5 28.5t30.5 -12t10 -24.5t4 -30t13 -23.5q12 -10 25.5 -4t26.5 17.5t27.5 18.5t26.5 -3q29 -23 30 -57.5t-17 -106.5q-10 -35 -32 -84 t-54.5 -93t-73.5 -75t-86 -31q-47 0 -92 11.5t-79 35t-51.5 59.5t-7.5 87zM936 455q0 8 19.5 30.5t48 47t60.5 46t56.5 27.5t57.5 6q35 0 65.5 -6t53 -19.5t24.5 -33.5q2 -23 -5 -40t-29.5 -31.5t-62.5 -26t-103.5 -21.5t-100.5 -11t-55.5 3t-23.5 12t-5 17z" />
<glyph unicode="&#x178;" horiz-adv-x="1216" d="M43 1386.5q4 -36.5 21.5 -73.5t35.5 -53q12 -12 55.5 -53.5t100.5 -97.5t121.5 -120.5t122 -123t98.5 -101.5t51 -57q31 -43 26 -93.5t-42 -128.5q-18 -39 -49 -120.5t-61.5 -174t-56.5 -177.5t-34 -130q-16 -88 10.5 -121.5t75.5 -37.5q25 -2 36 3t14 21t2 46t1 77 q4 119 33 224.5t62.5 188.5t60.5 140t29 81.5t19.5 37t40 20.5t44 15.5t31.5 21.5q8 14 6 30.5t-8 38t-13.5 48t-5.5 59.5q0 20 19.5 58t47.5 83.5t61.5 94.5t66.5 93t58.5 80t37.5 54q6 8 13.5 16.5t8.5 20.5t-9.5 28.5t-36.5 41.5q-29 25 -49.5 21.5t-39 -22t-35 -49 t-32.5 -61.5t-43 -83t-54.5 -107.5t-52 -102.5t-38.5 -63q-29 -35 -61 -21t-62 49q-14 16 -47 43t-72 57.5t-77 61.5t-62 55q-49 49 -88 108.5t-52 113.5q-6 25 -13 52t-22.5 48.5t-44 34t-75.5 8.5t-62.5 -35t-11.5 -67.5zM457 1403q-4 -47 11 -82t37.5 -58.5t47.5 -36 t39 -12.5q29 0 38 28t3 58.5t-4 58.5t20 89q18 59 13 90t-54 41q-47 12 -94 -36t-57 -140zM702 1456q0 -29 41 -59.5t91 -34.5q25 -2 39 6t22 22.5t10 33t2 36.5q0 37 -18.5 72t-59.5 35q-29 0 -51 -12.5t-39.5 -30t-27 -36t-9.5 -32.5z" />
<glyph unicode="&#x2c6;" horiz-adv-x="831" d="M34 845.5q-1 -24.5 17.5 -37.5t46 -16.5t46 7t50 45.5t68.5 80t73 92t58 82q23 33 39.5 35t28.5 -10.5t21.5 -31t17.5 -26.5t29.5 -26.5t46 -42t48 -50t36 -49.5t29 -32t32.5 -9t29.5 7.5t19.5 17.5q6 8 14.5 20t11.5 26.5t-3.5 32t-26.5 39.5q-23 20 -56.5 55.5 t-67.5 75t-59.5 78.5t-29.5 70q-10 61 -42 96t-85 31q-27 -2 -42 -13.5t-25.5 -33t-18.5 -54t-16 -75.5q-10 -43 -41 -93.5t-70 -96.5t-78 -82.5t-61 -55.5q-39 -31 -40 -55.5z" />
<glyph unicode="&#x2dc;" horiz-adv-x="950" d="M46 871q3 -17 12.5 -29.5t20.5 -20.5t19 -12q16 -8 44 -2t48.5 55t48 92t89.5 99q31 27 53 27.5t40.5 -11.5t34 -34.5t33.5 -41.5q16 -20 34 -33.5t41.5 -18.5t55 0t78.5 22q45 18 83 49.5t67 67.5t46.5 70.5t23.5 57.5q12 47 -7.5 63.5t-44.5 18.5q-25 4 -49 0t-26 -57 q-2 -29 -8.5 -48.5t-22 -34.5t-39 -29.5t-59.5 -33.5q-35 -16 -59.5 -10t-42 24.5t-33 43t-31.5 45.5q-35 41 -78 37t-84 -37q-18 -16 -60.5 -51t-87.5 -76t-82.5 -82t-50.5 -70q-10 -23 -7 -40z" />
<glyph unicode="&#x2000;" horiz-adv-x="927" />
<glyph unicode="&#x2001;" horiz-adv-x="1854" />
<glyph unicode="&#x2002;" horiz-adv-x="927" />
<glyph unicode="&#x2003;" horiz-adv-x="1854" />
<glyph unicode="&#x2004;" horiz-adv-x="618" />
<glyph unicode="&#x2005;" horiz-adv-x="463" />
<glyph unicode="&#x2006;" horiz-adv-x="309" />
<glyph unicode="&#x2007;" horiz-adv-x="309" />
<glyph unicode="&#x2008;" horiz-adv-x="231" />
<glyph unicode="&#x2009;" horiz-adv-x="370" />
<glyph unicode="&#x200a;" horiz-adv-x="103" />
<glyph unicode="&#x2010;" horiz-adv-x="536" d="M33 493.5q2 -24.5 14 -46t33 -23.5q47 -8 93 -6t95 6t100.5 6t110.5 -6q18 -2 31.5 13.5t19 35t-1 39t-24.5 23.5q-123 29 -224.5 29.5t-205.5 -5.5q-25 -2 -34 -21.5t-7 -44z" />
<glyph unicode="&#x2011;" horiz-adv-x="536" d="M33 493.5q2 -24.5 14 -46t33 -23.5q47 -8 93 -6t95 6t100.5 6t110.5 -6q18 -2 31.5 13.5t19 35t-1 39t-24.5 23.5q-123 29 -224.5 29.5t-205.5 -5.5q-25 -2 -34 -21.5t-7 -44z" />
<glyph unicode="&#x2012;" horiz-adv-x="536" d="M33 493.5q2 -24.5 14 -46t33 -23.5q47 -8 93 -6t95 6t100.5 6t110.5 -6q18 -2 31.5 13.5t19 35t-1 39t-24.5 23.5q-123 29 -224.5 29.5t-205.5 -5.5q-25 -2 -34 -21.5t-7 -44z" />
<glyph unicode="&#x2013;" horiz-adv-x="847" d="M43 506q6 -31 23.5 -56.5t42.5 -23.5q74 4 148.5 11t153 14.5t162.5 10.5t179 -3q41 -2 54 13t10 34.5t-18.5 38t-29.5 20.5q-166 27 -344 27q-176 0 -348 -2q-25 0 -32 -26.5t-1 -57.5z" />
<glyph unicode="&#x2014;" horiz-adv-x="1589" d="M32 481.5q1 -30.5 19.5 -55.5t59.5 -20q207 14 399 18t369.5 5t339 3t309.5 14q18 2 27.5 18.5t9.5 37.5q0 20 -7.5 35.5t-21.5 15.5q-72 -6 -179.5 -7t-234.5 -1t-267 3t-277.5 6t-265.5 6t-230 5q-25 0 -38 -26.5t-12 -57z" />
<glyph unicode="&#x2018;" horiz-adv-x="358" d="M8.5 1176.5q3.5 -93.5 34.5 -173t89 -135t149 -63.5q23 -2 44 9t31.5 29.5t6.5 38t-33 33.5q-55 27 -87 70t-47.5 95.5t-16.5 112.5t3 122q2 31 -20.5 50t-52 25.5t-55 -1t-31.5 -31.5q-18 -88 -14.5 -181.5z" />
<glyph unicode="&#x2019;" horiz-adv-x="399" d="M51 868q-2 -24 7.5 -41.5t27.5 -24.5t39 3q72 37 116 90t67.5 120.5t30.5 146.5t7 165q0 33 -24.5 49.5t-55.5 16.5q-29 0 -55.5 -14.5t-30.5 -45.5q-8 -59 -12 -117.5t-13.5 -113.5t-27.5 -102.5t-51 -84.5q-23 -23 -25 -47z" />
<glyph unicode="&#x201a;" horiz-adv-x="368" d="M-24 -261q-1 -13 6 -34q6 -23 22 -29t36.5 -0.5t43 19.5t41 34.5t46.5 68.5t52.5 105.5t43 111.5t18.5 87q0 66 -16.5 96.5t-69.5 30.5q-41 0 -72 -24.5t-31 -48.5q0 -12 7.5 -22.5t15.5 -23t15 -28.5t7 -41t-11 -56.5t-27.5 -62.5t-36 -59.5t-36 -47t-28.5 -29.5 t-18.5 -22.5t-7.5 -24.5z" />
<glyph unicode="&#x201c;" horiz-adv-x="669" d="M38 1222.5q-1 -75.5 33.5 -153.5t93 -154.5t118.5 -146.5q14 -18 31.5 -19t28.5 9t15 29t-8 42q-35 68 -65.5 126.5t-49 113.5t-20.5 111.5t25 122.5q18 47 5.5 71.5t-39 31.5t-58 -3t-50.5 -33q-59 -72 -60 -147.5zM362 1260q12 -63 33 -111.5t45.5 -93.5t52 -91 t54.5 -104q12 -25 31 -24q20 0 37.5 14t27.5 37.5t2 46.5q-18 57 -31.5 104t-26 92.5t-25.5 92.5t-34 104q-10 27 -38.5 30t-58.5 -9.5t-52.5 -37t-16.5 -50.5z" />
<glyph unicode="&#x201d;" horiz-adv-x="669" d="M68 887q8 -23 26.5 -37t40 -16.5t37.5 20.5q78 106 123 213t49 236q0 29 -24.5 53t-55.5 36.5t-57.5 8.5t-28.5 -31q-6 -57 -10 -115.5t-13.5 -116t-27.5 -110.5t-53 -100q-14 -18 -6 -41zM342 787q4 -19 15.5 -29t27.5 -9t33 19q59 70 105 143.5t73 149.5t30 152.5 t-24 156.5q-10 29 -30.5 40t-43 4t-42 -34.5t-25.5 -76.5q-8 -57 -14.5 -113.5t-16.5 -114t-28.5 -118t-51.5 -128.5q-12 -23 -8 -42z" />
<glyph unicode="&#x201e;" horiz-adv-x="669" d="M-64.5 -392.5q-1.5 -25.5 4 -45t11.5 -29.5t18.5 -12t25.5 3t25.5 14t16.5 20q10 23 38.5 83t76.5 175q47 113 75.5 201.5t38.5 162.5t-10 96.5t-76 22.5q-45 0 -61.5 -30.5t-18.5 -73.5t3.5 -87.5t3 -71t-15.5 -67.5t-33.5 -86t-43 -88t-43.5 -74q-18 -31 -26 -59.5 t-9.5 -54zM221 -320.5q-6 -23.5 17 -48.5q20 -25 38.5 -23.5t40 20t49 52t68.5 74.5q39 41 63.5 95.5t39 109.5t19.5 103t5 77q0 55 -16.5 92t-69.5 43q-31 4 -46 -10t-20.5 -41.5t-2 -65.5t7.5 -79t-2 -81t-18.5 -74t-29 -62.5t-33 -49t-42 -42t-44 -44t-24.5 -46z" />
<glyph unicode="&#x2022;" horiz-adv-x="743" d="M63 250q8 -96 62.5 -141.5t134.5 -38.5q39 2 95.5 36.5t112.5 84t106 103.5t79 95t34 70.5t-1 53.5t-19.5 43t-21.5 42q-8 20 -14 50t-20.5 56.5t-41 43t-71.5 10.5q-33 -4 -79 -31t-95.5 -66.5t-97.5 -92t-86 -106.5t-59.5 -109.5t-17.5 -102.5z" />
<glyph unicode="&#x2026;" horiz-adv-x="1310" d="M94 131q6 -23 20.5 -67t33 -88t39 -75.5t39 -27.5t34.5 40t29.5 81t22 88t12.5 61q6 37 -15.5 76t-83.5 39q-68 0 -105.5 -42t-25.5 -85zM553 139q2 -23 18.5 -49.5t38 -49t44 -36.5t34.5 -12t25 2q14 0 25.5 7t18.5 25.5t9 55.5t-8 63.5t-26.5 45t-39 26.5t-45.5 8 q-47 4 -72.5 -17.5t-21.5 -68.5zM970 139.5q-5 -20.5 5 -37.5q8 -16 24.5 -40.5t35 -46t39 -37t40.5 -11.5q20 2 33.5 17.5t23 37t14.5 44t7 40.5q2 37 -39 64t-96 31q-18 6 -37 -2.5t-32 -23.5t-18 -35.5z" />
<glyph unicode="&#x202f;" horiz-adv-x="370" />
<glyph unicode="&#x2039;" horiz-adv-x="681" d="M60 441.5q-5 -15.5 1.5 -32t21.5 -33t33.5 -30.5t61.5 -50t94.5 -82t101.5 -93t82.5 -82t57.5 -47t44.5 -9t35 18.5t31.5 33.5q31 37 23.5 66.5t-81.5 52.5q-37 10 -66.5 32.5t-57 51t-54.5 60.5t-59.5 60.5t-43 45t-7 27.5t16.5 22.5t30 31.5q14 18 44.5 43t62.5 49.5 t57.5 48t31.5 40.5q16 45 24.5 82.5t-16.5 72.5q-12 16 -33.5 10t-46 -25.5t-48 -48t-40.5 -55.5q-16 -29 -53 -63.5t-79 -68t-81.5 -61.5t-60.5 -40q-23 -12 -28 -27.5z" />
<glyph unicode="&#x203a;" horiz-adv-x="626" d="M54 797.5q-7 -31.5 2.5 -58t28.5 -45t42 -24.5t44.5 -31t44 -55.5t48 -64.5t56 -58.5t42 -39.5t9.5 -27.5t-14.5 -26t-29 -34t-38 -48t-46 -56t-49 -55.5t-47.5 -45q-47 -37 -57 -83t25 -77q16 -14 40.5 -6t49 27.5t43 44t22.5 45.5q2 20 41 56t88.5 74t96.5 71t65 49 q18 14 25.5 39.5t4.5 51t-19.5 48.5t-43 33t-68.5 46t-84 81t-77 91t-45 77q-14 39 -30.5 65.5t-36 37.5t-44 3t-53.5 -41t-36 -64.5z" />
<glyph unicode="&#x205f;" horiz-adv-x="463" />
<glyph unicode="&#x2122;" horiz-adv-x="1437" d="M10 1178.5q-2 -15.5 9.5 -32t29 -30.5t27.5 -20t30.5 -3t47 11t58.5 16t67 13q33 2 56 -26t38.5 -67t24 -77.5t10.5 -57t5 -40t9 -39t17.5 -30t29.5 -12.5t25.5 29t7.5 70t-7.5 86t-19.5 79.5t-14 56t1 35t12 25t22 23.5q27 25 80 29t139 14q43 4 46 25.5t-13.5 45 t-42 39t-43.5 9.5q-35 -14 -106 -38t-198 -55q-63 -14 -108 -22t-81 -13t-65.5 -10.5t-62.5 -11.5q-29 -6 -31 -21.5zM735 939q10 -21 31.5 -33.5t45.5 -14.5t34 10q8 12 17 38t18.5 56.5t16.5 61t13 51.5q6 18 18.5 16t30 -15t37 -33.5t37.5 -39.5q35 -35 61.5 -20.5 t86.5 74.5q31 29 46 26.5t25.5 -21t16.5 -48t18 -56.5q23 -55 43 -59t43 6t22 49t-24 84q-10 20 -22.5 56t-24.5 76t-24.5 76t-24.5 56.5t-31.5 17.5t-39 -18.5t-33 -37t-13.5 -40.5q2 -16 4 -29.5t-1 -25.5t-11 -22.5t-29 -20.5q-18 -10 -35.5 -2t-34 27.5t-31.5 46 t-30 55.5q-16 27 -24.5 40t-17.5 16.5t-21.5 -3t-32.5 -14.5q-20 -10 -31.5 -15t-15.5 -14.5t-3 -24t5 -40.5q2 -27 -8.5 -60.5t-26.5 -67.5t-35.5 -63.5t-34.5 -48.5q-20 -31 -10 -52z" />
<glyph unicode="&#x25fc;" horiz-adv-x="778" d="M0 0v778h778v-778h-778z" />
</font>
</defs>
</svg>
